<svg width="270" height="80" viewBox="0 0 270 80" fill="none" xmlns="http://www.w3.org/2000/svg">
<path d="M259.358 80H9.97531C4.48889 80 0 75.5 0 70V10C0 4.5 4.48889 0 9.97531 0H259.358C264.844 0 269.333 4.5 269.333 10V70C269.333 75.5 264.844 80 259.358 80Z" fill="#100F0D"/>
<path d="M259.358 0H9.97531C4.48889 0 0 4.5 0 10V70C0 75.5 4.48889 80 9.97531 80H259.358C264.844 80 269.333 75.5 269.333 70V10C269.333 4.5 264.844 0 259.358 0ZM259.358 1.5992C263.979 1.5992 267.737 5.368 267.737 10V70C267.737 74.632 263.979 78.4008 259.358 78.4008H9.97531C5.35471 78.4008 1.59683 74.632 1.59683 70V10C1.59683 5.368 5.35471 1.5992 9.97531 1.5992H259.358Z" fill="#A2A2A1"/>
<path d="M94.6476 19.5543H88.8678V21.0854H93.198C93.0828 22.3335 92.6163 23.3152 91.8323 24.0276C91.0485 24.7399 90.0498 25.096 88.8678 25.096C87.5674 25.096 86.4662 24.6167 85.5671 23.6548C84.6838 22.673 84.2358 21.4614 84.2358 20.0003C84.2358 18.5359 84.6838 17.3242 85.5671 16.3459C86.4662 15.3805 87.5674 14.9012 88.8678 14.9012C89.5334 14.9012 90.1649 15.0243 90.7498 15.294C91.3316 15.5603 91.798 15.9331 92.1652 16.4157L93.2633 15.2408C92.7656 14.635 92.1309 14.1691 91.3501 13.8296C90.5663 13.4934 89.748 13.3337 88.8678 13.3337C87.135 13.3337 85.6667 13.9727 84.4691 15.2574C83.2684 16.5421 82.668 18.1265 82.668 20.0003C82.668 21.8708 83.2684 23.4584 84.4691 24.7399C85.6667 26.0245 87.135 26.667 88.8678 26.667C90.6813 26.667 92.1309 26.0412 93.2478 24.7765C94.2307 23.7246 94.7316 22.3002 94.7316 20.5162C94.7316 20.2133 94.6974 19.8904 94.6476 19.5543ZM96.9503 13.6165V26.3807H103.912V24.8131H98.4809V20.7659H103.38V19.2314H98.4809V15.1875H103.912V13.6165H96.9503ZM113.723 15.1875V13.6165H105.526V15.1875H108.858V26.3807H110.388V15.1875H113.723ZM121.203 13.6165H119.672V26.3807H121.203V13.6165ZM131.342 15.1875V13.6165H123.145V15.1875H126.476V26.3807H128.007V15.1875H131.342ZM146.868 15.274C145.685 13.9727 144.236 13.3337 142.503 13.3337C140.77 13.3337 139.321 13.9727 138.139 15.2574C136.957 16.5223 136.372 18.1098 136.372 20.0003C136.372 21.8874 136.957 23.475 138.139 24.7399C139.321 26.0245 140.77 26.667 142.503 26.667C144.22 26.667 145.685 26.0245 146.868 24.7399C148.053 23.475 148.634 21.8874 148.634 20.0003C148.634 18.1265 148.053 16.5421 146.868 15.274ZM139.237 16.3459C140.12 15.3805 141.203 14.9012 142.503 14.9012C143.803 14.9012 144.886 15.3805 145.754 16.3459C146.634 17.291 147.07 18.5192 147.07 20.0003C147.07 21.478 146.634 22.7096 145.754 23.6548C144.886 24.6167 143.803 25.096 142.503 25.096C141.203 25.096 140.12 24.6167 139.237 23.6548C138.372 22.6896 137.94 21.478 137.94 20.0003C137.94 18.5192 138.372 17.3076 139.237 16.3459ZM152.336 18.4294L152.271 15.9697H152.336L158.402 26.3807H160.001V13.6165H158.468V21.0854L158.536 23.5449H158.468L152.669 13.6165H150.806V26.3807H152.336V18.4294Z" fill="white" stroke="white" stroke-width="0.199999" stroke-miterlimit="10"/>
<path d="M212.95 60.0211H216.677V35.5497H212.95V60.0211ZM246.521 44.3653L242.248 54.9745H242.12L237.686 44.3653H233.671L240.323 59.1931L236.53 67.4418H240.417L250.665 44.3653H246.521ZM225.382 57.2417C224.164 57.2417 222.46 56.6429 222.46 55.1634C222.46 53.2747 224.581 52.5506 226.411 52.5506C228.049 52.5506 228.822 52.8963 229.816 53.3688C229.527 55.636 227.535 57.2417 225.382 57.2417ZM225.834 43.8299C223.135 43.8299 220.341 44.9952 219.184 47.5767L222.492 48.9301C223.199 47.5767 224.515 47.1363 225.898 47.1363C227.825 47.1363 229.784 48.2687 229.816 50.2843V50.5358C229.141 50.158 227.695 49.5915 225.929 49.5915C222.362 49.5915 218.733 51.5114 218.733 55.1006C218.733 58.3748 221.657 60.4844 224.933 60.4844C227.438 60.4844 228.822 59.3825 229.687 58.0912H229.816V59.9813H233.416V50.5984C233.416 46.2539 230.104 43.8299 225.834 43.8299ZM202.8 47.3442H197.498V38.9562H202.8C205.586 38.9562 207.168 41.2165 207.168 43.1501C207.168 45.0465 205.586 47.3442 202.8 47.3442ZM202.704 35.5497H193.773V60.0211H197.498V50.7499H202.704C206.834 50.7499 210.895 47.8198 210.895 43.1501C210.895 38.4814 206.834 35.5497 202.704 35.5497ZM154.004 57.2462C151.429 57.2462 149.274 55.1327 149.274 52.2325C149.274 49.2987 151.429 47.1553 154.004 47.1553C156.546 47.1553 158.541 49.2987 158.541 52.2325C158.541 55.1327 156.546 57.2462 154.004 57.2462ZM158.284 45.7355H158.155C157.319 44.7582 155.709 43.8751 153.683 43.8751C149.434 43.8751 145.541 47.5338 145.541 52.2325C145.541 56.8991 149.434 60.5257 153.683 60.5257C155.709 60.5257 157.319 59.6425 158.155 58.634H158.284V59.8314C158.284 63.0177 156.546 64.7197 153.747 64.7197C151.463 64.7197 150.047 63.1117 149.467 61.756L146.217 63.0804C147.15 65.2871 149.627 68 153.747 68C158.124 68 161.824 65.4767 161.824 59.3267V44.3798H158.284V45.7355ZM164.399 60.0211H168.13V35.5497H164.399V60.0211ZM173.633 51.9481C173.537 48.7312 176.177 47.0918 178.074 47.0918C179.555 47.0918 180.809 47.8175 181.229 48.8575L173.633 51.9481ZM185.218 49.1724C184.51 47.3128 182.354 43.8751 177.946 43.8751C173.568 43.8751 169.933 47.2494 169.933 52.2004C169.933 56.8678 173.537 60.5257 178.363 60.5257C182.256 60.5257 184.51 58.1928 185.444 56.8363L182.547 54.9438C181.582 56.3316 180.263 57.2462 178.363 57.2462C176.465 57.2462 175.113 56.3945 174.246 54.723L185.604 50.1191L185.218 49.1724ZM94.7194 46.4296V49.9615H103.343C103.086 51.9481 102.41 53.3986 101.38 54.4078C100.125 55.6373 98.1618 56.9938 94.7194 56.9938C89.4097 56.9938 85.2589 52.7998 85.2589 47.5965C85.2589 42.3932 89.4097 38.1985 94.7194 38.1985C97.5835 38.1985 99.6746 39.3025 101.219 40.7217L103.762 38.2298C101.606 36.2119 98.7422 34.6667 94.7194 34.6667C87.4459 34.6667 81.332 40.4694 81.332 47.5965C81.332 54.723 87.4459 60.5257 94.7194 60.5257C98.6447 60.5257 101.606 59.2641 103.922 56.8991C106.304 54.5654 107.044 51.2859 107.044 48.6365C107.044 47.8175 106.979 47.0605 106.85 46.4296H94.7194ZM116.849 57.2462C114.274 57.2462 112.053 55.1648 112.053 52.2004C112.053 49.2045 114.274 47.1553 116.849 47.1553C119.422 47.1553 121.643 49.2045 121.643 52.2004C121.643 55.1648 119.422 57.2462 116.849 57.2462ZM116.849 43.8751C112.149 43.8751 108.32 47.3755 108.32 52.2004C108.32 56.9938 112.149 60.5257 116.849 60.5257C121.546 60.5257 125.376 56.9938 125.376 52.2004C125.376 47.3755 121.546 43.8751 116.849 43.8751ZM135.45 57.2462C132.877 57.2462 130.656 55.1648 130.656 52.2004C130.656 49.2045 132.877 47.1553 135.45 47.1553C138.025 47.1553 140.245 49.2045 140.245 52.2004C140.245 55.1648 138.025 57.2462 135.45 57.2462ZM135.45 43.8751C130.752 43.8751 126.924 47.3755 126.924 52.2004C126.924 56.9938 130.752 60.5257 135.45 60.5257C140.149 60.5257 143.978 56.9938 143.978 52.2004C143.978 47.3755 140.149 43.8751 135.45 43.8751Z" fill="white"/>
<path d="M40.9578 38.6663L20 61.0918C20.0008 61.0964 20.0024 61.1003 20.0031 61.105C20.6459 63.5399 22.852 65.333 25.4703 65.333C26.517 65.333 27.4997 65.0477 28.3424 64.5469L28.4093 64.5074L52 50.7838L40.9578 38.6663Z" fill="#EB3131"/>
<path d="M62.4591 35.1455L62.4395 35.1319L52.5141 29.3337L41.332 39.3608L52.5531 50.667L62.4261 44.9263C64.157 43.9847 65.332 42.1458 65.332 40.0253C65.332 37.92 64.1727 36.0902 62.4591 35.1455Z" fill="#F6B60B"/>
<path d="M20.1992 18.6663C20.0686 19.1358 20 19.6276 20 20.1383V59.862C20 60.3717 20.0678 60.8652 20.2 61.333L42.6667 39.4278L20.1992 18.6663Z" fill="#5778C5"/>
<path d="M41.139 40L52 29.1478L28.4072 15.4763C27.5496 14.9629 26.5488 14.6667 25.4778 14.6667C22.8563 14.6667 20.6445 16.4496 20.0008 18.8696C20 18.872 20 18.8736 20 18.8758L41.139 40Z" fill="#3BAD49"/>
</svg>
