<svg xmlns="http://www.w3.org/2000/svg" width="269.333252" height="80.000000" fill="none" viewBox="0 0 269.333 80"><path fill="#FFF" fill-opacity="1.000000" d="M94.64 19.55h-5.78v1.53h4.33c-.11 1.25-.58 2.23-1.36 2.94-.79.71-1.79 1.07-2.97 1.07q-1.95 0-3.3-1.44c-.88-.98-1.33-2.19-1.33-3.65 0-1.47.45-2.68 1.33-3.66q1.35-1.44 3.3-1.44c.67 0 1.3.12 1.88.39.59.27 1.05.64 1.42 1.12l1.1-1.17a5 5 0 0 0-1.91-1.42c-.79-.33-1.61-.49-2.49-.49-1.73 0-3.2.64-4.4 1.92-1.2 1.29-1.8 2.87-1.8 4.75 0 1.87.6 3.45 1.8 4.73 1.2 1.29 2.67 1.93 4.4 1.93 1.82 0 3.27-.62 4.38-1.89.99-1.05 1.49-2.47 1.49-4.26 0-.3-.04-.62-.09-.96m2.31-5.94v12.77h6.96v-1.57h-5.43v-4.05h4.9v-1.53h-4.9v-4.05h5.43v-1.57zm16.77 1.57v-1.57h-8.2v1.57h3.33v11.2h1.53v-11.2zm7.48-1.57h-1.53v12.77h1.53zm10.14 1.57v-1.57h-8.2v1.57h3.33v11.2H128v-11.2zm15.52.09c-1.18-1.3-2.63-1.94-4.36-1.94s-3.18.64-4.37 1.92c-1.18 1.27-1.76 2.85-1.76 4.75 0 1.88.58 3.47 1.76 4.73 1.19 1.29 2.64 1.93 4.37 1.93 1.72 0 3.18-.64 4.36-1.93 1.19-1.26 1.77-2.85 1.77-4.73s-.58-3.46-1.77-4.73m-7.63 1.07c.89-.96 1.97-1.44 3.27-1.44s2.38.48 3.25 1.44q1.32 1.425 1.32 3.66c0 1.47-.44 2.7-1.32 3.65-.87.96-1.95 1.44-3.25 1.44s-2.38-.48-3.27-1.44c-.86-.97-1.3-2.18-1.3-3.65 0-1.49.44-2.7 1.3-3.66m13.1 2.08-.06-2.46h.06l6.07 10.42h1.6V13.61h-1.54v7.47l.07 2.46h-.07l-5.8-9.93h-1.86v12.77h1.53z"/><path stroke="#FFF" stroke-opacity="1.000000" stroke-width="0.199999" d="M88.86 19.55v1.53h4.33c-.11 1.25-.58 2.23-1.36 2.94-.79.71-1.79 1.07-2.97 1.07q-1.95 0-3.3-1.44c-.88-.98-1.33-2.19-1.33-3.65 0-1.47.45-2.68 1.33-3.66q1.35-1.44 3.3-1.44c.67 0 1.3.12 1.88.39.59.27 1.05.64 1.42 1.12l1.1-1.17a5 5 0 0 0-1.91-1.42c-.79-.33-1.61-.49-2.49-.49-1.73 0-3.2.64-4.4 1.92-1.2 1.29-1.8 2.87-1.8 4.75 0 1.87.6 3.45 1.8 4.73 1.2 1.29 2.67 1.93 4.4 1.93 1.82 0 3.27-.62 4.38-1.89.99-1.05 1.49-2.47 1.49-4.26 0-.3-.04-.62-.09-.96zm8.09 6.83h6.96v-1.57h-5.43v-4.05h4.9v-1.53h-4.9v-4.05h5.43v-1.57h-6.96zm16.77-12.77h-8.2v1.57h3.33v11.2h1.53v-11.2h3.34zm5.95 0v12.77h1.53V13.61zm11.67 0h-8.2v1.57h3.33v11.2H128v-11.2h3.34zm11.16-.28c-1.73 0-3.18.64-4.37 1.92-1.18 1.27-1.76 2.85-1.76 4.75 0 1.88.58 3.47 1.76 4.73 1.19 1.29 2.64 1.93 4.37 1.93 1.72 0 3.18-.64 4.36-1.93 1.19-1.26 1.77-2.85 1.77-4.73s-.58-3.46-1.77-4.73c-1.18-1.3-2.63-1.94-4.36-1.94Zm0 1.57c1.3 0 2.38.48 3.25 1.44q1.32 1.425 1.32 3.66c0 1.47-.44 2.7-1.32 3.65-.87.96-1.95 1.44-3.25 1.44s-2.38-.48-3.27-1.44c-.86-.97-1.3-2.18-1.3-3.65 0-1.49.44-2.7 1.3-3.66.89-.96 1.97-1.44 3.27-1.44Zm9.77 1.06h.06l6.07 10.42h1.6V13.61h-1.54v7.47l.07 2.46h-.07l-5.8-9.93h-1.86v12.77h1.53v-7.96z"/><path fill="#FFF" fill-opacity="1.000000" d="M212.95 60.02h3.72V35.54h-3.72zm33.57-15.66-4.28 10.61h-.12l-4.44-10.61h-4.01l6.65 14.83-3.79 8.25h3.88l10.25-23.08zm-21.14 12.88c-1.22 0-2.92-.6-2.92-2.08 0-1.89 2.12-2.61 3.95-2.61 1.63 0 2.41.34 3.4.81-.29 2.27-2.28 3.88-4.43 3.88m.45-13.42c-2.7 0-5.49 1.17-6.65 3.75l3.31 1.36c.7-1.36 2.02-1.8 3.4-1.8 1.93 0 3.89 1.13 3.92 3.15v.25c-.67-.38-2.12-.94-3.89-.94-3.56 0-7.19 1.92-7.19 5.51 0 3.27 2.92 5.38 6.2 5.38 2.5 0 3.89-1.1 4.75-2.39h.13v1.89h3.6v-9.39c0-4.34-3.31-6.77-7.58-6.77m-23.03 3.52h-5.31v-8.39h5.31a4.28 4.28 0 0 1 4.36 4.2c0 1.89-1.58 4.19-4.36 4.19m-.1-11.8h-8.93v24.48h3.72v-9.27h5.21c4.13 0 8.19-2.94 8.19-7.6 0-4.67-4.06-7.61-8.19-7.61M154 57.24c-2.58 0-4.73-2.11-4.73-5.01 0-2.94 2.15-5.08 4.73-5.08 2.54 0 4.54 2.14 4.54 5.08 0 2.9-2 5.01-4.54 5.01m4.28-11.51h-.13c-.84-.98-2.45-1.86-4.47-1.86-4.25 0-8.14 3.66-8.14 8.36 0 4.66 3.89 8.29 8.14 8.29 2.02 0 3.63-.88 4.47-1.89h.13v1.2c0 3.18-1.74 4.88-4.54 4.88-2.28 0-3.7-1.6-4.28-2.96l-3.25 1.33c.93 2.2 3.41 4.92 7.53 4.92 4.38 0 8.08-2.53 8.08-8.68V44.37h-3.54zm6.11 14.29h3.74V35.54h-3.74zm9.24-8.08a4.6 4.6 0 0 1 4.44-4.85c1.48 0 2.73.72 3.15 1.76zm11.58-2.77c-.7-1.86-2.86-5.3-7.27-5.3-4.38 0-8.01 3.37-8.01 8.33 0 4.66 3.6 8.32 8.43 8.32 3.89 0 6.15-2.33 7.08-3.69l-2.9-1.89c-.96 1.39-2.28 2.3-4.18 2.3s-3.25-.85-4.12-2.52l11.36-4.61zm-90.5-2.75v3.54h8.63c-.26 1.98-.93 3.43-1.96 4.44-1.26 1.23-3.22 2.59-6.67 2.59-5.31 0-9.46-4.2-9.46-9.4s4.15-9.4 9.46-9.4c2.87 0 4.96 1.11 6.5 2.53l2.55-2.5c-2.16-2.01-5.02-3.56-9.05-3.56-7.27 0-13.38 5.8-13.38 12.93s6.11 12.93 13.38 12.93c3.93 0 6.89-1.26 9.21-3.63 2.38-2.33 3.12-5.61 3.12-8.26 0-.82-.07-1.57-.19-2.21zm22.13 10.82c-2.57 0-4.79-2.08-4.79-5.04 0-3 2.22-5.05 4.79-5.05 2.58 0 4.8 2.05 4.8 5.05 0 2.96-2.22 5.04-4.8 5.04m0-13.37c-4.7 0-8.52 3.5-8.52 8.33 0 4.79 3.82 8.32 8.52 8.32s8.53-3.53 8.53-8.32c0-4.83-3.83-8.33-8.53-8.33m18.61 13.37c-2.58 0-4.8-2.08-4.8-5.04 0-3 2.22-5.05 4.8-5.05 2.57 0 4.79 2.05 4.79 5.05 0 2.96-2.22 5.04-4.79 5.04m0-13.37c-4.7 0-8.53 3.5-8.53 8.33 0 4.79 3.83 8.32 8.53 8.32 4.69 0 8.52-3.53 8.52-8.32 0-4.83-3.83-8.33-8.52-8.33"/><path fill="#EB3131" fill-opacity="1.000000" d="M40.95 38.66 20 61.09v.01c.64 2.44 2.85 4.23 5.47 4.23 1.04 0 2.02-.29 2.87-.79l.06-.04L52 50.78z"/><path fill="#F6B60B" fill-opacity="1.000000" d="m62.45 35.14-.02-.01-9.92-5.8-11.18 10.03 11.22 11.3 9.87-5.74a5.57 5.57 0 0 0 2.91-4.9c0-2.11-1.16-3.93-2.88-4.88"/><path fill="#5778C5" fill-opacity="1.000000" d="M20.19 18.66c-.13.47-.19.96-.19 1.47v39.73c0 .51.06 1 .2 1.47l22.46-21.91z"/><path fill="#3BAD49" fill-opacity="1.000000" d="M41.13 40 52 29.14 28.4 15.47c-.86-.51-1.86-.81-2.93-.81-2.62 0-4.83 1.78-5.47 4.2v.01z"/></svg>