<svg xmlns="http://www.w3.org/2000/svg" width="82" height="58" fill="none" viewBox="0 0 82 58"><path fill="#01681D" d="M72.381 23.888a.7.7 0 0 0 .293.141c.158.084.342.126.467.268.284.183.576.367.86.55q.241.124.418.31l.35.3c.176.1.31.243.418.41.134.15.21.334.318.5.192.235.125.477.033.72-.125.35-.334.65-.635.876a23 23 0 0 1-2.522 1.687c-.618.36-1.32.493-2.004.635-.117.025-.234.033-.35.058a24 24 0 0 1-2.189-.1c-1.22-.2-2.322-.668-3.29-1.453-.201-.159-.368-.35-.56-.526-.1-.092-.167-.075-.234.041-.417.727-.802.886-1.612.685-.025 0-.05 0-.075-.008-.426-.159-.868-.175-1.32-.2-.3-.034-.56-.2-.86-.26a23 23 0 0 1-1.495-.308c-.1-.025-.2-.042-.275-.126a1.4 1.4 0 0 0-.31-.534c-.091-.109-.175-.226-.175-.376-.016-.384.076-.76.1-1.136 0-.058.042-.125-.016-.167-.075-.058-.125.017-.175.05-.226.159-.46.293-.702.41-.418.2-.844.334-1.32.308-.534-.025-1.069-.008-1.57-.233l-.075-.025q-.534-.21-.543.375c0 .92.009 1.838-.025 2.756 0 .1 0 .2.017.31 0 .617-.117 1.227-.226 1.828-.033.21-.025.426-.158.61-.26.167-.56.2-.844.267-.944.218-1.896.393-2.864.468-.669.05-1.337.092-2.005 0a1.05 1.05 0 0 1-.818-.585 1.7 1.7 0 0 1-.2-.785v-1.837c0-.209-.009-.41-.067-.61q-.039-.225.025-.45c.142-.285.375-.418.626-.376a.4.4 0 0 1 .109.275c.016.735.125 1.47.108 2.213 0 .351.025.694.167 1.02.075.175.2.25.401.25.986.017 1.963-.092 2.94-.226.426-.058.852-.15 1.278-.225.317-.059.375-.125.409-.451.008-.15 0-.31.067-.451.041-.167.016-.334-.009-.501.134-.927.159-1.854.2-2.781.026-.61.01-1.22.093-1.83.05-.2.041-.4.05-.609q-.002-.298.284-.184c.217.084.4.226.593.351 1.102.677 2.23.71 3.365.1.56-.3.952-.785 1.32-1.294.41-.56.693-1.186.969-1.82.025-.143.125-.251.15-.393.1-.368.35-.669.476-1.028.192-.56.367-1.119.476-1.703.1-.627.226-1.253.2-1.896-.058-1.353-.325-2.648-1.202-3.742-.643-.81-1.495-1.252-2.522-1.403-.41-.058-.81-.025-1.22.009a1.36 1.36 0 0 0-.801.359c-.218.192-.418.4-.627.593-.175.225-.426.384-.593.61-.058.075-.133.166-.25.108-.1-.042-.109-.142-.109-.234v-.125c.025-.134.075-.26.084-.401.033-.3-.042-.426-.343-.443a14 14 0 0 0-1.787 0c-.259.017-.51.017-.76.034-.735.041-1.47.083-2.205.2-.1.042-.108.134-.133.226-.126.467-.184.943-.251 1.411-.017.1-.033.2-.125.267-.293.067-.602-.15-.744-.518.026-.4.034-.801.15-1.185.034-.451.41-.886.886-.994a10.8 10.8 0 0 1 2.305-.26c1.036-.008 2.08.018 3.115.018.167 0 .293.075.41.175.125.1.267.142.384.008.66-.701 1.528-.735 2.388-.71 1.178.034 2.163.543 3.04 1.295.142.133.276.108.36-.05.1-.2.267-.242.459-.25.242-.018.25-.034.142-.26a4.7 4.7 0 0 1-.401-1.42c-.084-.626.125-1.169.45-1.686.485-.744 1.053-1.42 1.888-1.771 1.186-.501 2.347-.493 3.433.3.309.226.526.527.71.86.476 1.153.225 2.264-.218 3.358-.217.526-.543.977-.91 1.403-.167.192-.167.2.075.318.034.016 0 0 .025.008.443.226.827.501.927 1.036.134.359.15.726.075 1.102-.016.075-.058.167 0 .217.076.05.142-.033.2-.067 1.02-.643 2.114-1.11 3.3-1.286 1.386-.209 2.764-.184 4.084.368 1.31.543 2.196 1.536 2.83 2.772q.124.236.235.485c.1.125.083.267.05.409-.226.877-.777 1.503-1.545 1.946-.86.493-1.804.701-2.773.793-.635.059-1.002-.183-1.253-.785-.133-.317-.234-.367-.576-.292-.668.142-1.136.585-1.52 1.102-.701.96-1.01 2.063-1.119 3.24-.033.377.167.627.392.87.076.075.176.024.268.041.417.067.743-.083.977-.434.167-.25.3-.518.434-.794a1 1 0 0 1 .284-.384c.217-.184.476-.184.718-.125.293.075.593.159.852.342z"/><path fill="#9D3F01" d="M60.765 28.748c.46-.05.919-.059 1.345.175.15.1.183.25.192.41a7.5 7.5 0 0 1-.284 1.21c-.702 2.121-1.27 4.285-1.788 6.456a91 91 0 0 0-.334 1.495c-.066.292 0 .359.276.259.51-.167 1.036-.192 1.553-.2.61-.017 1.228-.034 1.83.091.517.084.993.3 1.444.56.343.192.343.192.426-.2.3-1.404.593-2.815.894-4.218q.022-.114.058-.217c.084-.527.217-1.044.36-1.562.116-.267.175-.543.217-.827v-.084c.075-.15.066-.317.158-.459.226-.159.46-.234.702-.033.1.175.033.35 0 .518-.159.751-.334 1.503-.493 2.263-.217.593-.259 1.22-.392 1.837-.26 1.245-.502 2.489-.752 3.733-.025.117-.059.234 0 .351.175.31.367.61.51.936.208.459.392.918.484 1.42.008.342.1.667.142 1.001.058.46.05.91.008 1.37-.084.86-.159 1.729-.4 2.564-.36 1.22-.92 2.338-1.771 3.29-.26.285-.502.593-.794.827-.4.318-.367 1.145-.058 1.462.125.125.25.25.417.326.618.2 1.236.392 1.88.459.3.033.61.084.91.075.426 0 .601-.117.726-.534.26-.836.493-1.68.71-2.53.535-2.122 1.044-4.244 1.57-6.357.476-1.912.902-3.841 1.42-5.737a28 28 0 0 1 1.019-3.048c.25-.627.342-1.278.4-1.938.018-.192.076-.384.084-.576v-.075c.05-.176.084-.36-.008-.535-.117-.284-.35-.417-.626-.5-.468-.168-.927-.36-1.387-.535-.092-.034-.2-.067-.209-.192.134-.184.351-.226.543-.31.084-.041.167-.066.25-.116.143-.05.251.016.335.125.042.092.134.083.209.117.484.192.977.359 1.37.743.158.159.242.36.35.543.15.234.084.501.059.743a15.3 15.3 0 0 1-.827 3.508c-.485 1.344-.869 2.714-1.22 4.1 0 .034-.016.067-.025.1-.066.318-.025.385.293.293.334-.092.685-.059 1.019-.142a8.1 8.1 0 0 1 3.031.25c1.337.385 2.347 1.228 3.29 2.197 1.07 1.094 1.696 2.405 2.013 3.883.042.193 0 .393.1.568.026.16-.066.276-.15.393-.693.902-1.628 1.445-2.689 1.796-.35.116-.701.208-1.06.267-.1.017-.226.008-.318.108.1.092.226.117.343.16.309.108.584.266.843.467.109.083.209.175.217.325.217.276.468.527.71.769l.259.56c.292.35.284.667-.033 1.018-.426.485-.953.844-1.504 1.178-.91.568-1.879.994-2.956 1.127-.66.084-1.328.05-1.98-.075-1.169-.234-2.254-.643-3.173-1.428-.4-.342-.718-.743-1.01-1.178-.05-.075-.084-.192-.193-.183-.133.008-.117.15-.15.242-.1.292-.2.576-.4.818a1.09 1.09 0 0 1-.82.41c-1.319.05-2.588-.21-3.824-.643-.602-.21-.81-.702-.894-1.287q.002-.075-.008-.15c-.025-.242-.075-.276-.293-.175-.467.208-.943.4-1.428.55-.751.235-1.52.368-2.313.327a2.4 2.4 0 0 1-.96-.234c-.285-.142-.527-.117-.777.092-.451.359-.994.325-1.512.283-.919-.083-1.812-.283-2.697-.526a1.46 1.46 0 0 0-.994.084c-1.036.46-1.646.267-2.264-.693a9 9 0 0 1-.217-.376c-.125-.209-.2-.234-.409-.1-.3.192-.601.392-.919.55-1.069.544-2.188.752-3.365.469-.852-.21-1.587-.652-2.138-1.353-.042-.284.217-.61.56-.71.525.342 1.018.726 1.527 1.094.042.033.076.067.134.075 1.01.309 1.963.05 2.881-.36a8.3 8.3 0 0 0 1.579-.918c.109-.083.225-.192.392-.117.234.226.326.535.485.802.133.217.225.46.359.676.367.435.618.485 1.11.2a35 35 0 0 0 2.264-1.385c.217-.142.292-.318.25-.56-.1-.635-.183-1.278-.267-1.92-.058-.444-.1-.894-.117-1.345-.041-.777-.108-1.562-.058-2.347.058-.877.133-1.762.234-2.64.1-.868.242-1.737.217-2.613 0-.243 0-.493-.176-.702-.142-.159-.334-.175-.526-.192-.417-.042-.818-.167-1.227-.209-.71-.083-1.412-.217-2.13-.125-.175.025-.25.083-.292.259-.059.267-.059.543-.067.81-.067 1.144-.209 2.28-.326 3.424-.133 1.261-.442 2.472-1.077 3.583-.175.3-.393.534-.752.584-.4-.025-.417-.041-.534-.442-.234-.768-.36-1.553-.443-2.347-.175-1.587.059-3.132.384-4.677.059-.267.075-.534.117-.802.034-.183-.025-.325-.225-.359-.15-.025-.276-.125-.435-.133-1.01-.326-2.054-.293-3.09-.21-.217.018-.442-.008-.651.06-.2.066-.35.166-.376.392-.1.267-.109.576-.276.827-.242.016-.459-.167-.56-.493 0-.242.043-.476.101-.702.125-.55.443-.793 1.06-.843A25 25 0 0 1 46 37.266c.643.034 1.27.209 1.871.451.334.134.485.41.501.76-.017.627-.25 1.211-.35 1.82-.1.619-.184 1.245-.21 1.872-.016.45-.066.893-.05 1.344.026.718.084 1.437.16 2.155 0 .067 0 .159.083.175.1.025.117-.075.15-.142.31-.635.46-1.311.576-1.996q.238-1.355.376-2.722c.059-.493.092-.994.134-1.495.033-.443-.025-.902.117-1.337.25-.459.693-.593 1.152-.626a5.6 5.6 0 0 1 1.295.025c.334.05.384-.017.442-.35.075-.418.059-.844.142-1.262.167-.3.117-.643.184-.96.1-.451.075-.919.2-1.37a.46.46 0 0 1 .351-.267c.15-.034.217-.117.242-.276.1-.651.16-1.31.243-1.97.092-.669.175-1.329.275-1.997.017-.108.017-.267.2-.275.184.217.05.467.026.684-.134 1.044-.293 2.08-.401 3.124-.109 1.052-.167 2.113-.31 3.157-.124.543-.183 1.102-.25 1.662-.033.267.009.317.268.35.292.042.584.118.877.176.517.1.785.376.885.919.1.877 0 1.745-.092 2.614-.059.576-.109 1.152-.167 1.72a36 36 0 0 0-.142 2.673c-.025 1.044.142 2.063.284 3.09.075.518.142 1.044.225 1.562.092.593-.284.926-.668 1.26-.1.093-.217.16-.326.243-.066.05-.183.067-.158.167.025.092.142.075.217.1.234.067.476.134.718.184a.8.8 0 0 1 .242.083c.36.059.719.126 1.078.167.442.059.526-.025.543-.467.008-.301-.059-.593-.05-.894.016-.284.15-.367.417-.276.092.076.134.184.175.293.301.71.81 1.16 1.604 1.186 1.545.058 2.973-.334 4.25-1.203 1.329-.902 2.197-2.163 2.74-3.658a9 9 0 0 0 .518-3.483c-.033-.734-.192-1.444-.334-2.163-.033-.175-.167-.309-.267-.459-.025-.033-.059-.058-.075-.092-.243-.56-.552-1.069-1.044-1.453-.518-.41-1.12-.643-1.763-.743-.901-.134-1.795-.117-2.664.192-.342.117-.643.309-.935.51-.192.066-.276.283-.476.333-.234.05-.3-.016-.259-.267.058-.384.159-.76.242-1.144.368-1.645.735-3.299 1.11-4.944.068-.293.134-.577.176-.869.268-.96.543-1.93.852-2.881.109-.209.125-.434.142-.66a.64.64 0 0 0-.284-.593c-.1-.067-.225-.125-.209-.292z"/><path fill="#782C02" d="M.34 28.238c.41.852.393 2.063.468 2.356.234.818.36 1.678.56 2.505.2.902.418 1.796.677 2.68.125.427.267.844.484 1.153.376.593 1.11.669 1.754.476 2.046-.634 4.017-1.52 5.963-2.413 1.002-.493 2.046-1.144 2.38.175.125.476.058 1.495.125 1.996.593 4.97 1.178 9.939 1.846 14.9.117.818.25 1.628.376 2.447.108.593.208 1.36.868 1.545.71.133 1.086-1.02 1.77-1.178 1.387-.384 2.957-.702 4.377-.952.693-.142 1.804.61 2.197-.067.242-.434.125-1.086.016-1.595-.167-.802-.359-1.603-.526-2.405-.468-2.13-1.002-4.243-1.436-6.38-.535-2.899-1.529-5.78-1.854-8.703-.042-.902-.243-1.654.626-1.804 2.447-.384 5.788-.084 8.243-.142.91-.109.827-.952.76-1.746-.033-.467-.033-.952-.117-1.42-.092-.592-.309-1.052-.476-1.544-.058-.226-.434-.76-.284-.986.159-.242.86-.309 1.136-.075.643.593.45 2.33.576 3.215.025 1.103.576 3.015-.919 3.358-.567.125-1.294 0-1.92-.034-1.713-.108-3.425.067-5.128.167-.994.067-1.579.476-1.47 1.554.142 1.227.35 2.447.56 3.666.517 2.564 1.085 5.111 1.653 7.667.418 1.511.894 2.99 1.152 4.585.234 1.136.426 2.271.502 3.407.075 1.002-.25 1.77-1.287 2.013-1.745.359-3.524.501-5.27.869-1.46.208-3.708 1.302-4.259-.744-.342-1.32-.292-2.722-.51-4.067-.216-1.378-.592-2.74-.734-4.126-.134-1.11-.075-2.23-.15-3.34-.084-1.195-.351-2.364-.518-3.533-.126-.777-.184-1.579-.284-2.364-.15-.902-.267-1.795-.418-2.689-.217-1.278-1.227-.944-2.113-.584-1.31.526-2.605.977-3.9 1.545-.935.359-1.988.968-2.998.66-.877-.326-1.178-1.379-1.453-2.197a26 26 0 0 1-.56-2.138C.683 33.274.55 32.598.408 31.93c-.1-.46-.343-2.648-.326-3.524.017-.877.15-.21.259-.142z"/><path fill="#9D3F01" d="M30.958 45.443c-.301-.217-.535-.501-.643-.86-.084-.268-.134-.568-.234-.819-.059-.167-.26-.51-.351-.167-.05.192-.042.535 0 .768.342 2.523.71 5.036 1.052 7.55.042.376.034.777-.142 1.11-.601 1.07-2.422.945-3.499.995-.91 0-1.946.058-2.297-.96a5 5 0 0 1-.192-.719c-.3-1.461-.618-2.923-.868-4.393-.443-2.272-.97-4.526-1.437-6.798a5 5 0 0 1-.092-.61c-.117-1.32 1.245-1.603 2.23-1.954 1.036-.342 2.071-.768 3.174-.785.359 0 .693.092 1.035.117.593.058 1.044-.259 1.546-.543 1.094-.61 2.522-.752 3.54.067.443.309.76.894 1.295 1.035.451.109.885-.116 1.378-.133.225-.008.46.017.668.083.31.1.543.301.059.468-1.211.393-1.971.46-1.78 1.98.101 1.093.11 2.622-.333 3.632-.36.719-.97.694-1.654.844-.56.133-.735.601-.71 1.152 0 .234.042.476.092.702.058.292.217.969-.209.869-.701-.351-.484-1.379-.902-1.98-.175-.276-.467-.46-.718-.66z"/><path fill="#01681D" d="M38.456 13.515c.092.3.117.618.176.927.05.267.175.517.208.785.05 1.428-.208 3.115-.902 4.376-.534.885-1.678.86-2.597.852-.36 0-.71-.025-1.069-.059-.752-.05-1.01-.576-1.027-1.26-.034-.41-.017-.828-.084-1.229-.025-.108-.067-.15-.092-.083-.033.067-.033.242-.025.342.034.451.059.91.084 1.362.117 1.896.259 3.783.317 5.687 0 .25.042.535-.108.752-.15.209-.401.359-.618.5a2.9 2.9 0 0 1-1.07.377c-.517.083-1.043.117-1.561.2a6 6 0 0 1-1.228.117c-.584 0-.818-.46-.952-.985-.092-.334-.15-.677-.209-1.01 0-.076-.083-.402-.125-.368-.033.041-.008.133 0 .192.034.217.1.434.15.651.2.643.176 1.103-.384 1.545-.325.26-.743.384-1.077.635a2.4 2.4 0 0 0-.485.434c-.133.15-.25.343-.434.418s-.417-.009-.626.033c-.568.159-1.094.451-1.637.668a66 66 0 0 0-3.691 1.629 3.2 3.2 0 0 1-.719.259c-1.152.267-1.687-.977-1.737-1.93-.033-.61-.033-1.219-.092-1.82-.033-.384-.083-.768-.092-1.161-.008-.51-.033-1.06-.158-1.553-.226-1.186-.368-2.773-.535-3.984-.142-1.094-.267-2.197-.45-3.282-.05-.234-.226-.3-.443-.217-1.195.5-2.372 1.052-3.558 1.57-.3.142-.626.217-.927.35-.36.168-.743.468-1.153.293-.484-.3-.701-1.06-.918-1.562-.117-.3-.243-.601-.368-.894-.944-2.188-1.67-4.46-2.388-6.731-.167-.618-.368-1.236-.426-1.88-.009-.584.392-1.051.885-1.335.56-.36 1.136-.685 1.72-.986C13.635 3.3 19.791 1.79 25.895.428c1.02-.217 2.047-.443 3.09-.435 1.061.017 1.604-.066 1.73 1.186.1.627.125 1.261.166 1.896.192 2.355.393 4.719.677 7.066.083.592 0 1.26-.535 1.611-.225.16-.476.26-.735.351a69 69 0 0 1-4.935 1.52c-.36.117-.944.176-.802.693.367 1.32.777 2.64 1.16 3.959.218.81.435 1.62.652 2.439.167.593.334 1.177.51 1.762.05.159.108.45.25.51.05.016.092-.05.1-.151-.016-.819-.108-1.637-.175-2.447-.058-.626-.226-1.236-.418-1.837-.108-.326-.183-.66-.275-.994-.184-.743-.627-1.554-.376-2.322.142-.4.56-.651.935-.827 1.311-.618 2.631-1.227 4.026-1.612 1.286-.225 1.236.953 1.637.919.133-.033.233-.167.325-.267.485-.543 1.028-1.036 1.704-1.32 1.462-.626 3.29-.217 3.825 1.412z"/><path fill="#CEF516" d="M47.553 14.684c.066-.083.066-.192.075-.292q.073-.789.284-1.554c.016-.058 0-.142.1-.158.058.05.133.083.167.158.075.176.234.218.392.234.977.134 1.938.3 2.915.41.393.041.777-.034 1.161-.067.175-.017.35-.076.518.041a.6.6 0 0 0 .017.126c0 .05 0 .108.058.125s.083-.042.117-.084c.175-.25.392-.45.643-.626.51-.292 1.069-.376 1.637-.426.133-.008.275 0 .41 0 .567 0 .559 0 .734.543.117.36.384.568.718.718.267.125.551.184.835.226.301.05.51.209.652.476.493.943.785 1.946.893 3.006.009.109.017.226-.083.31-.217-.1-.434-.06-.668-.017-.718.117-1.437.225-2.155.35a.4.4 0 0 0-.1.017c-.334.025-.434-.067-.368-.392.067-.326-.016-.619-.117-.91-.033-.084-.066-.176-.1-.26-.158-.367-.417-.593-.827-.66-.818-.141-1.545.234-1.879.994a6.8 6.8 0 0 0-.76 2.155c-.1.635-.075 1.27.042 1.896.142.768.601.977 1.303.626.15-.075.292-.184.45-.234.268-.05.544-.1.778.1-.017.143-.134.143-.226.143-.501.016-.768.384-1.06.71-.067.075-.05.175-.017.267.033.067.067.142.017.217-.301.184-.627.083-.944.067-.05 0-.1-.025-.142-.034-.293-.133-.46-.376-.568-.651a3.5 3.5 0 0 1-.267-1.796c.025-.225-.034-.375-.193-.51-.492-.425-.993-.843-1.494-1.269-.176-.15-.318-.325-.485-.484a.4.4 0 0 1-.075-.242c-.025-.46.125-.886.209-1.328.067-.393-.075-.551-.468-.493-.3.042-.593.084-.868-.075-.21-.092-.343-.276-.502-.426a22 22 0 0 1-.626-.626c-.075-.084-.184-.159-.117-.301z"/><path fill="#45B001" d="M52.37 30.301c0 .167 0 .334-.008.501-.242.192-.526.134-.785.092-.435-.058-.86-.033-1.295-.067-.476-.033-.944-.066-1.42-.066-.459 0-.6-.142-.626-.61-.017-.25-.017-.51-.033-.76-.05-.66-.076-1.32-.117-1.98 0-.1.016-.2.033-.3.008-.192.134-.326.242-.468.501-.685.869-1.445 1.203-2.23.142-.651.4-1.277.534-1.929.109-.5.126-1.002.193-1.512.025-.183 0-.375.175-.509.125-.017.184.067.234.159.075.576.117 1.16.342 1.712.184.45.401.893.735 1.244.3.318.343.685.292 1.086-.066.51-.15 1.01-.317 1.495-.092.284-.092.568-.108.86-.067 1.01-.067 2.021.317 2.99.033.084.075.175.117.259.033.058.05.125.108.175.092 0 .067-.184.192-.142z"/><path fill="#51C101" d="M74.587 27.136c-.518.56-1.144.97-1.838 1.278-.233.1-.476.142-.718.142-.868.017-1.729.142-2.597.109-1.211-.042-2.355-.31-3.35-1.06a4.8 4.8 0 0 1-.918-.878c-.058-.075-.108-.15-.108-.25.091-.802.309-1.57.425-2.364.017-.092.026-.184.11-.242.016 0 .04-.008.05 0 .166.309.492.359.776.493.276.125.493.325.718.526.443.409.869.835 1.378 1.169.576.392 1.211.56 1.888.626.217.025.375-.083.517-.225.234-.242.477-.46.769-.626.125-.076.25-.15.4-.117.276.158.477.4.736.584.459.318.96.535 1.495.685.108.025.217.042.267.159z"/><path fill="#BCEA14" d="M76.09 17.432q.19.364.293.768c.066.167-.059.242-.176.284-.71.25-1.42.526-2.138.735-.367.108-.643-.084-.86-.36a1.6 1.6 0 0 0-.735-.526c-.418-.141-.835-.108-1.253 0a4 4 0 0 0-.81.301c-.1.05-.2.1-.309.1-1.169-.2-2.313-.484-3.349-1.077-.192-.109-.392-.209-.484-.434a5.9 5.9 0 0 1 1.82-1.52c.168-.092.335-.176.493-.26.092.16.234.201.41.193h1.377c.109 0 .234-.017.326.033.318.167.668.176 1.01.21.427.04.769.241 1.095.509.292.242.601.442.952.576.317.184.676.125 1.01.2.435.092.886.109 1.312.26z"/><path fill="#7DD310" d="M52.371 30.302c-.075.083-.041.192-.05.292 0 .05.009.117-.05.125-.058.017-.084-.05-.109-.083-.275-.41-.434-.869-.526-1.345-.158-.785-.125-1.579-.092-2.38.026-.744.335-1.412.41-2.147.041-.467-.017-.826-.326-1.202a4.2 4.2 0 0 1-.977-2.923c.125-.042.192.058.25.133a8.5 8.5 0 0 0 1.612 1.587c.176.134.276.343.501.418.376.05.752.108 1.12 0a.2.2 0 0 1 .175-.092c.484-.025.835-.284 1.144-.626a2.4 2.4 0 0 1 .25-.251c.126-.125.301-.125.451-.142a11 11 0 0 1 3.015.084c.092.016.168.041.226.108a.6.6 0 0 1-.159.35c-.492.76-1.077 1.446-1.787 2.014-1.052.851-2.28.868-3.424.2-.326-.192-.618-.418-.927-.626-.192-.126-.242-.1-.292.117-.05.208-.1.417-.034.626.017.05.034.108.009.15-.168.284-.059.593-.117.886-.05 1.102-.109 2.204-.142 3.315-.017.468-.076.927-.117 1.395z"/><path fill="#511A01" d="M49.608 24.472c-.284.81-.701 1.545-1.194 2.246-.075.109-.159.218-.234.326-.067.109-.159.2-.242.284-.293.292-.626.543-.91.852-.076.075-.15.159-.276.167-.167.125-.343.242-.51.367-.734.251-1.47.493-2.238.585-2.747.334-5.044-.476-6.815-2.647a12 12 0 0 1-1.236-1.871 13 13 0 0 1-.384-.743c-.167-.343-.175-.343-.267-.727s0-.568.042-.668c.167-.075.041.292.108.4.217.352.41.71.618 1.061.267.443.535.894.869 1.295.793.96 1.804 1.587 2.998 1.938 1.294.375 2.597.359 3.917.133.342-.058.685-.117 1.027-.209.743-.192 1.386-.568 1.954-1.085.568-.518.126-.1.193-.134.116-.067.242-.142.359-.017.108.117.033.242-.042.351-.1.159-.234.292-.3.476.333-.15.617-.367.884-.61.535-.492 1.02-1.027 1.412-1.637.117-.175.15-.192.284-.142z"/><path fill="#7DD310" d="M64.674 21.357c-.276 1.194-.543 2.388-.819 3.574-.033.15-.133.184-.267.142-.058-.017-.108-.042-.167-.067a207 207 0 0 0-2.806-1.37c-.234-.116-.384-.267-.393-.534.034-.585.067-1.178.26-1.737.233-.835.484-1.662.66-2.514.016 0 .04.017.04.025.051.35.352.418.61.526.719.3 1.437.61 2.164.902.083.034.142.084.225.117.209.209.259.501.41.752.033.058.05.125.083.184"/><path fill="#A8E118" d="M59.362 21.874c-.493-.042-.994-.083-1.487-.134-.693-.066-1.378 0-2.071.092-.042 0-.084.059-.125.084-.117-.1-.242-.209-.31-.36-.25-.058-.5-.133-.768-.05-.041-.116.025-.2.092-.275a4.5 4.5 0 0 0 .794-1.453.6.6 0 0 1 .142-.242c.668-.669.826-1.495.751-2.397-.008-.117-.041-.234.067-.326.125.317.175.651.125.986-.05.292-.025.325.276.283q1.305-.2 2.597-.425c.184-.034.276 0 .31.175.191.167.124.41.158.618.025.167 0 .342.025.51.025.175.075.308.284.166a.07.07 0 0 1 .092.017c-.167.844-.384 1.679-.819 2.43-.05.092-.091.2-.142.293z"/><path fill="#925D1D" d="M47.552 14.684c.117.233.334.375.502.56.233.25.492.492.734.734.351.393.577.869.869 1.303.134.2.276.4.334.643l.075.225c.192.334.226.719.376 1.07.042.091.025.2-.033.292-.117.092-.134-.059-.226-.1-.033.175-.017.35-.042.526a9.3 9.3 0 0 1-.359 1.586c-.133.426-.15.86-.1 1.312a3.1 3.1 0 0 1-.292 1.637c-.2.409-.51.534-.919.334-.225-.109-.35-.076-.518.108-.634.677-1.278 1.345-2.113 1.78-.108.058-.208.116-.325.15s-.242.075-.318-.067c-.067-.126.042-.2.134-.268.108-.075.225-.15.342-.225a8.1 8.1 0 0 0 1.913-1.637c.033-.042.092-.075.092-.15-.217.05-.284.384-.568.3-.05-.167.075-.259.167-.342 1.069-.944 1.562-2.213 1.846-3.55.267-1.26.041-2.48-.577-3.624-.593-1.094-1.378-2.013-2.463-2.656-.485-.292-1.02-.468-1.57-.585q-.502-.148-1.028-.158c-.76-.025-1.511.025-2.238.267-.067.025-.125.05-.184.075-.818.234-1.445.768-2.07 1.303-.093.075-.085.234-.218.267q-.002.002-.017-.008v-.025a3.7 3.7 0 0 0-.067-.96c.276-.318.535-.66.894-.902.635-.443 1.353-.627 2.105-.694.492-.041.985-.041 1.478-.075.367-.025.927.017 1.244.209.535.217.434.175.877.309.551.159.927.192 1.403.418s.159.1.242.141c.2.184.368.401.652.476z"/><path fill="#7DD310" d="M72.08 25.758a1.45 1.45 0 0 0-.826.51c-.393.483-.836.55-1.42.433-.819-.167-1.478-.576-2.08-1.11-.334-.301-.66-.61-.994-.91-.242-.218-.543-.31-.835-.418-.184-.067-.317-.167-.275-.393-.15-.125-.117-.3-.092-.45.066-.51.091-1.028.133-1.546.075-1.035.15-2.071.326-3.098.017-.109.017-.217.042-.326.092-.334.092-.676.159-1.019.133.034.15.15.183.25.267.82.852 1.287 1.662 1.504.234.058.46.109.702.142.133.017.275.025.376.134.041.175-.092.284-.184.4-.3.393-.601.777-.81 1.236a3.3 3.3 0 0 0-.301 1.128c-.017.175-.075.35-.092.526-.075.618-.159 1.236-.058 1.854.092.576.317 1.07.91 1.278.677.234 1.311.167 1.862-.317.184-.16.31-.36.426-.568.226.066.36.267.56.367.1.05.184.117.284.15.108.092.334.009.342.234z"/><path fill="#A8E118" d="M64.173 20.488c-.793-.284-1.562-.651-2.347-.969-.1-.041-.2-.1-.309-.125-.3-.067-.417-.25-.367-.551.075-1.01.133-2.021-.034-3.023a6.8 6.8 0 0 0-.818-2.264c-.067-.108-.159-.217-.075-.35.083-.134.225-.092.35-.076.343.042.685.092 1.028.142q-.176.318.133.61c.1.142.25.226.368.35.326.327.543.719.66 1.162.225.843.55 1.645.918 2.43.326.701.501 1.445.577 2.213.016.159.058.326-.092.451zM66 9.882c-.25.676-.509 1.353-.76 2.038a.33.33 0 0 1-.258.15c-1.295.092-2.364-.326-3.132-1.411a1.57 1.57 0 0 1-.284-.936c0-.376-.075-.768.15-1.119a3.8 3.8 0 0 1 1.153-.902c.108.2.259.318.51.292.208-.016.35.092.434.293.083.2.175.4.334.568.208.217.45.35.76.359.125 0 .25.033.375.058.351.075.644.226.735.61z"/><path fill="#209401" d="M46.75 28.356a8.8 8.8 0 0 1 1.428-1.303c.025.826.067 1.653.15 2.48.025.293-.017.593.05.885.034.168.117.234.276.234.86.034 1.729.059 2.589.109.376.025.743.058 1.119.042-.084.208-.017.434-.075.66-.05.191-.159.283-.343.317-.902.158-1.803.317-2.714.4-.593.05-1.186.084-1.779.067-.15 0-.234-.075-.3-.192-.193-.317-.226-.676-.234-1.027 0-.893-.067-1.779-.159-2.664z"/><path fill="#51C101" d="M60.33 23.144c-.016.167.05.259.201.334q1.515.736 3.032 1.486c.108.05.2.092.284-.033q-.239.962-.476 1.937c-.042.176-.092.343-.134.51-.084.1-.209.108-.326.108-.977-.058-1.912-.284-2.78-.751-.285-.15-.435-.384-.377-.735.142-.894.293-1.787.426-2.69.009-.083.034-.175.142-.175z"/><path fill="#FBFCA7" d="M60.322 19.143c-.058.05-.108.109-.167.15-.167.109-.267.059-.284-.142q-.06-.653-.108-1.32c-.009-.625-.142-1.227-.318-1.82-.15-.518-.367-1.002-.601-1.486-.1-.217-.276-.326-.518-.36-.4-.05-.785-.141-1.136-.358-.325-.21-.542-.485-.576-.886-.017-.2-.117-.25-.3-.259-.685-.016-1.353.059-2.005.284-.1.034-.2.092-.317.05.526-.71 1.186-1.102 2.113-1.085 1.854.033 3.299 1.027 3.958 2.79.543 1.452.585 2.93.26 4.434z"/><path fill="#209401" d="M65.14 26.468c.243.426.61.743.995 1.035.835.635 1.787.927 2.83 1.02 1.095.091 2.164-.06 3.25-.101h.534c-.852.676-1.82 1.019-2.898 1.127-1.228.126-2.405-.041-3.524-.55-.81-.368-1.529-.878-2.08-1.596-.109-.142-.1-.292-.075-.434.109-.593.234-1.178.35-1.763.076 0 .126.059.151.117.167.385.4.735.46 1.161zm-4.81-3.324q-.127.74-.241 1.478c-.076.485-.126.977-.226 1.454-.05.267.059.417.25.526a6.3 6.3 0 0 0 2.322.735c.268.033.543.075.81.05a.8.8 0 0 1-.075.392c-.167.426-.434.56-.877.451-1.044-.259-2.087-.534-3.14-.785-.71-.167-.693-.35-.643-.977.034-.426.092-.86.142-1.286.059-.493.292-.919.535-1.336.384-.677.768-1.353 1.119-2.055.067-.142.033-.326.183-.434l-.15 1.787z"/><path fill="#45B001" d="M67.756 22.743c-.1-1.036.3-1.904.919-2.69q.225-.286.45-.584c0-.042 0-.092.043-.117.292-.259.559-.551.935-.701.443-.193.877-.41 1.361-.485.743-.125 1.378.025 1.863.651.258.343.492.393.868.26.668-.234 1.328-.468 1.996-.694.092-.033.209-.05.2-.183.067.325-.091.576-.275.801-.35.426-.852.618-1.336.81a8 8 0 0 1-1.637.46c-.401.066-.568 0-.71-.384-.267-.719-.852-.852-1.545-.677-.802.2-1.378.752-1.888 1.37-.534.643-.826 1.436-1.227 2.163z"/><path fill="#F4FD92" d="M61.668 13.907c-.058-.042-.133-.075-.184-.125-.208-.175-.15-.384.126-.51 1.194.268 2.388.527 3.574.802.56.134.743.426.635.994-.318 1.72-.635 3.44-.96 5.153-.16.159-.234 0-.301-.092-.2-.284-.26-.618-.284-.96-.05-.652.108-1.287.184-1.921.058-.551.167-1.094.258-1.637.05-.276-.041-.426-.309-.535-.676-.267-1.36-.542-2.037-.801a3 3 0 0 1-.694-.368z"/><path fill="#CEF516" d="M61.668 13.907c.827.317 1.645.634 2.472.952q.04.01.067.033c.668.268.693.326.56 1.044-.176.96-.335 1.921-.393 2.898-.034.434.008.869.267 1.253.05.075.075.2.217.15q-.085.564-.184 1.128c-.292-.217-.359-.568-.51-.869 0-1.077-.3-2.071-.75-3.031-.285-.602-.51-1.22-.686-1.863-.15-.551-.392-1.044-.826-1.436-.092-.075-.16-.176-.243-.26z"/><path fill="#FBFCA7" d="M73.728 17.072a3 3 0 0 1-.952-.576 1.94 1.94 0 0 0-1.412-.534c-.183 0-.35-.009-.509-.126-.109-.083-.25-.083-.392-.083-.543 0-1.086-.017-1.63-.017-.208 0-.317-.067-.241-.284 1.645-.593 3.315-.793 5.019-.267.819.259 1.445.802 1.963 1.478-.025.084-.084.125-.16.159-.542.242-1.093.409-1.686.259z"/><path fill="#209401" d="M52.631 25.591c-.025-.325.067-.651.017-.96-.05-.276-.009-.518.033-.777.059-.317.126-.342.401-.159.284.193.56.393.844.577 1.277.835 2.639.693 3.741-.36.493-.467.919-1.002 1.361-1.52.05-.066.092-.141.184-.166a7 7 0 0 1-1.31 2.338c-.494.593-1.087 1.027-1.847 1.203-.952.217-1.837.075-2.655-.46-.184-.117-.376-.225-.568-.342-.117-.075-.142-.034-.159.083-.017.184.042.376-.042.552z"/><path fill="#782C02" d="M52.839 33.609c-.05-.401-.05-.794.067-1.186.016-.059.008-.134.016-.2.075-.677.242-1.329.293-2.005.008-.125-.017-.25 0-.376.108-.242.066-.51.1-.76a5.6 5.6 0 0 1 .492-1.679c.334-.668.752-.81 1.437-.776.777.033 1.512.292 2.263.467.092.025.176.067.217.159.084.167.21.309.343.443.108.108.15.225.075.367-.117.109-.242.05-.36 0-.793-.3-1.611-.443-2.446-.56-.351-.05-.618.034-.794.36-.125.267-.259.526-.334.81-.016.067-.041.15-.142.142-.15.367-.15.76-.2 1.144-.125.885-.234 1.779-.343 2.664-.016.159-.066.317-.058.476 0 .226-.109.292-.3.326-.117.017-.268.008-.31.175z"/><path fill="#63CB05" d="M61.718 8.595c-.017.3-.042.61-.05.91-.025.719.292 1.262.818 1.696.768.635 1.662.852 2.64.752.04 0 .083-.025.116-.042-.276.51-.685.81-1.278.81-.952 0-1.812-.209-2.497-.927-.643-.677-.927-2.13.059-3.032.058-.058.125-.108.192-.167"/><path fill="#EDF973" d="M53.173 13.456c-.994.184-1.988.15-2.982-.033a33 33 0 0 0-1.586-.234c-.41-.058-.476-.1-.585-.51.668-.108 1.345-.15 2.021-.191a31 31 0 0 1 2.898-.042c.318.008.368.058.376.376 0 .225-.025.442-.142.634"/><path fill="#45B001" d="M65.14 26.468c-.258-.4-.4-.86-.618-1.277.334-1.47.677-2.94 1.003-4.418.158-.702.35-1.395.459-2.113.008-.076 0-.16.067-.218-.034.526-.059 1.044-.1 1.57-.042.502-.1.994-.142 1.495-.059.785-.109 1.57-.167 2.356-.1.534-.2 1.077-.301 1.611-.067.334-.134.66-.2.994"/><path fill="#FDFCBB" d="M66.002 9.882c-.284-.442-.719-.543-1.211-.576-.518-.033-.844-.368-1.003-.818-.116-.31-.267-.451-.6-.418-.268.025-.352-.092-.327-.376.627-.217 1.253-.276 1.888-.067.76.25 1.236.894 1.26 1.696 0 .183-.007.375-.016.56z"/><path fill="#95DA1B" d="M70.093 18.659c-.301.3-.644.55-.978.81-.76-.075-1.511-.2-2.138-.702-.375-.3-.568-.71-.718-1.144a2 2 0 0 1-.058-.192c0-.075 0-.15.058-.209.35.2.677.443 1.052.61.819.359 1.67.56 2.531.768.084.017.167.034.25.059"/><path fill="#5A2E0F" d="M67.146 31.663c.033-.577.3-1.061.643-1.512l2.297.1c.442.267.943.418 1.411.635.159.075.326.142.484.217-.217.2-.5.284-.768.376-.017.017-.042.025-.075.033-.593-.159-1.144-.426-1.729-.593-.2-.058-.41-.117-.618-.142a.685.685 0 0 0-.76.46c-.033.091-.05.2-.092.292-.042.067-.092.1-.167.1-.217-.083-.426-.025-.635.042z"/><path fill="#9FA277" d="M54.46 27.838c.193-.41.368-.493.861-.435.852.1 1.687.284 2.497.568.1.034.209.059.317.092l1.796.401c.184.292.075.543-.284.601-.25.042-.51.017-.76.067-.092.017-.184.025-.276.059-.283.041-.509-.092-.718-.26-.1-.074-.184-.1-.292-.05-.059 0-.109 0-.15-.05-.076-.242-.134-.484-.318-.676a.58.58 0 0 0-.5-.175c-.535.041-1.078.133-1.621.117-.217-.025-.426-.059-.56-.25z"/><path fill="#95DA1B" d="M72.082 25.758c-.1-.15-.293-.059-.41-.15.059-.092.15-.1.243-.092.55.041 1.102.108 1.653.15.1 0 .184.142.3.058.36.168.677.401.861.769.125.25.042.476-.159.651-.643-.133-1.236-.359-1.778-.743a3.5 3.5 0 0 1-.727-.635z"/><path fill="#EDF973" d="M73.885 25.716c-.016.15-.125.075-.192.066-.61-.058-1.227-.116-1.837-.183h-.175c-.284-.176-.61-.293-.785-.61.083-.167.158-.334.242-.5.133-.285.275-.335.543-.168q1.102.692 2.204 1.395"/><path fill="#A37233" d="M58.552 29.107c.284-.1.568-.142.868-.142.502 0 .51-.025.51-.51.3.034.568.15.827.293.05.042.1.092.15.125.41.284.51.518.41 1.002-.026.142-.034.284-.11.41-.409-.293-.893-.393-1.352-.577-.343-.133-.685-.25-1.027-.384-.117-.042-.251-.075-.293-.225z"/><path fill="#EDF973" d="M73.726 17.073c.66.058 1.244-.209 1.846-.41.25.21.384.493.517.777-.25.1-.484-.016-.718-.058-.551-.092-1.11-.134-1.645-.3z"/><path fill="#FDED39" d="M57.49 28.806c.05 0 .1 0 .15.009.135-.042.201.058.285.133.384.351.818.568 1.344.585.435.017.627.284.527.71-.318 1.42-.643 2.831-.97 4.25-.208.569-.258 1.17-.367 1.763-.209 1.127-.4 2.255-.601 3.374-.067.36-.017.71 0 1.06.008.226.125.276.326.176a.2.2 0 0 0 .067-.033c.242-.192.476-.393.751-.543.159-.067.234-.242.41-.3.158.158.35.166.567.141.518-.075 1.044-.108 1.562-.175a.53.53 0 0 1 .384.1c.242.2.468.418.777.526.317.117.643.059.96.084.218.016.36.133.476.3.351.493.627 1.02.794 1.595.108.385.4.577.693.777.134.1.225.033.234-.159a36 36 0 0 0 0-1.352c0-.11-.017-.226.108-.285l.059.05c.392.585.292 1.237.259 1.888-.042.844-.176 1.67-.376 2.48a11 11 0 0 1-.551 1.688c-.042.091-.075.183-.15.258-.176.16-.385.193-.61.21-.936.091-1.871.166-2.79.4a6 6 0 0 0-.626.217c-.134.05-.276.117-.4-.016-.043-.092-.018-.167.024-.251a.24.24 0 0 0 .05-.209c-.041-.3.042-.584.184-.852.342-.66.36-1.344.134-2.046-.142-.434-.15-.442-.568-.342-.109-.084-.075-.2-.059-.31.059-.467 0-.918-.142-1.352-.209-.635-.643-.869-1.286-.693a2.03 2.03 0 0 0-.902.51c-.117.116-.234.241-.359.358-.209.159-.284.401-.376.627a4.7 4.7 0 0 0-.325 1.302c0 .067-.026.134-.042.2-.059.218-.159.26-.351.143a1.6 1.6 0 0 1-.3-.234c-.51-.493-1.028-.969-1.445-1.537-.076-.108-.168-.217-.184-.359.041-.676.125-1.344.184-2.02.05-.636.133-1.262.158-1.897.017-.3-.025-.584-.092-.877a1.6 1.6 0 0 0-.217-.459.61.61 0 0 0-.468-.317c-.384-.067-.768-.15-1.152-.217-.159-.034-.276-.092-.242-.284.083-.585.133-1.178.275-1.754.067.008.075.117.184.108.075-.542.217-1.077.342-1.611.351-1.546.685-3.099 1.078-4.644.083-.334.225-.643.5-.869.126-.058.252-.025.368.017.485.175.96.167 1.437-.025.1-.042.2-.092.309-.008zm9.598 13.847c-.184-.785-.51-1.503-.927-2.18-.026-.033-.042-.075-.059-.108a.18.18 0 0 1 .142-.1c.15-.017.217-.1.242-.25a.47.47 0 0 1 .2-.318c.368-.276.56-.668.694-1.07a62 62 0 0 0 1.144-4.066c.058-.226.134-.435.192-.66a1.3 1.3 0 0 0 .025-.501c0-.092.025-.184.05-.276.234-.651.343-.635.869-.484.568.158 1.152.2 1.729.259.292.033.576-.017.86-.059.242-.033.384-.2.46-.426.033-.1.05-.217.166-.275.326.041.526.233.668.51.017.2.042.4-.008.6a4.5 4.5 0 0 1-.426.96c-.443.71-.626 1.52-.868 2.306a453 453 0 0 0-3.458 11.609c-.059.2-.067.426-.267.56-.351.074-.702.175-1.053.024-.133-.142-.066-.309-.033-.46a8.8 8.8 0 0 0 .192-2.145 6.7 6.7 0 0 0-.15-1.287c-.109-.526-.142-1.069-.234-1.603-.034-.192-.084-.376-.125-.568z"/><path fill="#FDDE2F" d="M42.31 39.33c-.042-.293.167-.518.2-.794.167.092.192.276.267.418.117.225.25.275.443.1.326-.292.71-.376 1.127-.4a36 36 0 0 1 2.113-.06c.092 0 .184-.025.267.042.11.134.067.276.026.41a12.5 12.5 0 0 0-.485 2.597c-.05.651-.1 1.294-.033 1.954.05.518.067 1.044.167 1.562s.225 1.027.643 1.403c.05.05.092.1.092.175-.167.26-.117.451.175.627a.85.85 0 0 0 .668.075c.727-.209 1.211-.71 1.545-1.353.685-1.345.977-2.798 1.178-4.276.067-.476.142-.96.217-1.437.058-.342.192-.442.535-.45.467 0 .935-.017 1.386-.142.484-.134.843-.401.868-.96 0-.084.025-.168.117-.218.21-.042.376.042.543.15.075.293.092.56-.15.802-.125.125-.159.3-.192.468a37 37 0 0 0-.326 2.338c-.125 1.311-.209 2.623-.192 3.934 0 .075.008.15 0 .225-.05.551-.084 1.094.033 1.637a.4.4 0 0 1 0 .142c-.041.468-.008.535-.61.51a40 40 0 0 1-4.359-.401c-.626-.092-1.236-.2-1.854-.31-.584-.1-.584-.108-.71-.684-.041-.485-.033-.986-.108-1.462a7.04 7.04 0 0 0-1.37-3.215c-.084-.109-.192-.192-.284-.292-.46-.618-.868-1.27-1.294-1.913-.193-.3-.393-.593-.585-.893-.067-.1-.167-.21-.067-.343z"/><path fill="#FDED39" d="M72.9 50.512c.067.434.168.86.385 1.261q.463.864 1.428.902c.259.009.526.017.785-.067.234.067.484.1.593.376-.209.226-.501.2-.76.226-1.286.125-2.222-.493-2.648-1.712-.025-.084-.058-.16-.075-.243-.05-.284-.225-.459-.459-.6a4.4 4.4 0 0 1-1.194-1.053.9.9 0 0 1-.218-.535c.059-.526.218-1.027.343-1.536.392-1.52.735-3.057 1.136-4.577.041-.175.041-.384.275-.451.735.175 1.487.05 2.23.092.159 0 .326-.025.476.058.368.217.727.46 1.161.526.167.076.35.067.526.059.176 0 .334.042.476.15a61 61 0 0 1 2.49 1.904c.074.059.15.117.2.192.133.2.3.31.55.243.05.033.034.1.05.142.051.108.034.217.018.325-.243 1.161-.543 1.562-1.587 2.155-1.044.601-2.147 1.019-3.332 1.211-.852.134-1.713.117-2.564.058-.059 0-.117-.016-.176-.016-.167 0-.242.075-.184.242.076.217.109.443.109.668z"/><path fill="#F9C01F" d="M54.87 43.722c.45.56.935 1.094 1.461 1.587q.223.213.46.401c.142.117.209.092.234-.1.066-.485.15-.977.342-1.437.109-.25.175-.534.418-.718.083.117.016.217-.034.31-.334.6-.468 1.26-.568 1.937a.7.7 0 0 0 .009.3c.133.476.284.952.367 1.445.05.2.125.401.167.601.034.485.234.894.56 1.236.041.042.1.067.158.076.476.033.953.025 1.412-.126.042-.016.067-.05.108-.066.226-.134.451-.26.652-.435.05-.041.1-.1.175-.066.075.083.167.033.234 0 .677-.318 1.411-.418 2.146-.51.56-.067 1.128-.134 1.687-.192a.53.53 0 0 0 .276-.109c.142.176.033.343-.042.502-.4.851-.96 1.578-1.703 2.163-.71.56-1.487.993-2.322 1.31-.894.335-1.796.41-2.706.026a3.7 3.7 0 0 0-.652-.209.6.6 0 0 1-.342-.209 9 9 0 0 1-.1-.259c-.034-.1-.109-.175-.167-.259-.126-.183-.217-.183-.334.017-.142.242-.242.51-.435.718a2 2 0 0 1-.233.234c-.21.176-.276.159-.36-.108-.025-.226.034-.443.05-.66.042-.693-.133-1.345-.267-2.013a64 64 0 0 1-.651-3.783 6 6 0 0 1-.067-1.245c0-.125 0-.25.075-.367z"/><path fill="#E88A0A" d="M68.507 48.624a371 371 0 0 1 2.456-8.402c.5-1.653 1.019-3.298 1.528-4.944.226-.726.635-1.37 1.019-2.02-.059 1.068-.234 2.112-.643 3.123-.635 1.562-1.027 3.207-1.42 4.844-.526 2.163-1.052 4.326-1.587 6.489-.459 1.879-.893 3.767-1.461 5.629a5 5 0 0 1-.109.342c-.117.318-.334.476-.685.468-1.01-.025-1.996-.192-2.94-.568-.091-.042-.091-.125-.041-.192.2-.284.376-.593.701-.76.15 0 .284.05.418.1.426.134.86.184 1.303.192.167 0 .259-.066.3-.233.343-1.262.669-2.523 1.028-3.784.025-.1.041-.2.125-.267z"/><path fill="#F9C01F" d="M46.084 47.405c.017.05.042.092.05.142.033.393.033.401.426.46 1.094.175 2.188.375 3.29.5.702.084 1.412.151 2.13.184.41.026.819 0 1.22.067.166.025.242-.041.242-.209v-.225c.133 0 .142.117.142.2 0 .493.041.986-.034 1.47a.78.78 0 0 1-.317.526q-1.063.803-2.138 1.604c-.109.083-.217.175-.368.083l-.776-1.428a.7.7 0 0 1-.1-.384c-.009-.267-.16-.342-.393-.2-.134.075-.25.175-.384.259-.96.634-2.03.893-3.174.835-.15 0-.292-.034-.359-.192-.058-.21.025-.401.067-.593.1-.451.2-.902.309-1.353.133-.384.017-.785.05-1.17.017-.192-.084-.4.092-.567z"/><path fill="#511A01" d="M43.044 51.556c-.894.752-1.946 1.42-3.073 1.713-2.03.4-4.318.083-5.972-1.245a6.5 6.5 0 0 1-1.395-1.553c-.158-.217-.943-1.971-.334-1.679.226.117.652 1.052.886 1.16.367.201.593-.266 1.01-.124.226.075.46.25.668.4.21.15.418.293.635.426 1.512.86 3.324 1.42 5.07 1.12 1.394-.226 2.58-1.078 3.432-2.205.259-.334.501-.668.752-1.003.167-.225.434-.517.618-.592.384-.16.309.309.175.55-.167.335-.418.627-.643.92-.551.743-1.11 1.503-1.83 2.096z"/><path fill="#E88A0A" d="M50.735 52.208c.317-.1.534-.351.793-.535.518-.376 1.027-.777 1.545-1.152.217-.16.401-.334.401-.627.008-.518.059-1.044-.033-1.562v-.1c-.059-.384-.009-.776-.025-1.16 0-.176.025-.351-.025-.527a35.7 35.7 0 0 1 .509-6.53c.033-.21.092-.41.267-.56.21-.176.134-.443.184-.66.15.225.192.484.2.743.034.777-.1 1.537-.175 2.305-.084.844-.184 1.687-.242 2.53-.059.886-.025 1.763.017 2.648.058 1.103.192 2.197.375 3.282.067.376.009.627-.35.852a79 79 0 0 1-2.289 1.395c-.4.234-.943.192-1.177-.342z"/><path fill="#E58005" d="M57.366 51.44c.51.166 1.01.35 1.528.484.585.158 1.186.108 1.763-.067 1.26-.393 2.38-1.044 3.298-1.988a4.8 4.8 0 0 0 1.17-1.887c.016-.042.008-.084.016-.126a12 12 0 0 0 .97-3.708c.04-.45.074-.893.091-1.344.017-.418.05-.844-.192-1.22.367.385.384.894.484 1.37.351 1.779.2 3.524-.5 5.195-1.061 2.53-2.932 4.075-5.68 4.485-.601.091-1.22.158-1.82-.042-.569-.192-.928-.602-1.128-1.161z"/><path fill="#FDFCBB" d="M53.816 38.628c.05.91-.535 1.26-1.32 1.36-.334.043-.676.051-1.019.06-.4.016-.425.033-.484.425-.134.886-.267 1.763-.41 2.64a10.3 10.3 0 0 1-1.01 3.115c-.334.643-.827 1.144-1.562 1.344-.467.125-.885-.05-1.11-.46-.109-.208-.05-.3.192-.317a.37.37 0 0 1 .309.067c.142.1.284.125.442.084.351-.084.552-.318.727-.618.71-1.253.936-2.623 1.094-4.026a92 92 0 0 0 .326-3.708c.017-.242.108-.334.359-.334 1.17-.025 2.322.092 3.466.368"/><path fill="#E57F05" d="M78.945 52.358c.276.234.46.51.51.877.025.175-.025.3-.15.4-1.153 1.02-2.464 1.746-4.018 1.871-1.67.134-3.182-.309-4.443-1.461a4.4 4.4 0 0 1-.968-1.328c.041-.134-.009-.3.158-.384.125-.017.209.067.292.133.443.36.827.785 1.278 1.136.652.501 1.362.802 2.197.86 1.77.117 3.315-.392 4.652-1.561a.7.7 0 0 0 .192-.26c.083-.108.158-.233.292-.283z"/><path fill="#C18714" d="M65.29 52.667c-.117.225-.309.392-.467.593-.075.092-.2.167-.15.317-.786-.334-.994-1.344-.393-1.929.701-.685 1.344-1.411 1.812-2.28.51-.944.844-1.946.977-3.007.075-.6.142-1.21.2-1.82.05-.551-.058-1.103-.158-1.637a3 3 0 0 1-.033-.25c.117.191.142.417.158.634.059.576.243 1.128.334 1.695a9.1 9.1 0 0 1-.116 3.491c-.017.067-.017.134-.034.2-.017.285-.142.544-.242.803a12.1 12.1 0 0 1-1.67 2.998c-.059.083-.126.167-.234.192z"/><path fill="#E88A0A" d="M72.9 50.512c-.075-.234-.167-.46-.225-.693-.067-.25 0-.343.267-.31.526.06 1.052.06 1.578.051 1.713-.033 3.274-.543 4.72-1.453q.134-.088.283-.176c.476-.267.743-.676.869-1.202.066-.292.167-.568.25-.852.25.392.35.843.443 1.286.058.259.117.51.108.777a.6.6 0 0 1-.317.543 13.6 13.6 0 0 1-4.886 1.72c-.935.142-1.879.125-2.822.109-.15 0-.276 0-.26.208z"/><path fill="#782C02" d="M42.259 39.313c.426.492.751 1.06 1.119 1.587.576.868 1.236 1.712 1.553 2.714.226.701.343 1.428.401 2.163.017.5.134 1.102-.05 1.578-.109.26-.35.25-.501.075-.267-.3-.31-.852-.326-1.27-.008-1.026-.158-2.079-.593-3.014-.35-.735-.735-1.462-1.194-2.138a5.6 5.6 0 0 0-3.324-2.121c-.61-.134-1.278 0-1.88-.109-.316-.033-1.57-.342-.86-.442.335-.034.736-.218 1.078-.251.317-.025.626-.059.944-.067 1.152-.025 2.848.393 3.624 1.295z"/><path fill="#EEA517" d="M58.995 40.29c-.25.25-.467.534-.793.693-.292.15-.451.067-.468-.276-.025-.45-.041-.91.05-1.361.284-1.512.543-3.023.81-4.526.026-.126.026-.26.15-.335a.6.6 0 0 1 .276-.175c.293-.117.56-.267.794-.493.142-.133.267-.275.334-.467.025-.084.05-.21.192-.184-.2 1.286-.535 2.539-.81 3.808-.226 1.07-.476 2.138-.71 3.207-.017.059-.067.142.008.184.034.017.1-.034.16-.059z"/><path fill="#FBF277" d="M61.877 40.148c-.117-.125-.259-.092-.4-.075-.602.066-1.212.133-1.821.183-.168.017-.318-.025-.251-.258a3.5 3.5 0 0 1 1.729-.735c1.21-.176 2.397-.1 3.474.55.668.402 1.102.995 1.353 1.73-.05.242 0 .484 0 .735-.008.334 0 .66 0 .993 0 .243-.175.334-.36.192-.333-.25-.676-.467-.793-.935-.15-.584-.459-1.11-.826-1.595a.36.36 0 0 0-.318-.167c-.017-.05.009-.084.034-.117.217-.284.217-.393-.067-.601a1.8 1.8 0 0 0-.91-.351.74.74 0 0 0-.735.342.3.3 0 0 1-.1.109z"/><path fill="#EEA517" d="M47.846 46.954c-.284.109-.526.017-.752-.15-.584-.46-.743-1.128-.852-1.812a13.6 13.6 0 0 1-.15-2.54c.05-1.168.209-2.33.56-3.457a.7.7 0 0 0 .041-.325c-.041-.176.034-.334.076-.502.108.034.208.067.317.092.46.1.476.142.41.627-.143 1.06-.427 2.096-.51 3.165q-.09 1.188.033 2.363c.075.752.226 1.495.443 2.222.058.217.142.35.384.317"/><path fill="#F4FD92" d="M72.858 32.138c-.025.293-.1.552-.36.727-.216.142-.475.117-.717.125a6.4 6.4 0 0 1-1.913-.217c-.2-.058-.417-.042-.61-.15-.091-.05-.15.058-.192.125a1.7 1.7 0 0 0-.242.66c-.025.626-.342 1.102-.785 1.52-.184.175-.4.292-.651.334q-.339.063-.276-.276c.042-.208.084-.409.125-.618.15-.693.301-1.386.443-2.08.042-.216.075-.442.109-.667l.108-.109c.226-.117.35.034.468.184.125.442.409.676.877.768.35.067.685.092 1.027.034a.65.65 0 0 0 .384-.226c.1-.1.134-.217.092-.35-.042-.126-.15-.143-.267-.151-.109-.008-.226 0-.284-.125.016-.042.042-.084.083-.092.301-.034.585-.184.894-.092.017 0 .042 0 .058.008.543.217 1.094.443 1.637.66z"/><path fill="#F9C01F" d="M60.348 33.157c-.133.385-.35.702-.701.927-.276.184-.568.334-.894.401.05-.593.242-1.16.368-1.737.183-.852.392-1.704.584-2.555.075-.31-.033-.527-.334-.527-.727 0-1.261-.334-1.729-.843.084-.159.167-.084.26 0a1.3 1.3 0 0 0 .65.3c.82.31 1.63.619 2.448.92.133.05.233.1.217.258-.276.91-.543 1.82-.819 2.723-.016.05-.033.092-.05.142z"/><path fill="#F4FD92" d="M80.575 45.726c-.134.175-.293.217-.443.042-.643-.735-1.478-1.228-2.23-1.837-.092-.076-.192-.134-.284-.21-.325-.283-.685-.492-1.144-.408-.042 0-.092-.026-.142-.042.067-.109.175-.092.276-.1.1 0 .208 0 .309-.009.25-.042.317-.192.158-.392-.234-.31-.584-.36-.927-.41-.309-.041-.593.034-.793.293a.24.24 0 0 1-.142.108c-.1-.058-.217-.05-.326-.05-.643 0-1.286-.008-1.937-.008-.184 0-.36-.017-.502-.15-.116-.234-.091-.318.15-.451 1.204-.385 2.415-.493 3.634-.142 1.002.283 1.862.818 2.622 1.52a8.3 8.3 0 0 1 1.729 2.255z"/><path fill="#FBF278" d="M67.228 34.377c.025.2-.05.384-.084.576-.042.226.034.284.25.217.218-.067.427-.167.594-.334.392-.409.735-.843.826-1.42.042.435-.116.836-.225 1.245a84 84 0 0 1-1.052 3.775c-.117.376-.293.701-.476 1.027-.05.084-.092.184-.193.234-.191.092-.292.217-.308.45-.026.293-.284.193-.46.218-.092-.05-.1-.134-.083-.217.384-1.88.776-3.75 1.16-5.63.009-.05.034-.091.05-.141"/><path fill="#C6A222" d="M72.59 42.093c-.159.117-.125.293-.15.451-.2.51-.293 1.044-.426 1.57-.41 1.654-.81 3.316-1.22 4.97-.05 1.027-.4 1.996-.584 2.998-.017.108-.059.217-.167.267-.042.125-.059.267-.159.36-.384-.602-.3-1.22-.134-1.872.685-2.639 1.287-5.303 1.921-7.95.159-.668.21-.71.91-.802z"/><path fill="#FBFCA7" d="M55.388 28.873c-.393.518-.493 1.144-.635 1.754q-.564 2.478-1.128 4.969c-.025.109-.025.217-.041.326-.017.117-.042.259-.2.234-.16-.017-.076-.16-.093-.251 0-.025 0-.05-.008-.075.075-.735.175-1.47.217-2.205.092-1.537.343-3.057.551-4.577.009-.075 0-.15.009-.225.1-.343.183-.693.4-.986.201 0 .351.167.552.176.016.025.05.058.041.092-.033.317.1.568.326.776z"/><path fill="#CC7E12" d="M54.87 43.722c-.134.719.083 1.42.175 2.122.2 1.511.534 3.006.818 4.51.092.492 0 1.002-.042 1.494.042.426-.267.61-.55.81-.402-.1-.81-.192-1.212-.292-.075-.017-.167-.008-.184-.1-.016-.1.067-.15.142-.192.318-.184.602-.41.86-.668.268-.267.326-.568.276-.927-.234-1.704-.61-3.4-.492-5.136.066-.953.158-1.913.233-2.865.075-.977.226-1.938.234-2.915 0-.234-.058-.45-.058-.685.133.268.158.552.133.844l-.325 3.574c-.017.142 0 .293-.009.435z"/><path fill="#C18714" d="M45.181 47.255c-.058-.785-.066-1.578-.167-2.355.21.05.176.242.2.384.076.35.076.71.084 1.06.017.435.176.82.326 1.22.15.418.35.827.418 1.278.016.117.041.234 0 .35l-.426 1.896c0 .059.033.117 0 .176-.159.325-.284.676-.56.935-.476-.342-.952-.693-1.436-1.035-.067-.05-.142-.092-.16-.184a39 39 0 0 1 1.897-2.464c.167-.2.242-.41.05-.643-.284-.125-.242-.376-.242-.61z"/><path fill="#E58005" d="M45.064 52.2c.126-.402.393-.727.551-1.112.076.1.193.084.301.092 1.286.067 2.447-.284 3.474-1.077.142-.109.293-.142.451-.067.15.075.126.226.126.36 0 .124 0 .25-.009.383-.167-.058-.242.1-.342.167-.827.585-1.712 1.044-2.698 1.303a3.36 3.36 0 0 1-1.862-.05z"/><path fill="#FBFCA7" d="M46.767 38.169c.2.2-.05.334-.076.501a1.3 1.3 0 0 1-.4.05q-1.153 0-2.305.1c-.293.025-.51.159-.719.343-.267.234-.476.192-.601-.142-.058-.159-.159-.3-.167-.476-.05-.31.25-.543.56-.56 1.244-.092 2.488-.209 3.708.184"/><path fill="#F4FD92" d="M78.947 52.358c.017.175-.108.234-.234.292-.242.242-.55.184-.835.175-.183 0-.367-.058-.543-.133a.55.55 0 0 0-.576.058c-.125.084-.267.15-.409.21-.092.04-.192.083-.284 0-.184-.126-.426-.176-.576-.36.46-.226.843-.551 1.136-.977.2-.292.392-.343.726-.226a4.8 4.8 0 0 1 1.604.96z"/><path fill="#E57F05" d="M55.277 52.658c.025-.15.15-.217.242-.309.142-.142.285-.284.31-.493.016.167.091.092.158.034.25-.234.468-.493.602-.81 0-.017.016-.034.025-.042.092-.15.117-.41.367-.343.234.059.292.276.292.502-.242-.084-.3-.05-.292.192.008.375.042.743.05 1.11 0 .268-.092.368-.367.368q-.704 0-1.37-.2z"/><path fill="#6F8E95" d="M66.828 33.007c.017-.3.084-.593.2-.868-.025.3-.091.584-.2.868"/><path fill="#E88A0A" d="M73.517 33.25c0-.201 0-.402.009-.602.083.2.083.4-.009.601"/><path fill="#772C02" d="M34.14 49.794c.05.309.033.56-.184.676-.268.084-.568-.175-.81-.342-.568-.426-1.086-.936-1.354-1.604-.317-.76-.467-1.578-.65-2.372-.043-.192-.243-.701-.06-.785.134-.041.485.351.577.543.175.334.3.677.359 1.06.033.235.3.393.418.594.476.785 1.386.76 1.703 2.23"/><path fill="#FDED39" d="M29.08 42.812a2 2 0 0 1-.108.2.3.3 0 0 1-.1-.075c-.05-.05-.059-.167-.159-.125-.075.033-.075.125-.092.2-.092.485-.067.97 0 1.445.067.41.025.827.084 1.245.025.158.025.317.092.467.133.301.158.618.175.944.025.601.083 1.203.092 1.804 0 .117.017.242-.059.35-.108.118-.233.076-.35.026-.96-.376-1.93-.76-2.89-1.153a.9.9 0 0 1-.309-.225c-.2-.434-.259-.91-.376-1.37a89 89 0 0 1-1.227-5.921c-.026-.167-.05-.343.05-.493.3-.2.66-.2.993-.284.727-.175 1.462-.326 2.189-.5.116-.026.233-.06.35-.076.31-.042.61-.125.769-.434.033.56.233 1.077.384 1.603.025.075 0 .226.133.209.1-.008.117-.134.126-.226 0-.025.025-.041.033-.066.2.016.35-.084.493-.21.317-.283.618-.584.952-.834.1-.076.2-.15.317-.2a2.56 2.56 0 0 0 1.42-.493.6.6 0 0 1 .493-.009c.568.217 1.077.526 1.47 1.002a.3.3 0 0 0 .083.059c.159.317.318.643.351 1.002.042.66.033 1.328 0 1.988v.058c-.042.067-.025.15-.025.226 0 .292-.067.384-.35.425-.644.1-1.287.243-1.93.343-.41.067-.585-.05-.677-.451a4.7 4.7 0 0 0-.4-1.153c-.25-.492-.644-.634-1.145-.409-.334.15-.592.393-.718.752-.041.133-.1.25-.159.376z"/><path fill="#AE7A63" d="M34.49 45.1c.159-.041.217-.15.26-.3a9.6 9.6 0 0 0 .4-3.19c-.017-.435-.084-.86-.05-1.295.167 0 .142.134.15.234.025.15-.017.3.034.468a.9.9 0 0 0 .359-.226c.518-.442 1.144-.576 1.795-.61.543-.033 1.086 0 1.62.1.26.06.527.1.76.251.026 0 .05.017.067.025.109.092.234.15.368.192.15.084.3.192.426.31.092.133.2.25.35.317a.9.9 0 0 1 .284.309c.026.083.11.167.026.259-.084.083-.193.058-.293.033-.526-.142-1.052-.267-1.595-.317-.626-.067-1.244-.05-1.829.2-.977.418-1.453 1.211-1.587 2.23-.158 1.203.126 2.33.577 3.424a.6.6 0 0 1 .033.401c-.109.184-.242.075-.367.025-.243-.125-.393-.342-.56-.534-.334-.401-.652-.819-.844-1.312-.192-.3-.192-.676-.375-.985z"/><path fill="#E88B0A" d="M23.96 40.164c-.009.652.167 1.278.284 1.904a92 92 0 0 0 1.302 5.838c.268.326.234.752.351 1.128.05.158.075.325.1.492.21.852.384 1.704.585 2.556.042.159.142.217.3.209.318-.008.635-.034.961-.017a8.7 8.7 0 0 1 1.754.276c.184.05.326.05.45-.109.101.343.084.334-.216.434-1.103.351-2.238.376-3.383.334-.56-.016-.634-.1-.751-.65-.635-3.141-1.278-6.273-1.913-9.413-.192-.935-.376-1.863-.568-2.798-.042-.209.009-.334.209-.426.142-.067.292-.075.434-.125.126.092.15.217.1.359z"/><path fill="#FDFCF9" d="m40.621 41.117-.409-.31c-.117-.074-.242-.125-.359-.191-.167-.059-.159-.176-.1-.301.092-.209.209-.41.292-.618.033-.084.1-.184-.025-.242-.1-.042-.15.05-.2.117-.109.15-.15.317-.2.492-.11.326-.143.351-.493.293-.76-.142-1.52-.2-2.289-.034-.167.034-.276-.033-.334-.192-.075-.183-.15-.359-.3-.5-.126-.11-.26-.176-.418-.101-.167.075-.159.225-.125.376a.4.4 0 0 1 0 .2c-.017.142-.084.26-.234.3-.142.043-.217-.057-.293-.158a.9.9 0 0 1-.167-.476c-.016-.209.167-.25.293-.342.651-.418 1.378-.602 2.138-.668.075 0 .158.016.217-.042.45 0 .902-.033 1.353.017 1.328.158 2.447.718 3.349 1.703.075.142.225.218.3.36.034.041.076.075.109.116.084.134-.017.21-.1.276-.3.225-.593.45-.894.668-.117.075-.234.109-.334-.025a.7.7 0 0 1-.15-.159l-.26-.259c-.124-.091-.216-.225-.35-.309z"/><path fill="#AC6537" d="M33.981 49.594c-.309-.46-.601-.92-.969-1.328-.534-.635-.66-1.37-.526-2.172a1.5 1.5 0 0 0-.008-.584c-.017-.084-.042-.167.075-.21.075.093.084.218.15.318.134.35.167.735.284 1.086a8.5 8.5 0 0 0 1.72 2.514c1.128 1.119 2.456 1.87 4.051 2.104.752.109 1.495.05 2.23-.117.844-.192 1.462-.735 2.013-1.361.259-.292.434-.651.726-.919.418-.359.719-.801.86-1.336.017-.067.009-.133.067-.184.092.092.176.192.343.134.142-.05.192-.15.192-.284.017.225.159.41.242.61-.159.016-.217.15-.3.25-.552.635-.978 1.37-1.537 1.996-1.194 1.328-2.681 1.955-4.477 1.804-1.119-.092-2.171-.434-3.165-.918-.718-.351-1.395-.81-1.954-1.404z"/><path fill="#EEA517" d="M30.048 52.45c-.016.342-.008.334-.325.25a10 10 0 0 0-1.846-.309c-.376-.024-.743.017-1.11.017-.16 0-.235-.067-.268-.209-.192-.885-.393-1.77-.585-2.655.092-.059.184-.025.268.008.952.36 1.887.752 2.84 1.11.066.026.116.068.175.101.108.084.125.217.158.334.017.075.034.15.067.217.05.1.092.234.234.234.133 0 .117-.142.159-.226a.15.15 0 0 1 .083-.091l.15 1.21zm-.968-9.638c-.074-.727.71-1.395 1.429-1.328.3.025.5.2.634.459a4.9 4.9 0 0 1 .485 1.361c.05.276.167.36.443.318.684-.117 1.37-.243 2.054-.36.217-.033.35-.108.317-.359a.24.24 0 0 1 .05-.192c.017.552-.192 1.061-.267 1.604-.016.133-.125.175-.242.184-.902.1-1.804.208-2.706.309-.3.033-.376-.05-.4-.385a8 8 0 0 0-.36-1.712c-.15-.467-.468-.576-.877-.3-.192.133-.367.267-.551.409z"/><path fill="#FBF277" d="M29.898 51.239c-.017.175.042.418-.217.443-.234.025-.318-.192-.384-.368-.059-.158-.084-.325-.117-.484-.21-.267-.159-.593-.2-.894-.034-.209-.134-.426 0-.635.016-.843-.101-1.678-.11-2.513 0-.1-.016-.21-.058-.301-.242-.476-.217-.986-.234-1.495-.016-.451-.125-.894-.108-1.345.008-.267.042-.526.083-.785.017-.1 0-.242.167-.25.15 0 .2.108.234.234.017.058.025.117.034.175.091.844.175 1.687.275 2.539l.526 4.56c.042.376.034.76.126 1.127z"/><path fill="#FBFCA7" d="M34.14 39.663c-.126.084-.151-.05-.21-.1-.442-.376-.901-.718-1.461-.894a.46.46 0 0 0-.317.009c-.042-.042-.034-.092-.034-.142 0-.167-.092-.25-.242-.267-.484-.067-.877.108-1.228.442-.183.176-.033.318.017.476-.468.368-.91.769-1.345 1.17-.142.125-.267.175-.409 0 .292-1.587 1.361-2.448 2.848-2.715.718-.125 1.261.226 1.712.743.318.376.535.802.677 1.27zm-10.179.502a.8.8 0 0 1-.1-.36c.776-.442 1.587-.793 2.464-.993a8.4 8.4 0 0 1 1.586-.2c.167 0 .284.041.31.225.041.292-.093.4-.377.46-1.302.275-2.58.609-3.891.868z"/><path fill="#C0BFA2" d="M32.896 46.745c-.142-.367-.175-.76-.292-1.127-.067-.292-.042-.326.234-.334.075 0 .15.017.217-.025.167-.067.342.017.51-.05.308 0 .617-.034.918-.109.134 0 .217.042.217.2 0 .276.134.518.242.76-.51.176-1.027.343-1.545.51-.167.058-.325.142-.51.159z"/><path fill="#F5E2BE" d="M35.25 39.438c-.284.284-.326.476-.125.76.066.1.158.192.292.142.125-.05.142-.159.134-.276 0-.058-.017-.117-.025-.175-.034-.175-.05-.334.141-.443a.44.44 0 0 1 .518.042c.2.159.326.368.393.61.042.15.108.209.284.175.76-.125 1.511-.125 2.263.075q-.028.04-.067.017c-.751-.117-1.503-.15-2.255-.025-.542.092-.943.434-1.378.735-.033.025-.066.058-.1.083-.042.034-.075.11-.142.076-.058-.034-.033-.109-.033-.167-.025-.25.025-.51-.067-.752-.042-.109-.1-.217-.134-.326-.1-.317-.041-.426.284-.55z"/><path fill="#EEA517" d="M34.49 42.653v-1.987c.109.526.042 1.06.05 1.586 0 .134.025.276-.05.401"/><path fill="#AE7A63" d="M33.055 45.259c-.05.05-.126.058-.192.05-.234-.025-.293.1-.268.3-.083-.091-.108-.192-.058-.308.167-.059.342-.05.518-.042m.517-.05c-.168.075-.335.05-.51.05.167-.084.334-.059.51-.05"/><path fill="#A8E118" d="M30.498 8.203c.083.593.175 1.186.208 1.787 0 .084-.016.168.042.243 0 .217-.167.25-.309.267-1.311.175-2.572.626-3.875.827-.651.1-1.303.225-1.937.417a6.4 6.4 0 0 0-1.094.476c-.268.142-.385.393-.502.643-.083.059-.158.017-.233-.016a1.4 1.4 0 0 0-.26-.1c-.333-.11-.392-.067-.467.275-.034.15-.042.31-.2.384-.126.05-.251.034-.376.034h-4.928c-.367 0-.726-.075-1.094-.05-.4.025-.793.066-1.194.05-.434-.017-.443 0-.526-.435l-.025-.125a1.3 1.3 0 0 0-.2-.518c-.21-.3-.494-.309-.744-.033-.226.259-.342.56-.4.885-.135.334-.427.401-.736.443-.125.017-.234-.025-.292-.15a.35.35 0 0 1 0-.226.76.76 0 0 0-.042-.543c-.259-.635-.618-1.202-1.228-1.578a1.94 1.94 0 0 0-1.094-.284c-.3 0-.61.016-.885-.15-.384-.585-.718-1.203-1.077-1.805-.167-.284-.3-.593-.618-.751a.12.12 0 0 1-.059-.15c.226-.226.468-.426.76-.577.242.284.518.176.794.084.275-.092.543-.242.851-.176.2.067.41-.008.61 0a76 76 0 0 1 3.383.15c.384.026.76.034 1.144.05.785.034 1.578.076 2.363.126q2.306.165 4.61.142c1.103-.017 2.205-.1 3.308-.192.818-.067 1.636-.167 2.455-.267.752-.092 1.495-.226 2.238-.334a.55.55 0 0 1 .326.025c.142.083.209.242.284.375q.122.251.284.477c.183.267.442.342.743.275z"/><path fill="#51C101" d="M26.316 23.512c.167.56.342 1.119.509 1.678.092.226-.025.334-.209.41-.685.283-1.353.592-2.03.901q-1.853.854-3.707 1.696c-.702.317-.986.192-1.203-.543a33.5 33.5 0 0 1-1.077-5.203c-.059-.468-.176-.936-.234-1.403-.1-.643-.209-1.286-.3-1.93-.05-.325-.118-.65-.143-.976 0-.092-.008-.184.059-.268.3-.15.634-.1.943-.125 1.02-.092 2.055-.05 3.074-.067.342 0 .676.067 1.019.059.075 0 .15.033.217.066.125.076.175.2.217.335.117.342.226.693.334 1.035.025.234.125.434.2.651.2.568.401 1.136.585 1.713.159.492.434.901.793 1.252.284.284.593.526.953.719"/><path fill="#BCEA14" d="M32.394 16.922c-.108.375-.108.768-.125 1.16-.059 1.07.05 2.122.175 3.183.05.2-.025.342-.209.392-.2.058-.3-.084-.359-.242-.209-.526-.317-1.07-.4-1.629-.084-.568-.06-1.136-.042-1.703 0-.326.058-.301-.293-.41a11.5 11.5 0 0 1-3.374-1.703c-.117-.084-.2-.21-.342-.26-.175-.133-.293-.283-.234-.525.05-.026.092-.05.142-.084.276.292.61.134.91.109 1.211-.117 2.364-.476 3.475-.97.025-.008.05-.008.075-.016l.15 1.186c0 .059-.017.15.075.167.067.008.092-.058.134-.108l1.052-1.303c.434-.218.902-.334 1.353-.493.15-.05.292-.084.451-.05a.2.2 0 0 1 .117.042c.526.334 1.086.375 1.679.208.167 0 .284.075.384.2.242.285.434.602.593.944.058.134.133.243.292.285-.05.701-.083 1.403-.242 2.087-.092.385-.226.744-.317 1.12-.042.183-.15.284-.351.308a8 8 0 0 1-1.729.017c-.41-.033-.534-.209-.534-.634 0-.602.091-1.203.133-1.804q.002-.138.017-.276c.042-.501-.209-.652-.71-.601-.585.05-1.052.359-1.412.818-.158.209-.35.393-.534.576z"/><path fill="#209401" d="M18.449 21.056c.158.551.217 1.11.3 1.679q.238 1.73.652 3.424c.133.56.292 1.119.442 1.67.1.376.276.485.66.384.501-.133.952-.4 1.428-.61 1.57-.7 3.107-1.46 4.702-2.104.142-.058.234-.133.209-.3.117.208.184.442.242.668.084.325-.125.676-.468.851-1.236.627-2.488 1.22-3.75 1.796-1.378.626-2.772 1.211-4.159 1.804-.384.167-.768.092-.826-.434-.034-.351-.067-.71-.076-1.07-.016-1.377-.158-2.739-.35-4.1-.167-1.228-.31-2.455-.476-3.683-.067-.476-.109-.96-.226-1.428-.025-.092-.017-.184-.017-.276.026-.008.059-.008.067.009.384.576.977.935 1.437 1.42.092.091.167.183.225.3z"/><path fill="#37A603" d="M18.448 21.056c-.56-.418-1.01-.952-1.562-1.378-.125-.1-.092-.25-.175-.36l-.426-3.048c-.042-.275-.117-.317-.376-.208-1.604.71-3.199 1.411-4.802 2.12-.243.11-.485.21-.727.31-.326.133-.501.083-.685-.226-.384-.634-.618-1.344-.893-2.029-.66-1.62-1.22-3.282-1.738-4.952a1.5 1.5 0 0 1 1.07-.451c.15.066.217.208.3.334.493.818.81 1.712 1.094 2.614.017.058.042.108.059.167.309.935.651 1.862.985 2.79.067.191.184.216.36.141.5-.225 1.001-.468 1.51-.685a41 41 0 0 1 3.1-1.186 4.3 4.3 0 0 1 1.528-.242c.367.008.517.125.593.468.158.793.259 1.595.392 2.388.017.092.025.184-.067.26.15.951.301 1.903.443 2.864.017.1.008.2.008.309z"/><path fill="#B55713" d="M2.355 36.832c-.25-.55-.367-1.144-.526-1.72-.484-1.779-.793-3.6-1.194-5.404-.009-.041-.15-1.102-.159-1.144.342-.476.827.059 1.17-.417.233-.15.484-.167.75-.084.101.142-.024.209-.1.3-.058.068-.158.143-.116.235.05.1.167.067.25.058.593-.067 1.195-.108 1.788-.159.117-.008.242-.025.317.1.042.134-.033.226-.109.326-.259.36-.542.702-.801 1.053-.042.05-.109.108-.092.175.033.092.133.05.2.05 1.62 0 3.199-.259 4.744-.735a95 95 0 0 0 2.188-.693 1.6 1.6 0 0 1 .4-.092c.084 0 .16.017.193.1.033.084-.008.15-.067.2A.7.7 0 0 1 11 29.1a20 20 0 0 1-5.62 1.612c-.752.1-1.504.125-2.255.2-.477.05-.702.35-.635.819.15 1.068.484 2.08.935 3.065.167.375.41.701.635 1.044.017.125-.084.15-.175.183-.493.192-.794.535-.894 1.053a.4.4 0 0 1-.034.125c-.033.108-.066.217-.2.234-.15.016-.175-.117-.217-.21-.059-.133-.125-.258-.184-.392"/><path fill="#772C02" d="M47.112 24.781c.192-.05.284-.234.426-.35.092-.076.184-.168.284-.067.125.117-.017.192-.084.275-.668.794-1.47 1.428-2.363 1.954-.059.034-.167.059-.126.16.042.108.134.04.201.008a4.9 4.9 0 0 0 1.228-.76c.476-.41.927-.844 1.336-1.328.1-.117.209-.126.342-.05.092.05.176.108.276.133.317.092.51 0 .643-.284a2.97 2.97 0 0 0 .292-1.779c-.075-.534.067-1.044.217-1.553a6 6 0 0 0 .284-1.654v-.1c.025-.083.009-.217.134-.217.134 0 .1.125.117.217 0 .042.033.075.05.117.2.209.259.743.1.977-.133.259-.117.543-.133.819-.05.91-.293 1.77-.577 2.63-.058.176-.033.376-.167.527-.142 0-.167.133-.217.217-.576.885-1.286 1.645-2.18 2.221-.041.025-.083.059-.125.084-.075.041-.167.066-.234 0-.075-.084.017-.134.059-.192.125-.176.25-.343.376-.518.041-.059.108-.134.033-.2-.05-.05-.109-.034-.167 0a2.4 2.4 0 0 0-.468.35c-.743.677-1.653.96-2.614 1.128-.71.117-1.428.217-2.146.2-1.57-.042-3.015-.46-4.268-1.445-.66-.518-1.119-1.202-1.553-1.904-.276-.443-.36-.768-.618-1.22-.017-.024-.034-.058-.067-.1a.61.61 0 0 1-.084-.534c.21-.701.226-1.428.268-2.171.284 0 .56-.017.843-.026.1.017.084.092.084.16 0 .575-.1 1.143-.326 1.678-.184.442-.108.852.075 1.27.176.392.468.7.71 1.043.267.518.568 1.01.986 1.42.776.76 1.72 1.17 2.797 1.278 1.98.2 3.717-.434 5.295-1.579.1-.075.192-.167.293-.25.167-.134.3-.31.467-.451.075-.067.15-.167.276-.125z"/><path fill="#F4FD93" d="M17.63 3.284a93 93 0 0 1 3.407-.952q2.706-.699 5.437-1.26a20 20 0 0 1 3.082-.377c.167 0 .284.025.3.217.084 1.111.16 2.222.243 3.333.025.259 0 .3-.243.275a7 7 0 0 1-.818-.158c-.184-.042-.25-.192-.309-.343-.058-.317-.109-.634-.084-.96.034-.125.15-.184.226-.267.292-.293.25-.61-.109-.81-.317-.184-.676-.243-1.027-.268-.376-.025-.76-.05-1.144.042a1.2 1.2 0 0 0-.443.192c-.25.192-.275.267-.192.568.017.05.017.1-.017.142-.308.192-.634.134-.96.067-.51-.376-1.052-.46-1.653-.26-.343.118-.61.293-.652.694a.24.24 0 0 1-.075.159c-.025.025-.05.05-.084.058-.61.184-1.219.368-1.854.451-.618-.083-1.236-.15-1.854-.234l-.902-.125c-.108-.017-.267-.017-.284-.192z"/><path fill="#7DD310" d="M27.435 15.653c.125 0 .217.1.309.167 1.102.827 2.313 1.453 3.658 1.812.15.042.184.117.167.26-.125 1.168-.017 2.304.376 3.415.042.125.05.309.217.3.175-.008.267-.158.284-.334.017.05.033.092.042.142.025.635.041 1.27.066 1.896.05.15 0 .293-.142.326-.15.042-.217-.109-.258-.226-.184-.509-.385-1.018-.552-1.536-.108-.343-.292-.551-.643-.677-.618-.217-1.21-.484-1.82-.726a2 2 0 0 1-.36-.192c-.141-.15-.158-.351-.2-.535-.058-.242-.108-.476-.192-.71-.134-.476-.3-.952-.45-1.428-.168-.534-.352-1.06-.51-1.595-.034-.117-.1-.242.008-.36"/><path fill="#EEF974" d="M17.629 3.284c.375.15.776.134 1.169.2.635.11 1.27.176 1.904.268-.034.175-.192.175-.31.217-1.244.367-2.496.735-3.74 1.094-2.448.71-4.903 1.411-7.317 2.238-.208.075-.417.134-.643.117-.367.109-.735.226-1.11.334-.326.092-.385.059-.485-.275a41 41 0 0 1 3.441-1.704 44 44 0 0 1 4.56-1.737c.818-.26 1.637-.501 2.455-.752.025 0 .05 0 .075.009z"/><path fill="#51C101" d="m28.82 20.237 2.505 1.003c.142.058.209.167.25.3.218.602.435 1.194.652 1.796.034.1.042.259.175.242.126-.017.126-.159.142-.267.05.359.042.71.05 1.069.05.275.017.56.026.835 0 .134-.076.2-.2.225-.034 0-.068.009-.101.009-.768-.017-1.528.092-2.288.058-.351-.017-.493-.125-.552-.476a826 826 0 0 0-.743-4.443c-.025-.125-.042-.25.075-.35z"/><path fill="#734918" d="M29.33 27.028c.343.116.401.409.451.71.025.175 0 .66.059.734-.092.126-.243.117-.376.142-1.604.25-3.157.643-4.685 1.211-.468.176-.927.384-1.429.476-.2.034-.4.025-.6.076-.243.058-.368-.05-.318-.301a.74.74 0 0 0-.059-.535c.769-.334 1.545-.668 2.314-.994.133-.058.325-.116.643-.258.693-.443.944-.685 1.553-.944.184-.075.343-.184.493-.317.326-.293.468-.627.317-1.07-.125-.359-.192-.743-.284-1.11a2 2 0 0 1-.033-.226c0-.1.067-.15.159-.167.1-.016.142.05.15.134.033.184.067.367.092.551.067.418.15.835.267 1.244.167.593.476.777 1.086.669.058-.009.117 0 .175-.009z"/><path fill="#37A603" d="M28.82 20.238c.042.601.192 1.186.284 1.779.15.977.326 1.954.484 2.94.067.4.092.425.493.442.76.025 1.512-.084 2.272-.05.183 0 .259-.075.25-.259-.008-.234 0-.476 0-.718.092.409.067.826.034 1.236-.017.183-.192.275-.368.3a65 65 0 0 1-1.787.251c-.418.05-.843.084-1.261.134-.343.041-.543-.084-.593-.426-.159-1.003-.309-2.013-.46-3.015-.2-1.303-.392-2.598-.592-3.9a20 20 0 0 0-.117-.702c.284.067.45.309.693.451.133.075.259.167.326.317.158.234.158.51.225.769.042.15.084.309.125.459z"/><path fill="#925D1D" d="M22.38 29.533c.335.05.201.309.184.476-.041.317-.066.317.268.259.175-.034.35-.042.526-.067 0 .167-.142.175-.242.209-.685.275-1.387.517-2.08.776-.2.076-.393.16-.56.293a1.4 1.4 0 0 1-.3.183 112 112 0 0 0-3.124 1.612c-.1.059-.2.126-.334.1-.1-.058-.142-.15-.133-.267.041-.125.158-.167.259-.234.133-.083.284-.158.417-.233.226-.134.226-.2 0-.326-.184-.1-.309-.217-.35-.434-.042-.21-.15-.243-.335-.134-.259.15-.5.317-.743.493-.092.067-.192.15-.326.117-.117-.067-.183-.167-.15-.318.05-.117.15-.183.25-.25.201-.134.385-.284.594-.393.308-.167.384-.417.342-.743-.1-.76-.159-1.52-.025-2.28.017-.084 0-.167 0-.259 0-.735.033-1.478.117-2.213.025-.184-.042-.376.033-.551.025-.025.05-.034.084-.017.008.033.025.067.025.1 0 1.22.25 2.414.225 3.633-.008.501.1.994.351 1.445.36.643.852.835 1.537.543.61-.26 1.202-.56 1.804-.827.55-.242 1.11-.468 1.67-.702z"/><path fill="#FDF8E7" d="M38.742 15.753c.017-.159.117-.267.234-.367.518-.426 1.027-.87 1.662-1.12.108-.041.225-.075.334-.108.209-.084.342 0 .426.192.133.326.292.651.409.985.058.15.075.301-.05.426a.36.36 0 0 1-.184.134 5.35 5.35 0 0 0-1.82 1.37c-.31.442-.602.893-.902 1.344-.059.084-.109.176-.176.25a6.1 6.1 0 0 0-.802 1.988c-.083.192-.242.293-.45.326-.184.025-.36.075-.485.234a.3.3 0 0 1-.276.117c-.125-.009-.225-.059-.217-.217.017-.267.009-.543.042-.81.017-.134.075-.184.192-.218l.017-.016c.86-.1 1.21-.718 1.47-1.437.35-.994.518-2.02.568-3.073z"/><path fill="#51C101" d="M22.999 12.888c-.034-.317.142-.526.392-.693.66-.426 1.403-.643 2.172-.785 1.436-.267 2.873-.535 4.276-.944.133-.042.267-.025.409-.025.192 0 .376-.033.51-.192.158.443-.034.827-.502.994-.359.125-.727.234-1.094.342-1.837.585-3.666 1.178-5.504 1.762-.091.034-.208.05-.208.184-.234-.1-.31-.334-.46-.51-.016-.05-.025-.1.017-.141z"/><path fill="#782C02" d="M16.56 24.555a.3.3 0 0 1-.1.51c-.652.225-2.213.426-2.556.476-1.829.309-3.641.71-5.453 1.119-2.147.501-4.26 1.086-6.39 1.637-.333.075-1.47.4-1.853.209-.384-.192-.134-.192-.05-.284.083-.092.192-.159.342-.234a4.7 4.7 0 0 1 .777-.284c1.027-.267 2.063-.543 3.106-.785a89 89 0 0 0 3.842-.96c1.362-.41 2.731-.81 4.143-1.011.51-.075.985-.209 1.486-.267.401-.059 2.355-.385 2.69-.15.008 0 .016.016.024.016z"/><path fill="#45B001" d="M32.395 16.922c.434-.768.985-1.378 1.92-1.512.176-.025.343 0 .502.042.233.075.359.25.342.51-.042.593-.092 1.186-.134 1.779-.016.2-.033.409-.033.61 0 .208.1.333.309.367.66.083 1.32.066 1.98-.017.125-.017.158-.109.216-.184-.033.242-.091.485-.225.693-.209.326-.543.351-.877.36-.668.008-1.345 0-2.013 0-.217 0-.3-.092-.309-.31-.025-.81-.067-1.611-.1-2.413-.017-.434-.259-.602-.66-.41-.317.151-.618.326-.927.485z"/><path fill="#BCEA14" d="M22.998 12.888c.017.034.025.067.042.1.034.243 0 .493 0 .735.025 1.261.326 2.464.819 3.625.3.71.726 1.345 1.16 1.971.017.025.042.05.076.058.15.518.309 1.036.45 1.554.034.108.042.225.1.334.05.117.034.184-.116.142a.34.34 0 0 1-.142-.1 11.4 11.4 0 0 1-1.412-1.57c-.117-.16-.183-.343-.267-.518-.15-.443-.309-.886-.46-1.328-.15-.15-.2-.35-.258-.543-.35-1.22-.718-2.439-1.07-3.666-.033-.117-.083-.226 0-.343.01-.067.01-.133.026-.2.125-.61.418-.718.944-.334l.1.075z"/><path fill="#FDDEC7" d="M36.679 20.288c-.109.067-.15.159-.16.292 0 .2-.05.401-.04.602 0 .1-.018.208.108.258.117.042.225 0 .267-.091.125-.234.342-.26.56-.285.192-.024.317-.1.384-.267.1.067.108.167.108.267-.017.87.217 1.68.593 2.448a.4.4 0 0 1 .05.217.21.21 0 0 1-.175.167c-.518.125-.994.367-1.453.634-.434-.442-.76-.952-.927-1.553-.042-.142-.067-.284-.017-.426.125-.4.276-.802.393-1.21.091-.327.05-.669.075-1.011a.35.35 0 0 1 .225-.059z"/><path fill="#EEF974" d="M28.82 4.002c.05.184.166.267.358.284.234.025.468.067.693.134.176.05.234-.009.234-.176q.163 1.28.25 2.572c.034.468.101.928.143 1.387-.293.192-.443.175-.693-.067-.276-.276-.418-.635-.577-.977-.284-.46-.367-.977-.409-1.503-.033-.41-.058-.827-.092-1.236-.017-.15-.05-.31.092-.426z"/><path fill="#EEF973" d="M25.104 19.386c-.134.125-.159-.042-.192-.084a8 8 0 0 1-.97-1.52 10.2 10.2 0 0 1-.985-3.557c-.033-.41-.1-.827.084-1.228.15.167.317.326.4.543.544 1.896 1.078 3.783 1.62 5.679.018.058.026.117.043.175z"/><path fill="#F4FD92" d="M38.065 15.302c-.142.167-.209.125-.284-.067a4.2 4.2 0 0 0-.693-1.144c-.067-.075-.133-.15-.25-.15.125-.293.108-.326-.176-.51q-.223-.152-.484-.217c-.343-.083-.66-.033-.91.234a4 4 0 0 1-.26.242c-.242-.025-.459.1-.676.167-.3.092-.593.2-.885.293-.075.025-.159.075-.242.016.459-.56.935-1.094 1.62-1.411s1.378-.317 2.08-.067c.292.109.492.334.634.601.334.627.484 1.295.535 1.997z"/><path fill="#EEF973" d="M31.794 14.233c-.017.125-.109.15-.2.192-1.053.434-2.13.768-3.266.885l-.677.075q-.298.025-.308-.275c1.302-.535 2.605-1.07 3.908-1.596.217-.091.451.092.501.401.017.109.05.21.059.318z"/><path fill="#95DA1B" d="M23.71 19.219c.526.743 1.102 1.436 1.778 2.054.042.034.109.209.167 0 .167.343.217.718.334 1.078.126.384.226.776.334 1.169-.033.108-.083.075-.15.033-.743-.484-1.394-1.044-1.67-1.937-.226-.702-.476-1.395-.71-2.097-.033-.091-.05-.192-.075-.292z"/><path fill="#51C101" d="M8.133 10.892c-.384.059-.702.284-1.06.401a23 23 0 0 1-.803-2.756c-.041-.175-.075-.35.076-.5.676.325.818 1.06 1.202 1.611.226.326.393.685.593 1.036.034.075.067.142 0 .208zm20.329 8.118c-.368-.217-.727-.443-1.02-.768a21 21 0 0 1-.66-2.406c-.091-.442-.016-.559.402-.66.083.151.167.31.25.46.142.468.284.936.435 1.403.175.56.367 1.128.543 1.687.024.084.033.184.05.276z"/><path fill="#CC7E12" d="M16.71 33.358c1.044-.577 2.138-1.078 3.174-1.679 1.052-.618 2.205-.952 3.315-1.403.05-.025.109-.05.16-.075.717-.25 1.427-.493 2.145-.744a22 22 0 0 1 2.255-.634c.585-.134 1.17-.234 1.754-.334.109-.017.217-.034.326-.025.117.208.084.434.109.66.066.425.083.851.133 1.277.034.268 0 .535.084.802a.6.6 0 0 1 0 .276c-.126.125-.276.066-.41.033a3.5 3.5 0 0 0-.885-.084c-.267 0-.526-.05-.785-.041-.843.033-1.695.033-2.539.125-.593.058-1.177.142-1.77.226-.1.016-.192.024-.334.091h3.215c.1 0 .209 0 .284.092-.017.2-.184.167-.3.167-.602.009-1.212.017-1.813 0-1.094-.025-2.171.067-3.257.15-.576.05-.819.285-.902.852-.025.192-.05.385-.109.577-.108.492-.025.985.076 1.461.041.2.075.393.041.602-.033.225.092.426.134.643-.343.142-.727.175-1.078.317-1.06.434-2.054.977-2.998 1.629-.125.083-.242.167-.375.233.96-.484 1.945-.935 2.923-1.386.325-.15.45-.083.576.267.325.91.46 1.863.593 2.815.083.618.058 1.253.217 1.87q0 .04-.025.067c-.067.059-.15.067-.242.067-.944-.017-1.88.109-2.815.167-.51.025-1.019.092-1.478.343-.1.058-.217.1-.226.25-.016.092-.083.125-.167.134-.183.016-.342.1-.517.133-.25.042-.46.134-.585.368-.092-.008-.117-.084-.142-.159a10 10 0 0 1-.309-1.361c-.125-.802-.292-1.604-.384-2.414-.15-1.328-.434-2.63-.66-3.942-.05-.3 0-.442.267-.593 1.028-.584 2.055-1.16 3.082-1.745.075-.042.15-.075.242-.059z"/><path fill="#C1630F" d="M22.64 45.15c.108.301.125.619.192.92-.41-.01-.81.033-1.211.05-.392.016-.418.058-.384.434.1 1.035.376 2.038.626 3.04l.05.167c.042.142.142.15.234.066.468-.409.902-.851 1.094-1.47.025-.075.034-.15.109-.191.1.459.2.918.309 1.378-.176-.084-.31-.009-.451.1-.284.225-.535.46-.618.843-.05.226-.192.418-.31.61-.058.092-.091.184-.024.284.133.2.242.41.384.601.15.192.225.2.426.05.326-.25.635-.526.952-.801l.3 1.177c-.125.033-.175-.058-.2-.142-.067-.192-.167-.167-.309-.067-.309.218-.618.443-.919.66-.091.067-.175.167-.317.117a.15.15 0 0 1-.042-.058c-.075-.15-.167-.026-.233 0-.844.375-1.67.801-2.498 1.219-.718.359-1.42.743-2.213.91a3.1 3.1 0 0 1-1.236.009c-.242-.05-.367-.192-.4-.435-.026-.209-.084-.417-.093-.626-.016-.292.117-.434.393-.51 1.628-.425 3.182-1.035 4.543-2.046.25-.183.51-.367.744-.576.058-.058.192-.125.1-.217-.067-.075-.15.025-.217.084-.802.66-1.662 1.236-2.614 1.678-.719.334-1.462.601-2.222.819-.084.025-.167.058-.234-.034-.1-.35-.108-.718-.159-1.077-.142-1.06-.258-2.121-.392-3.182-.125-1.036-.259-2.071-.384-3.107-.059-.493-.05-1.002-.268-1.47-.041-.125-.1-.25-.116-.392-.025-.243.083-.401.317-.443.635-.117 1.278-.192 1.913-.267.517-.059 1.035-.034 1.553-.092.534-.058 1.069.058 1.603.05.234 0 .368.167.418.443.092.5.2 1.002.292 1.495.042.2.15.3.334.325.268.042.543.034.81-.025.193-.033.226-.217.351-.309z"/><path fill="#A14905" d="M16.4 53.218c.193-.126.427-.167.644-.234 1.62-.501 3.081-1.278 4.368-2.389.1-.091.217-.2.35-.05.125.142.017.26-.092.343-.81.66-1.662 1.252-2.614 1.703-.735.351-1.495.627-2.28.852-.192.059-.367.142-.576.159-.167.017-.275.142-.25.326.033.275.083.55.125.827.025.133.125.166.234.192.66.15 1.302.041 1.92-.193.936-.359 1.796-.86 2.69-1.294.5-.242.994-.484 1.495-.718.058-.025.125-.1.183-.042.076.067.009.142-.016.209-.075.142-.2.217-.334.309a17.4 17.4 0 0 1-3.567 1.779c-.325.125-.617.317-.927.476a.14.14 0 0 0-.075.1c-.718.242-1.428.493-2.146.735-.267.092-.35.025-.4-.284-.16-.969-.31-1.946-.469-2.915-.217-1.328-.375-2.672-.55-4.009-.176-1.294-.318-2.589-.477-3.883-.142-1.152-.3-2.305-.442-3.458-.134-1.069-.243-2.138-.368-3.207q-.178-1.49-.367-2.981a.7.7 0 0 0-.142-.376c-.1-.217 0-.41.091-.601q.114-.2.251-.384c.109-.142.092-.243-.092-.293a.3.3 0 0 1-.15-.083c-.025-.159.117-.192.209-.25.768-.494 1.545-.961 2.321-1.437.142-.059.276-.2.435-.05q.073.125.158.25c.034.2-.125.26-.242.343-.66.467-1.328.918-1.988 1.378-.192.133-.242.284-.192.5.042.193.126.21.284.126.552-.292 1.103-.601 1.654-.902.4-.217.802-.434 1.21-.66.11-.058.226-.142.343-.017.05.076.117.142.1.243-.217.225-.509.334-.768.484-.835.485-1.67.944-2.505 1.412-.2.108-.268.233-.217.476.217 1.152.459 2.296.61 3.457.158 1.203.383 2.397.559 3.591.042.284.184.56.234.852.117.092.075.226.083.343.209 1.26.36 2.53.535 3.8.183 1.31.359 2.622.543 3.933.058.401.108.81.167 1.211.041.326.05.326.384.292.025 0 .05 0 .075.017z"/><path fill="#E39231" d="M14.615 43.93c-.067-.1 0-.2 0-.3-.05-.284.117-.376.359-.41.292-.041.568-.208.868-.208.067-.117.184-.134.31-.159a21 21 0 0 1 2.02-.217c.585-.042 1.17-.017 1.754-.042.526-.016 1.036-.158 1.554-.275.033 0 .067-.025.058-.084-.2 0-.4.025-.593.017-.108 0-.225 0-.292-.109-.125-.05-.15-.15-.159-.284-.117-1.286-.209-2.58-.56-3.841-.066-.226-.141-.451-.216-.677-.05-.167-.134-.2-.301-.125-.66.317-1.328.618-1.988.927-.392.184-.785.376-1.17.56-.05.025-.1.075-.2 0 .293-.218.568-.426.86-.627.76-.51 1.57-.944 2.406-1.32.4-.183.827-.3 1.253-.409a.32.32 0 0 1 .217.034l1.177 5.587c.226 1.06.443 2.13.668 3.19.034.25-.091.368-.325.418q-.499.1-.986 0c-.158-.034-.242-.125-.275-.292-.1-.543-.21-1.086-.31-1.62-.041-.235-.158-.335-.409-.343-.801-.025-1.611-.042-2.413.008-.869.05-1.737.176-2.597.318-.16.025-.21.142-.176.284.025.142.067.284.1.417-.133.126-.242.042-.359-.042-.125-.091-.158-.25-.267-.367z"/><path fill="#9D3F01" d="M12.418 33.818h.125c.36.041.418.167.2.45-.208.276-.408.56-.425.928-.15-.167-.1-.41-.209-.593-.083-.134-.142-.193-.292-.1-.744.434-1.537.768-2.314 1.118a48 48 0 0 1-3.098 1.303c-1.052.393-2.088.827-3.19 1.044-.31.059-.393.034-.51-.267-.117-.292-.275-.568-.342-.877.125.092.142.242.217.36.05.074.067.2.184.175.092-.017.1-.126.108-.21.075-.542.343-.943.844-1.177.108-.05.217-.075.325-.117.05-.158.2-.167.326-.208 1.412-.426 2.815-.844 4.226-1.27q.54-.163 1.077-.3c.443-.21.92-.226 1.395-.26.368-.025.727-.066 1.094-.075.092 0 .184-.016.26.076"/><path fill="#9E4001" d="M20.544 33.667c-.067-.31-.026-.602.066-.902.126-.384.393-.585.785-.626.485-.05.96-.067 1.445-.11 1.253-.108 2.514-.024 3.767-.058.108 0 .225.026.326-.041.083-.126.225-.109.342-.109.76 0 1.512-.008 2.272 0 .292 0 .542 0 .6-.359-.058-.66-.116-1.311-.166-1.97a6 6 0 0 0-.034-.377c.142.343.1.719.15 1.078.068.476.093.96.151 1.436.025.234-.05.468 0 .71.042.2.017.418.058.635.034.183-.024.3-.242.284-.342-.025-.693-.05-1.035-.084-.05 0-.1-.017-.15-.017a38 38 0 0 0-3.667-.041c-1.069.041-2.146.092-3.215.233-.36.05-.727.076-1.086.11-.15.016-.284.057-.35.2z"/><path fill="#E39231" d="M23.35 48.174c.058.492-.285.801-.535 1.144-.167.242-.41.434-.635.626-.2.175-.292.15-.359-.1-.192-.702-.384-1.412-.518-2.13-.075-.409-.125-.818-.192-1.227-.058-.351.025-.443.384-.46.351-.017.694-.033 1.044-.058.117 0 .226 0 .293.1.175.701.342 1.395.517 2.096z"/><path fill="#C1620F" d="M17.688 55.573c-.167-.092 0-.125.033-.159q.424-.314.91-.5a18.5 18.5 0 0 0 3.842-1.955c.034-.025.075-.034.117-.05v.058c.434.576 1.044.885 1.712 1.103.075.025.192.041.176.167-.827.1-1.654.167-2.472.325-1.262.242-2.506.568-3.75.869-.192.05-.376.092-.568.134z"/><path fill="#DD9222" d="M24.018 51.23c0 .276-.268.326-.418.485-.167.167-.368.3-.543.459-.142.125-.276.109-.4-.025-.226-.25-.36-.56-.552-.827-.05-.067 0-.125.033-.184.2-.317.343-.651.485-1.002.15-.376.526-.593.877-.785.133-.075.075.159.158.2.117.56.242 1.12.36 1.688zm.46 3.015c-.418-.158-.844-.283-1.228-.534a3.4 3.4 0 0 1-.568-.468.32.32 0 0 1-.092-.275c.418-.301.827-.61 1.245-.91.192-.143.267-.11.342.116.034.092.059.176.142.226.084.534.175 1.06.25 1.595.017.083.067.209-.091.242z"/><path fill="#01681D" d="M55.687 19.62c-.15.191-.167.433-.267.65-.209.46-.493.86-.81 1.245-.26.134-.493.31-.777.376-.526.134-.868-.042-1.01-.568-.276-1.019-.234-2.03.066-3.04.142-.484.343-.935.593-1.37.318-.359.752-.342 1.161-.317.827.05 1.128.626 1.194 1.445.034.367 0 .726 0 1.094 0 .175-.108.317-.158.476z"/><path fill="#95DA1B" d="m50.485 20.497-.1-.977c.05-.36-.218-.635-.26-.97-.016-.133-.075-.258-.05-.4.685.593 1.37 1.186 2.063 1.779.15.125.175.267.15.468a3.56 3.56 0 0 0 .376 2.07c.075.143.192.235.318.326a.33.33 0 0 1-.193-.058c-.776-.585-1.52-1.211-2.087-2.021-.017-.025-.05-.042-.075-.067l-.15-.15z"/><path fill="#37A603" d="M55.688 19.62c.058-.594.091-1.178.016-1.771-.125-1.01-.76-1.278-1.67-1.111-.192.033-.384.075-.551.175.5-.91 1.119-1.202 2.096-1.01.518.1.727.476.877.918.016.21.058.418.058.627 0 .827-.183 1.587-.827 2.171"/><path fill="#63CB05" d="M50 17.924c-.318-.359-.527-.785-.777-1.177-.16-.242-.368-.468-.426-.768.275.083.543.091.826.041.527-.1.719.109.619.635-.084.426-.201.843-.243 1.278z"/><path fill="#F4FD92" d="M55.378 21.566c.192.042.317.142.309.359-.31.376-.627.727-1.136.843-.15.034-.3.026-.451.026-.209-.2-.217-.36-.025-.552.125-.133.259-.267.384-.4.259-.26.585-.276.919-.276"/><path fill="#CEF516" d="M52.387 29.516c-.35-.384-.476-.835-.51-1.286-.083-1.077-.016-2.138.393-3.157.092-.225.159-.367.284-.492.067.267-.059 4.217-.159 4.935z"/><path fill="#FDF8E7" d="M47.11 24.78a5 5 0 0 0-.66.627c-.125-.042-.184-.134-.184-.267.159-.234.384-.401.576-.61.21-.234.21-.317-.025-.518a4.3 4.3 0 0 0-.943-.634c-.126-.067-.268-.134-.25-.318.04-.192.183-.325.291-.476.652-.918.97-1.946 1.095-3.056a3.8 3.8 0 0 0-.435-2.264c-.518-.969-1.361-1.478-2.422-1.678-.518-.1-1.035 0-1.545 0-.45-.076-.601-.251-.61-.719 0-.225-.025-.459.034-.685.067-.275.15-.359.434-.35.643.008 1.286-.059 1.921.1.059.017.117-.008.175.025.96.167 1.796.601 2.498 1.244 1.177 1.086 1.979 2.389 2.213 4 .15 1.087-.05 2.13-.476 3.141a9 9 0 0 1-.91 1.654 1.3 1.3 0 0 1-.31.325c-.175.134-.35.268-.467.46"/><path fill="#F5E2BE" d="M44.554 13.957c-.643-.067-1.278-.125-1.929-.1-.426.017-.426 0-.51.418a2.2 2.2 0 0 0-.008.734c.042.36.192.477.551.485v.05c-.3.184-.61.292-.968.2.058-.083.1-.167.058-.275-.167-.384-.317-.777-.476-1.17-.058-.133-.175-.141-.292-.141 1.169-.476 2.372-.468 3.583-.21z"/><path fill="#9FA277" d="M71.161 31.47c-.317.05-.618.201-.952.193-.059.117-.175.117-.284.117q-.314-.002-.626.008a1.5 1.5 0 0 0-.744.025.32.32 0 0 1-.267-.083c-.117-.1-.242-.2-.41-.218.076-.676.402-.935 1.07-.81.585.109 1.136.343 1.695.552.176.066.343.15.51.217z"/><path fill="#FDFCF8" d="M55.388 28.873c-.351-.034-.518-.426-.376-.869l1.67-.15c.451-.042.877.46.802.944-.56.267-1.136.376-1.737.158-.117-.041-.226-.125-.36-.091z"/><path fill="#E88A0A" d="M57.473 47.505c-.058-.526-.317-1.002-.392-1.52-.067-.492.1-.968.233-1.445.1-.384.301-.718.468-1.069.36-.476.819-.81 1.412-.943.56-.126 1.018.092 1.244.626.242.593.309 1.211.15 1.837.05.126.092.251-.075.326-.133-.058-.15-.2-.192-.317a1.8 1.8 0 0 0-.45-.668c-.327-.293-.703-.343-1.078-.109s-.602.585-.76.994c-.242.651-.351 1.328-.443 2.013-.017.1 0 .208-.109.275z"/><path fill="#FBF277" d="M60.49 45.3c.034-.1.059-.2.092-.308.326-.293.484-.25.635.167.3.827.292 1.628-.142 2.405a1.1 1.1 0 0 0-.126.535c0 .142.05.292-.05.417-.1-.033-.167-.108-.25-.167-.36-.267-.685-.242-1.002.067a.5.5 0 0 0-.067.075c-.134.159-.343.334-.284.51.05.175.326.091.501.133.092.017.192 0 .25.1-.267.2-.584.2-.893.25-.067.01-.134 0-.2 0-.71.01-.903-.116-1.153-.784-.075-.209-.226-.41-.125-.652.125-.05.183.05.267.109.434.342.777.35 1.236.042.418-.284.66-.694.835-1.161.184-.476.267-.977.343-1.487.016-.108.025-.225.158-.267z"/><path fill="#FDF8E7" d="M61.877 40.148c0-.267.258-.518.559-.551.501-.05.927.133 1.328.417.3.209.225.635-.109.743-.693.092-1.303-.075-1.779-.617z"/><path fill="#FDFCBB" d="m60.031 49.243-.735-.05c-.167-.017-.225-.11-.142-.26.142-.267.31-.509.543-.701a.796.796 0 0 1 1.203.292c-.058.042-.1.084-.1.159-.2.259-.476.426-.76.568z"/><path fill="#F9C01F" d="M65.292 52.667c.217-.401.526-.744.76-1.136.484-.802.902-1.629 1.194-2.522.042-.117.05-.25.176-.326.359.033.718-.05 1.077-.05.034.317-.117.593-.192.885-.284 1.102-.585 2.188-.877 3.29-.042.15-.117.218-.267.218-.652 0-1.286-.084-1.88-.36z"/><path fill="#EEA517" d="M46.042 49.193c-.016-.476-.275-.869-.409-1.303-.083-.276-.2-.543-.309-.81-.15-.384-.117-.785-.15-1.178-.034-.334-.034-.676-.159-.994-.15-.86-.41-1.687-.718-2.497 1.027 1.019 1.503 2.297 1.729 3.683.075.434.05.877.066 1.32.042.51 0 1.01 0 1.52 0 .092.026.192-.05.267z"/><path fill="#F9C01F" d="M53.39 46.537c.084.125.05.259.05.393v1.294c-.083-.1-.05-.225-.05-.342zm22.674 6.43c.267-.075.493-.217.727-.359.167-.1.326-.125.51-.041.459.217.935.208 1.419.083-.042.326-.334.443-.543.61-.693.55-1.47.96-2.338 1.144-1.22.259-2.439.334-3.6-.267-.51-.268-.935-.643-1.353-1.028-.275-.25-.534-.517-.835-.751q.351-1.568.702-3.124c.008-.05.033-.092.05-.142.016.293.225.468.392.66.326.376.718.668 1.144.919.176.1.26.242.318.434.184.651.45 1.261 1.052 1.654.526.342 1.11.409 1.712.342.217-.025.434-.084.643-.134"/><path fill="#EEA517" d="M73.05 47.247c-.443-.284-.426-.702-.36-1.153.134-.91.468-1.704 1.362-2.096 1.086-.484 2.38-.234 3.14.86.15.217.234.476.292.727.084.359-.016.5-.459.735-.125-.059-.142-.184-.175-.293-.393-1.186-1.796-1.528-2.723-.668-.417.384-.61.886-.818 1.387-.076.175-.084.384-.268.5z"/><path fill="#9D3F01" d="M73.05 47.247c.2-.643.4-1.286.852-1.804.559-.635 1.286-.785 2.07-.56.694.2.936.785 1.061 1.428l-.242.243c-.033.125-.15.15-.259.175-.885.25-1.779.493-2.672.743-.134.042-.276.1-.41-.016-.166-.017-.325-.05-.409-.218z"/><path fill="#FBFCA7" d="M73.46 47.472c.877-.234 1.754-.476 2.623-.71.234-.067.476-.134.71-.192.067.017.133.017.175.083.117.167-.033.785-.217.877-1.002.51-2.063.652-3.165.493-.142-.017-.31 0-.368-.175-.058-.2.1-.284.234-.376z"/><path fill="#FDFCF9" d="M75.197 42.762c.017-.226.176-.343.351-.426.426-.2 1.245-.034 1.562.317.1.109.225.234.15.4-.067.168-.234.21-.41.21-.174 0-.358 0-.534.008a2.2 2.2 0 0 1-1.127-.51z"/><path fill="#9D3F01" d="M60.49 45.3c-.1.452-.125.91-.258 1.345-.134.434-.276.86-.552 1.22-.618.81-1.277.868-2.012.191-.142-.158-.117-.375-.192-.559.058-.919.2-1.82.61-2.664.141-.3.367-.535.642-.702.526-.325 1.128-.142 1.504.451.133.217.233.451.267.71z"/><path fill="#FDFCF9" d="M50.919 38.36c.61.06 1.202.176 1.787.377.15.05.209.166.217.308.008.126.025.251.042.376.017.159-.059.234-.209.26-.35.05-.71.091-1.052.15-.443.075-.635-.26-.877-.502-.084-.083-.15-.183-.234-.267-.125-.133-.209-.275-.134-.46.084-.2.251-.258.46-.25z"/><path fill="#F5E2BF" d="M44.647 47.414c.067.175.017.326-.059.484-.2.418-.426.802-.802 1.086-.217-.083-.434-.042-.65-.025-.076 0-.151.025-.226.025-.293-.017-.41-.2-.293-.468.05-.108.117-.208.176-.309a3.16 3.16 0 0 0 .442-1.879v-.175c.017-.125.042-.259.184-.317.134-.059.25.016.343.1.1.083.183.184.275.267.05.042.092.125.167.092.059-.025.042-.109.042-.159.025-.843-.067-1.678-.334-2.489-.042-.133-.117-.267-.067-.417a.1.1 0 0 1 .059-.059c.442.953.567 1.971.509 3.007-.025.443.075.852.242 1.244z"/><path fill="#F5E2BE" d="M41.38 41.793c.11.067.193.084.31-.016.267-.218.56-.418.843-.618.084-.059.167-.117.184-.234.1.025.108.125.142.192.25.476.493.944.735 1.42-.008 0-.017.016-.025.025-.284-.242-.485-.05-.702.125-.25.209-.484.434-.618.743-.209-.142-.2-.409-.334-.601-.058-.092-.092-.2-.175-.276-.142-.242-.384-.434-.36-.76"/><path fill="#F5E2BE" d="M43.593 42.545c.142.184.234.392.3.618 0 0-.016.017-.025.017a.58.58 0 0 1-.3-.618s.017-.017.025-.017m-.985-1.729c-.125-.1-.26-.184-.3-.36.124.1.25.201.3.36"/><path fill="#FDFCF9" d="M68.298 31.73c.092 0 .192-.009.284-.017.226-.034.451 0 .668-.025.317-.009.635-.017.952-.034.084 0 .167.017.25.009.168-.009.318.025.377.192s.033.317-.092.476c-.184.234-.443.267-.702.3-.392.05-.768-.033-1.136-.142a.845.845 0 0 1-.6-.76"/><path fill="#F9C01F" d="M28.97 49.293c.117.501.159 1.019.209 1.528-.843-.284-1.662-.643-2.489-.96-.259-.1-.518-.209-.776-.31-.117-.542-.243-1.085-.36-1.636.493.267 1.028.434 1.554.643.626.25 1.236.526 1.87.735z"/><path fill="#FDFCF8" d="M30.658 39.187c-.309-.175-.326-.325-.075-.567.36-.335.768-.518 1.27-.46.317.034.442.242.283.518-.417.384-.927.526-1.486.51z"/><path fill="#FDF8E7" d="M43.57 42.562c.1.208.2.409.301.618.217.626.384 1.26.451 1.929.042.434.017.868.017 1.294 0 .117-.059.126-.15.067-.201-.125-.335-.309-.51-.468-.067-.058-.134-.158-.234-.116-.117.041-.125.167-.117.258.025.326.008.652-.042.986-.075.501-.284.935-.55 1.361-.06.092-.176.192-.076.318.084.108.217.092.334.066.217-.05.443-.025.66-.041.117 0 .15.041.125.15-.3.41-.61.81-.952 1.186-.693.768-1.562 1.17-2.589 1.27-2.071.192-3.817-.518-5.337-1.888-.843-.76-1.478-1.67-1.97-2.69-.017-.033-.026-.075-.042-.116.033-.109.125-.126.208-.159.518-.175 1.036-.342 1.545-.518.1-.033.2-.05.293.009a5.6 5.6 0 0 0 1.328 1.787c.86.551 1.67 1.194 2.73 1.361.794.117 1.562.126 2.289-.267a2.7 2.7 0 0 0 1.261-1.453c.476-1.27.376-2.514-.217-3.733-.05-.109-.15-.218-.084-.351-.033-.192.042-.334.184-.468.217-.2.443-.384.677-.568.167-.133.292-.15.375.084.017.033.05.067.076.1z"/><path fill="#E2B29B" d="M42.258 43.413c.827 1.436.969 2.931.25 4.435-.475.993-1.336 1.47-2.413 1.528-1.253.067-2.363-.326-3.332-1.11-.159-.134-.368-.218-.476-.41.1 0 .175.184.3.05.05-.1.042-.2.017-.3-.234-.986-.25-1.988-.209-2.99.05-1.437.869-2.38 2.322-2.59.927-.133 1.813.05 2.673.368.133.05.259.134.417.1.25.26.36.585.46.919z"/><path fill="#BE8A76" d="M41.8 42.503c-.009.058.066.117.008.167s-.109-.017-.159-.042c-.802-.359-1.637-.56-2.522-.534-.568.016-1.11.15-1.595.476-.585.384-.877.96-.994 1.628-.142.835 0 1.679.017 2.514.008.401.15.802.025 1.203.016-.167-.034-.318-.1-.468-.318-.676-.485-1.386-.569-2.13-.066-.584-.05-1.152.109-1.712.3-1.11 1.019-1.804 2.155-2.02.818-.16 1.62-.017 2.422.166.225.05.46.117.684.176.067-.109-.058-.159-.05-.242.067 0 .092.075.142.108.142.234.276.468.418.702z"/><path fill="#F1CAB3" d="M39.075 40.365c.025 0 .042-.008.067-.017.226.05.318-.066.368-.275.058-.242.125-.493.309-.685.075-.075.15-.15.259-.058.1.075.158.175.091.309-.116.233-.225.475-.342.71-.05.1-.083.183.017.267z"/><path fill="#BE8A76" d="M40.62 41.117c.15.067.267.167.35.309-.166-.05-.258-.176-.35-.31"/><path fill="#F1CAB3" d="M39.843 40.624a.55.55 0 0 1 .36.192.76.76 0 0 1-.36-.192"/><path fill="#CEF516" d="M28.819 4.002c.075.952.042 1.921.35 2.84.034.1.043.217.06.326-.318-.1-.619.025-.928.066-.985.16-1.98.293-2.973.393-1.136.125-2.28.2-3.416.259-1.144.067-2.296.042-3.44.033-.953 0-1.896-.083-2.84-.15-.952-.067-1.913-.109-2.865-.159-.785-.033-1.578-.067-2.363-.108-.493-.025-.986-.025-1.478-.042-.084 0-.176.017-.243-.059.902-.342 1.821-.618 2.731-.91 1.946-.635 3.926-1.16 5.888-1.745 1.128-.334 2.264-.677 3.39-1.01.627-.16 1.262-.31 1.888-.469.109-.083.21-.025.318.009.685.2 1.286.108 1.787-.443.075-.083.159-.184.292-.175.326-.025.652.016.97-.059.108-.05.2-.008.291.042.677.384 1.404.434 2.147.334.1-.017.225-.058.309.05.033.318.075.643.108.96z"/><path fill="#7CD310" d="M21.921 13.348c.443 1.511.885 3.031 1.328 4.543-.343-.092-.693-.084-1.036-.092a36 36 0 0 0-2.322 0c-.584.017-1.169.067-1.753.109-.05 0-.1 0-.15-.009q-.228-1.338-.443-2.689c-.042-.234-.167-.326-.401-.334-.777-.033-1.495.2-2.205.46a43 43 0 0 0-4.017 1.678c-.209.1-.343.05-.418-.159a255 255 0 0 1-.96-2.689c-.025-.067-.025-.133-.034-.2 0-.226.168-.242.335-.26.375-.033.751-.058 1.135-.1.15-.016.268-.166.435-.108.25.192.735.033.918-.309.092.042.092.134.134.209.142.284.46.46.726.392.26-.058.518-.384.527-.668 0-.125-.025-.259.1-.342.05.058.05.125.05.192-.017.426.017.359.4.376.51.025 1.02-.084 1.53-.05 2.045.108 4.092.016 6.138.05z"/><path fill="#63CB05" d="M11.4 13.498c-.175.226-.442.226-.693.25-.3.034-.61.042-.91.059-.134 0-.234.042-.292.159-.243-.585-.41-1.195-.668-1.78a8 8 0 0 0-.702-1.285v-.21c.234.093.476.118.718.11 1.036-.05 1.737.45 2.23 1.319.092.159.209.309.276.484.125.301.167.602.033.91z"/><path fill="#51C101" d="M13.805 12.78v.309c0 .334-.242.693-.551.801-.268.092-.577-.025-.819-.292-.109-.117-.125-.259-.125-.4 0-.427.217-.744.5-1.02.268-.25.669-.125.853.25.05.118.092.235.133.36z"/><path fill="#FDFCF9" d="M35.001 13.69c.017-.258.426-.576.768-.61.435-.033.794.143 1.12.402.267.217.25.309-.059.459q-.988.375-1.837-.25z"/><path fill="#E39231" d="M9.66 34.177c-1.87.56-3.74 1.127-5.62 1.687-.292-.125-.4-.417-.526-.66a10.8 10.8 0 0 1-1.144-3.55.73.73 0 0 1 .71-.843c1.703-.091 3.382-.292 5.027-.76a22.5 22.5 0 0 0 2.94-1.077c.075-.033.2-.058.167-.159-.05-.125-.159-.033-.242-.008-1.12.326-2.213.735-3.34 1.01-.944.226-1.896.376-2.865.451-.426.034-.852.034-1.278.042-.067 0-.15.034-.184-.05-.025-.067.05-.1.084-.15.376-.493.743-.994 1.119-1.487.117-.2.317-.267.526-.334 1.462-.392 2.948-.676 4.418-1.01 1.846-.426 3.7-.81 5.554-1.22.242-.05.484-.1.718-.167.343-.092.468-.267.46-.618 0-.058-.026-.117-.026-.175.284-.125.384-.042.493-.2.109.434.067 1.319.059 1.745-.009.51-.059 1.01-.092 1.52-.05.075 0 .167-.059.267-.133-.025-.175-.134-.184-.25a1.2 1.2 0 0 0-.091-.343c.041-.3.041-.61.025-.919q-.015-.385-.343-.208c-1.077.576-2.18 1.127-3.248 1.712a3 3 0 0 0-.318.209c-.927.793-2.02 1.32-3.048 1.945-.042.026-.092.05-.134.076-.25.15-.518.284-.45.651-.11.084-.243.117-.368.167-.518.125-1.036.159-1.562.217h-.125c-.084-.016-.184-.025-.2-.125-.017-.092.058-.15.133-.2.075-.042.159-.059.242-.092.777-.26 1.537-.543 2.222-1.01-.184-.01-.351.066-.518.116a18.5 18.5 0 0 1-3.5.66c-.459.042-.918 0-1.37.083-.241.05-.275.059-.216.284.25 1.078.492 2.155.751 3.224.067.267.117.284.435.192q1.316-.387 2.655-.61c.677-.108 1.353-.233 2.047-.233.125 0 .309-.042.284.2z"/><path fill="#AE7962" d="M5.026 28.355a1.9 1.9 0 0 1-.518.26c-.259-.067-.517 0-.768.024-.501.034-.994.084-1.495.126-.075 0-.184.033-.234-.059s.009-.175.05-.259c.076-.15.25-.2.334-.342 1.161-.284 2.322-.576 3.483-.86.042.041.042.1.008.142-.275.334-.476.735-.868.968z"/><path fill="#FDFCF9" d="M46.29 25.14c.05.092.15.142.159.259-.276.325-.635.534-.986.743-1.445.852-2.99 1.32-4.677 1.136-1.787-.192-3.098-1.086-3.85-2.748.059-.234.284-.267.451-.367.351-.2.744-.31 1.136-.401.1 0 .159.058.209.125.376.551.952.777 1.553.944a5.1 5.1 0 0 0 2.297.1.5.5 0 0 0 .225-.109c.451-.2.869-.476 1.337-.626a.8.8 0 0 1 .384.117c.468.267.96.493 1.486.643.109.033.234.059.284.192zM28.712 3.042c-.793.176-1.578.184-2.33-.192l-.426-.225c-.267-.301-.258-.384.034-.668.209-.21.476-.31.76-.334.61-.042 1.227-.034 1.82.158.126.042.251.1.36.184.342.276.35.651.016.935-.067.059-.158.1-.234.15zm-3.726-.368c-.685.844-1.32 1.01-2.397.602-.042-.36.108-.635.434-.794.568-.275 1.152-.342 1.737-.033.092.05.209.092.234.217z"/><path fill="#DD9222" d="M16.302 27.796c.134.033.15.15.15.258 0 .1-.017.2.067.301.025-.075.059-.134.084-.2.033.342-.034.676-.05 1.01-.017.576.066 1.144.108 1.72.017.218-.042.368-.234.493-.359.226-.701.476-1.052.719-.159-.026-.267.091-.401.15-.175.067-.326.017-.476-.075-.643-.393-1.361-.56-2.105-.643-1.044-.117-2.088-.092-3.132-.092-.183 0-.375 0-.56.033-.116.025-.241.025-.325-.092.109-.067.234-.083.36-.1.058-.159.208-.192.342-.242 1.587-.643 3.165-1.295 4.677-2.096.684-.36 1.37-.719 2.07-1.053.143-.066.293-.192.477-.083zm.308 5.311c-.351.05-.61.284-.91.434-.794.418-1.57.852-2.347 1.287-.176.1-.268.041-.31-.142-.108-.443-.091-.493.293-.76.668-.46 1.328-.919 1.996-1.378.083-.059.167-.117.217-.21.326-.216.643-.442.969-.659.284-.192.476-.108.5.226.017.2.143.275.302.334.108.041.25.075.258.217.009.15-.133.209-.242.267-.234.134-.476.259-.718.393z"/><path fill="#F1C8B0" d="M42.869 24.89c-.159.234-.426.15-.635.183-.919.134-1.804-.024-2.664-.375-.46-.192-.794-.518-1.044-.936a5.5 5.5 0 0 1-.718-2.973 4.8 4.8 0 0 1 .818-1.988c.184 0 .343-.083.51-.141.968-.351 1.945-.669 2.964-.836.075-.016.15-.025.226-.058.45-.184.818-.058 1.11.309.543.685.86 1.453.92 2.338.066 1.094-.226 2.105-.719 3.065-.242.476-.476.96-.768 1.412"/><path fill="#AE7A63" d="m41.69 15.745.977-.25c.602-.06 1.203-.093 1.796.05a3.43 3.43 0 0 1 2.639 3.073c.125 1.603-.334 3.031-1.311 4.309a1 1 0 0 0-.117.167.3.3 0 0 1-.134.175c-.317.251-.635.502-.96.735-.084.059-.167.117-.276.1-.175-.083-.117-.225-.083-.358.142-.527.309-1.044.45-1.57.16-.585.293-1.187.276-1.78-.033-1.144-.367-2.12-1.787-2.705-.885-.368-1.812-.418-2.756-.326-.176.017-.36.017-.535.025-.1 0-.217-.017-.175-.175.534-.669 1.228-1.128 2.004-1.479z"/><path fill="#E2B29B" d="M39.695 17.222c.033.117.117.084.209.075.81-.083 1.628-.125 2.438.042 1.17.242 2.138.76 2.547 1.98.234.7.184 1.42.059 2.137-.142.81-.41 1.579-.635 2.364-.025.075-.134.192.042.25.05.184-.117.15-.2.21l-1.278.626c-.009-.26.15-.443.259-.652.392-.743.793-1.486.985-2.313.3-1.295.159-2.522-.635-3.616-.208-.293-.45-.635-.885-.51-.651.192-1.328.276-1.98.484-.576.184-1.143.385-1.72.577-.092.033-.217.117-.275-.05a23 23 0 0 1 1.06-1.587z"/><path fill="#F9D07E" d="m5.026 28.356.86-1.111c3.24-.852 6.515-1.553 9.822-2.088.15-.025.309.025.442-.067.042.017.109.025.134.067.117.209-.117.743-.36.802q-1.112.262-2.237.501c-1.286.284-2.573.56-3.859.843-1.553.343-3.098.694-4.652 1.044-.05.009-.1.009-.15.017z"/><path fill="#E39230" d="M30.139 31.47q.002.05.016.1c.059.351.059.36-.3.36h-6.498c-.075 0-.175.025-.192-.075-.017-.117.083-.16.175-.176.334-.05.668-.117 1.003-.15.96-.117 1.92-.184 2.88-.226.694-.033 1.37.05 2.055.034.284 0 .568.092.852.142z"/><path fill="#B65713" d="M20.644 42.136c.292 0 .576.025.86-.042.092-.017.217-.05.25.092.034.142-.058.2-.183.225-.626.125-1.236.31-1.888.293a19.3 19.3 0 0 0-3.858.309c-.15 0-.167-.067-.067-.167.217-.226.51-.301.785-.401.31-.1.635-.126.952-.142 1.044-.059 2.08-.2 3.124-.167z"/><path fill="#DD9222" d="M14.613 43.931c.117.009.167.1.225.184.092.133.2.25.393.225.183.167.167.401.192.618.142 1.078.267 2.147.4 3.224q.19 1.556.368 3.099c.067.568.134 1.144.209 1.712q.01.112-.017.225c-.108.1-.217.209-.384.134-.15-.075-.159-.217-.184-.368-.15-1.152-.317-2.305-.467-3.457-.184-1.337-.368-2.673-.543-4.009-.075-.526-.134-1.06-.21-1.587z"/><path fill="#CD7F13" d="M8.384 31.37c.969-.091 1.937-.067 2.898-.041.827.025 1.662.075 2.455.35.326.109.627.26.91.443.1.067.2.125.326.117-.726.443-1.453.894-2.171 1.336-.125.084-.26.159-.384.242-.92.134-1.863.059-2.756.351-.193-.2-.435-.108-.644-.083a24.6 24.6 0 0 0-3.733.66c-.267.066-.526.141-.785.225-.2.058-.309-.017-.35-.209-.21-.885-.41-1.77-.619-2.656l-.175-.718c-.075-.309-.033-.36.276-.376 1.378-.067 2.739-.183 4.084-.526.442-.108.885-.259 1.32-.384.091-.025.2-.092.275.033.075.15-.075.176-.15.217-.719.451-1.495.769-2.306 1.02-.108.033-.233.033-.35.2.66 0 1.27-.109 1.879-.2"/><path fill="#F5E2BE" d="M44.145 24.271c.058-.075.167-.108.2-.208.443-.326.852-.694 1.32-.978.017.1.1.134.175.168a4.6 4.6 0 0 1 1.061.693c.259.217.284.384.042.61-.217.2-.376.467-.66.584a6.8 6.8 0 0 1-1.93-.81.4.4 0 0 0-.216-.059z"/><path fill="#F4FD92" d="M69.25 31.688c-.226.058-.452.033-.669.025.225-.05.451-.034.668-.025"/><path fill="#FDDEC7" d="M42.367 46.345c0 1.044-.534 1.879-1.42 2.13-.843.242-1.636.066-2.321-.494-.384-.309-.443-.751-.393-1.202.017-.167-.025-.2-.167-.192-.05 0-.1 0-.15-.009-.35-.066-.376-.116-.234-.442.05-.125.109-.25.167-.376.084-.167.184-.276.401-.2.15.05.242-.017.234-.193v-.334c0-.133.05-.225.167-.284.2-.091.359-.25.467-.425.251-.41.619-.493 1.053-.435a2.55 2.55 0 0 1 2.171 2.08c.025.125.017.25.025.384z"/><path fill="#FDDDC7" d="M38.3 43.773c.268 0 .435.159.426.392 0 .226-.275.477-.517.468-.251 0-.41-.175-.401-.426 0-.242.217-.434.492-.434"/><path fill="#F1B855" d="M16.3 27.796c-.717.259-1.386.634-2.062.994a40 40 0 0 1-3.257 1.561q-1.115.466-2.23.919c-.159-.25-.15-.35.117-.518.752-.45 1.503-.893 2.263-1.336.31-.184.593-.393.869-.626.4-.334.852-.593 1.311-.827.902-.443 1.779-.927 2.664-1.395.192-.1.401-.042.418.159.033.309.008.626 0 .943 0 .042-.059.084-.092.117z"/></svg>