<svg width="269.333252" height="80.000000" viewBox="0 0 269.333 80" fill="none" xmlns="http://www.w3.org/2000/svg" xmlns:xlink="http://www.w3.org/1999/xlink">
	<path id="Vector" d="M94.64 19.55L88.86 19.55L88.86 21.08L93.19 21.08C93.08 22.33 92.61 23.31 91.83 24.02C91.04 24.73 90.04 25.09 88.86 25.09C87.56 25.09 86.46 24.61 85.56 23.65C84.68 22.67 84.23 21.46 84.23 20C84.23 18.53 84.68 17.32 85.56 16.34C86.46 15.38 87.56 14.9 88.86 14.9C89.53 14.9 90.16 15.02 90.74 15.29C91.33 15.56 91.79 15.93 92.16 16.41L93.26 15.24C92.76 14.63 92.13 14.16 91.35 13.82C90.56 13.49 89.74 13.33 88.86 13.33C87.13 13.33 85.66 13.97 84.46 15.25C83.26 16.54 82.66 18.12 82.66 20C82.66 21.87 83.26 23.45 84.46 24.73C85.66 26.02 87.13 26.66 88.86 26.66C90.68 26.66 92.13 26.04 93.24 24.77C94.23 23.72 94.73 22.3 94.73 20.51C94.73 20.21 94.69 19.89 94.64 19.55ZM96.95 13.61L96.95 26.38L103.91 26.38L103.91 24.81L98.48 24.81L98.48 20.76L103.38 20.76L103.38 19.23L98.48 19.23L98.48 15.18L103.91 15.18L103.91 13.61L96.95 13.61ZM113.72 15.18L113.72 13.61L105.52 13.61L105.52 15.18L108.85 15.18L108.85 26.38L110.38 26.38L110.38 15.18L113.72 15.18ZM121.2 13.61L119.67 13.61L119.67 26.38L121.2 26.38L121.2 13.61ZM131.34 15.18L131.34 13.61L123.14 13.61L123.14 15.18L126.47 15.18L126.47 26.38L128 26.38L128 15.18L131.34 15.18ZM146.86 15.27C145.68 13.97 144.23 13.33 142.5 13.33C140.77 13.33 139.32 13.97 138.13 15.25C136.95 16.52 136.37 18.1 136.37 20C136.37 21.88 136.95 23.47 138.13 24.73C139.32 26.02 140.77 26.66 142.5 26.66C144.22 26.66 145.68 26.02 146.86 24.73C148.05 23.47 148.63 21.88 148.63 20C148.63 18.12 148.05 16.54 146.86 15.27ZM139.23 16.34C140.12 15.38 141.2 14.9 142.5 14.9C143.8 14.9 144.88 15.38 145.75 16.34C146.63 17.29 147.07 18.51 147.07 20C147.07 21.47 146.63 22.7 145.75 23.65C144.88 24.61 143.8 25.09 142.5 25.09C141.2 25.09 140.12 24.61 139.23 23.65C138.37 22.68 137.93 21.47 137.93 20C137.93 18.51 138.37 17.3 139.23 16.34ZM152.33 18.42L152.27 15.96L152.33 15.96L158.4 26.38L160 26.38L160 13.61L158.46 13.61L158.46 21.08L158.53 23.54L158.46 23.54L152.66 13.61L150.8 13.61L150.8 26.38L152.33 26.38L152.33 18.42Z" fill="#FFFFFF" fill-opacity="1.000000" fill-rule="nonzero"/>
	<path id="Vector" d="M88.86 19.55L88.86 21.08L93.19 21.08C93.08 22.33 92.61 23.31 91.83 24.02C91.04 24.73 90.04 25.09 88.86 25.09C87.56 25.09 86.46 24.61 85.56 23.65C84.68 22.67 84.23 21.46 84.23 20C84.23 18.53 84.68 17.32 85.56 16.34C86.46 15.38 87.56 14.9 88.86 14.9C89.53 14.9 90.16 15.02 90.74 15.29C91.33 15.56 91.79 15.93 92.16 16.41L93.26 15.24C92.76 14.63 92.13 14.16 91.35 13.82C90.56 13.49 89.74 13.33 88.86 13.33C87.13 13.33 85.66 13.97 84.46 15.25C83.26 16.54 82.66 18.12 82.66 20C82.66 21.87 83.26 23.45 84.46 24.73C85.66 26.02 87.13 26.66 88.86 26.66C90.68 26.66 92.13 26.04 93.24 24.77C94.23 23.72 94.73 22.3 94.73 20.51C94.73 20.21 94.69 19.89 94.64 19.55L88.86 19.55ZM96.95 26.38L103.91 26.38L103.91 24.81L98.48 24.81L98.48 20.76L103.38 20.76L103.38 19.23L98.48 19.23L98.48 15.18L103.91 15.18L103.91 13.61L96.95 13.61L96.95 26.38ZM113.72 13.61L105.52 13.61L105.52 15.18L108.85 15.18L108.85 26.38L110.38 26.38L110.38 15.18L113.72 15.18L113.72 13.61ZM119.67 13.61L119.67 26.38L121.2 26.38L121.2 13.61L119.67 13.61ZM131.34 13.61L123.14 13.61L123.14 15.18L126.47 15.18L126.47 26.38L128 26.38L128 15.18L131.34 15.18L131.34 13.61ZM142.5 13.33C140.77 13.33 139.32 13.97 138.13 15.25C136.95 16.52 136.37 18.1 136.37 20C136.37 21.88 136.95 23.47 138.13 24.73C139.32 26.02 140.77 26.66 142.5 26.66C144.22 26.66 145.68 26.02 146.86 24.73C148.05 23.47 148.63 21.88 148.63 20C148.63 18.12 148.05 16.54 146.86 15.27C145.68 13.97 144.23 13.33 142.5 13.33ZM142.5 14.9C143.8 14.9 144.88 15.38 145.75 16.34C146.63 17.29 147.07 18.51 147.07 20C147.07 21.47 146.63 22.7 145.75 23.65C144.88 24.61 143.8 25.09 142.5 25.09C141.2 25.09 140.12 24.61 139.23 23.65C138.37 22.68 137.93 21.47 137.93 20C137.93 18.51 138.37 17.3 139.23 16.34C140.12 15.38 141.2 14.9 142.5 14.9ZM152.27 15.96L152.33 15.96L158.4 26.38L160 26.38L160 13.61L158.46 13.61L158.46 21.08L158.53 23.54L158.46 23.54L152.66 13.61L150.8 13.61L150.8 26.38L152.33 26.38L152.33 18.42L152.27 15.96Z" stroke="#FFFFFF" stroke-opacity="1.000000" stroke-width="0.199999"/>
	<path id="Vector" d="M212.95 60.02L216.67 60.02L216.67 35.54L212.95 35.54L212.95 60.02ZM246.52 44.36L242.24 54.97L242.12 54.97L237.68 44.36L233.67 44.36L240.32 59.19L236.53 67.44L240.41 67.44L250.66 44.36L246.52 44.36ZM225.38 57.24C224.16 57.24 222.46 56.64 222.46 55.16C222.46 53.27 224.58 52.55 226.41 52.55C228.04 52.55 228.82 52.89 229.81 53.36C229.52 55.63 227.53 57.24 225.38 57.24ZM225.83 43.82C223.13 43.82 220.34 44.99 219.18 47.57L222.49 48.93C223.19 47.57 224.51 47.13 225.89 47.13C227.82 47.13 229.78 48.26 229.81 50.28L229.81 50.53C229.14 50.15 227.69 49.59 225.92 49.59C222.36 49.59 218.73 51.51 218.73 55.1C218.73 58.37 221.65 60.48 224.93 60.48C227.43 60.48 228.82 59.38 229.68 58.09L229.81 58.09L229.81 59.98L233.41 59.98L233.41 50.59C233.41 46.25 230.1 43.82 225.83 43.82ZM202.8 47.34L197.49 47.34L197.49 38.95L202.8 38.95C205.58 38.95 207.16 41.21 207.16 43.15C207.16 45.04 205.58 47.34 202.8 47.34ZM202.7 35.54L193.77 35.54L193.77 60.02L197.49 60.02L197.49 50.75L202.7 50.75C206.83 50.75 210.89 47.81 210.89 43.15C210.89 38.48 206.83 35.54 202.7 35.54ZM154 57.24C151.42 57.24 149.27 55.13 149.27 52.23C149.27 49.29 151.42 47.15 154 47.15C156.54 47.15 158.54 49.29 158.54 52.23C158.54 55.13 156.54 57.24 154 57.24ZM158.28 45.73L158.15 45.73C157.31 44.75 155.7 43.87 153.68 43.87C149.43 43.87 145.54 47.53 145.54 52.23C145.54 56.89 149.43 60.52 153.68 60.52C155.7 60.52 157.31 59.64 158.15 58.63L158.28 58.63L158.28 59.83C158.28 63.01 156.54 64.71 153.74 64.71C151.46 64.71 150.04 63.11 149.46 61.75L146.21 63.08C147.14 65.28 149.62 68 153.74 68C158.12 68 161.82 65.47 161.82 59.32L161.82 44.37L158.28 44.37L158.28 45.73ZM164.39 60.02L168.13 60.02L168.13 35.54L164.39 35.54L164.39 60.02ZM173.63 51.94C173.53 48.73 176.17 47.09 178.07 47.09C179.55 47.09 180.8 47.81 181.22 48.85L173.63 51.94ZM185.21 49.17C184.51 47.31 182.35 43.87 177.94 43.87C173.56 43.87 169.93 47.24 169.93 52.2C169.93 56.86 173.53 60.52 178.36 60.52C182.25 60.52 184.51 58.19 185.44 56.83L182.54 54.94C181.58 56.33 180.26 57.24 178.36 57.24C176.46 57.24 175.11 56.39 174.24 54.72L185.6 50.11L185.21 49.17ZM94.71 46.42L94.71 49.96L103.34 49.96C103.08 51.94 102.41 53.39 101.38 54.4C100.12 55.63 98.16 56.99 94.71 56.99C89.4 56.99 85.25 52.79 85.25 47.59C85.25 42.39 89.4 38.19 94.71 38.19C97.58 38.19 99.67 39.3 101.21 40.72L103.76 38.22C101.6 36.21 98.74 34.66 94.71 34.66C87.44 34.66 81.33 40.46 81.33 47.59C81.33 54.72 87.44 60.52 94.71 60.52C98.64 60.52 101.6 59.26 103.92 56.89C106.3 54.56 107.04 51.28 107.04 48.63C107.04 47.81 106.97 47.06 106.85 46.42L94.71 46.42ZM116.84 57.24C114.27 57.24 112.05 55.16 112.05 52.2C112.05 49.2 114.27 47.15 116.84 47.15C119.42 47.15 121.64 49.2 121.64 52.2C121.64 55.16 119.42 57.24 116.84 57.24ZM116.84 43.87C112.14 43.87 108.32 47.37 108.32 52.2C108.32 56.99 112.14 60.52 116.84 60.52C121.54 60.52 125.37 56.99 125.37 52.2C125.37 47.37 121.54 43.87 116.84 43.87ZM135.45 57.24C132.87 57.24 130.65 55.16 130.65 52.2C130.65 49.2 132.87 47.15 135.45 47.15C138.02 47.15 140.24 49.2 140.24 52.2C140.24 55.16 138.02 57.24 135.45 57.24ZM135.45 43.87C130.75 43.87 126.92 47.37 126.92 52.2C126.92 56.99 130.75 60.52 135.45 60.52C140.14 60.52 143.97 56.99 143.97 52.2C143.97 47.37 140.14 43.87 135.45 43.87Z" fill="#FFFFFF" fill-opacity="1.000000" fill-rule="nonzero"/>
	<path id="Vector" d="M40.95 38.66L20 61.09C20 61.09 20 61.1 20 61.1C20.64 63.54 22.85 65.33 25.47 65.33C26.51 65.33 27.49 65.04 28.34 64.54L28.4 64.5L52 50.78L40.95 38.66Z" fill="#EB3131" fill-opacity="1.000000" fill-rule="nonzero"/>
	<path id="Vector" d="M62.45 35.14L62.43 35.13L52.51 29.33L41.33 39.36L52.55 50.66L62.42 44.92C64.15 43.98 65.33 42.14 65.33 40.02C65.33 37.91 64.17 36.09 62.45 35.14Z" fill="#F6B60B" fill-opacity="1.000000" fill-rule="nonzero"/>
	<path id="Vector" d="M20.19 18.66C20.06 19.13 20 19.62 20 20.13L20 59.86C20 60.37 20.06 60.86 20.2 61.33L42.66 39.42L20.19 18.66Z" fill="#5778C5" fill-opacity="1.000000" fill-rule="nonzero"/>
	<path id="Vector" d="M41.13 40L52 29.14L28.4 15.47C27.54 14.96 26.54 14.66 25.47 14.66C22.85 14.66 20.64 16.44 20 18.86C20 18.87 20 18.87 20 18.87L41.13 40Z" fill="#3BAD49" fill-opacity="1.000000" fill-rule="nonzero"/>
</svg>
