<svg width="40" height="40" viewBox="0 0 40 40" fill="none" xmlns="http://www.w3.org/2000/svg">
<path d="M22.5073 2.12736L25.9519 9.40558C26.6221 10.8218 27.918 11.8038 29.4166 12.0301L37.1196 13.1967C39.4142 13.5438 40.3304 16.4841 38.6694 18.1719L33.095 23.8378C32.0106 24.9406 31.5152 26.5285 31.7712 28.0852L33.0872 36.0842C33.4791 38.4674 31.081 40.284 29.028 39.1592L22.1377 35.382C20.7972 34.6472 19.1952 34.6472 17.8547 35.382L10.9644 39.1592C8.91256 40.284 6.51335 38.4674 6.90636 36.0842L8.2223 28.0852C8.47836 26.5285 7.98294 24.9406 6.89856 23.8378L1.32417 18.1719C-0.335788 16.4841 0.580474 13.545 2.87391 13.1967L10.577 12.0301C12.0755 11.8026 13.3714 10.8218 14.0416 9.40558L17.4862 2.12736C18.5127 -0.0398502 21.4775 -0.0398502 22.5028 2.12736H22.5073Z" fill="url(#paint0_linear_107_26357)"/>
<path d="M30.3361 40C29.815 40 29.2918 39.8688 28.8075 39.603L21.9171 35.8258C20.717 35.1676 19.2841 35.1676 18.0829 35.8258L11.1936 39.603C10.0792 40.2136 8.75659 40.1126 7.74013 39.343C6.72255 38.5722 6.22267 37.2907 6.43532 35.9987L7.75126 27.9997C7.9806 26.6055 7.5375 25.1847 6.56669 24.1969L0.992296 18.5322C0.0927339 17.6175 -0.225676 16.2744 0.162873 15.0277C0.551422 13.781 1.56566 12.8884 2.81035 12.7003L10.5134 11.5337C11.8561 11.3294 13.015 10.4518 13.6151 9.18425L17.0597 1.90603C17.6164 0.730143 18.7431 0 20 0C21.2569 0 22.3847 0.730143 22.9403 1.90603L26.3849 9.18425C26.985 10.4518 28.145 11.3306 29.4866 11.5337L37.1897 12.7003C38.4343 12.8884 39.4486 13.781 39.8371 15.0277C40.2257 16.2744 39.9073 17.6175 39.0077 18.5322L33.4333 24.1969C32.4625 25.1836 32.0194 26.6055 32.2487 27.9997L33.5647 35.9987C33.7773 37.2919 33.2774 38.5722 32.2599 39.343C31.6854 39.7783 31.0118 40 30.3349 40H30.3361ZM20 34.3283C20.8127 34.3283 21.6254 34.5315 22.3658 34.9377L29.2561 38.715C30.0533 39.1515 30.9651 39.083 31.6943 38.5316C32.4235 37.979 32.7675 37.0968 32.615 36.1705L31.2991 28.1714C31.0163 26.4523 31.5618 24.6972 32.7609 23.4795L38.3353 17.8148C38.981 17.1589 39.1992 16.2338 38.9209 15.34C38.6425 14.4462 37.9445 13.8321 37.0527 13.6963L29.3497 12.5297C27.693 12.2789 26.2624 11.1948 25.5221 9.63L22.0775 2.35178C21.6778 1.50904 20.9029 1.00641 20.0011 1.00641C19.0993 1.00641 18.3245 1.50904 17.9248 2.35178L14.4802 9.63C13.7398 11.1948 12.3081 12.2789 10.6526 12.5297L2.94951 13.6963C2.05774 13.8321 1.35858 14.4462 1.08136 15.34C0.803032 16.2338 1.02124 17.1589 1.66697 17.8148L7.24136 23.4795C8.4404 24.6972 8.98593 26.4523 8.70315 28.1714L7.3872 36.1705C7.23468 37.0968 7.57981 37.979 8.30903 38.5316C9.03826 39.0841 9.95007 39.1526 10.7472 38.7162L17.6364 34.9389C18.3779 34.5326 19.1906 34.3295 20.0022 34.3295L20 34.3283Z" fill="url(#paint1_linear_107_26357)"/>
<g style="mix-blend-mode:overlay">
<path d="M29.3857 15.7228L26.0713 15.2202C25.1049 15.0739 24.2688 14.4401 23.8369 13.5266L21.6147 8.83228C20.9523 7.43351 19.0407 7.43351 18.3783 8.83228L16.1561 13.5266C15.7241 14.4401 14.888 15.0727 13.9216 15.2202L8.9529 15.9735C7.4733 16.1976 6.88213 18.0943 7.95314 19.182L11.5492 22.8362C12.2483 23.5477 12.5678 24.5716 12.4031 25.5757L11.5547 30.7354C11.3176 32.1783 12.6647 33.2776 13.9261 32.8098C15.0416 25.5861 20.9545 18.807 29.3879 15.7216L29.3857 15.7228Z" fill="#B3B3B3"/>
</g>
<g style="mix-blend-mode:overlay">
<path d="M26.0683 15.2204C24.1255 15.0509 23.491 12.9092 22.6894 11.3874L21.5037 8.96368C21.1697 8.17549 20.2701 7.79011 19.5175 8.05245C18.6591 8.30783 18.4387 9.24807 18.058 9.99447L16.9123 12.4391C16.3635 13.7543 15.6777 15.1159 14.197 15.4154C12.7107 15.6812 10.503 15.9714 9.01446 16.2013C7.78758 16.3104 7.15856 18.0075 8.01693 18.9349C8.93764 19.888 10.7813 21.8184 11.6998 22.7749C12.3399 23.4597 12.6528 24.4476 12.5437 25.3844L11.5506 30.7368L12.3088 25.3588C12.3834 24.4905 12.0761 23.599 11.4827 22.9966C10.3716 21.8578 8.79068 20.3732 7.70631 19.2228C6.60746 18.0527 7.40015 15.8878 8.94989 15.7369C9.75705 15.6093 11.9826 15.2657 12.822 15.1333C13.6537 15.0022 14.5076 14.9836 15.1745 14.409C15.7957 13.9772 16.1876 12.8999 16.5216 12.236C16.9413 11.3816 17.8553 9.4013 18.2895 8.57365C19.0432 7.17721 21.2276 7.34668 21.7787 8.82206L22.9031 11.2783C23.6457 12.8326 24.1367 14.9464 26.0716 15.2192L26.0683 15.2204Z" fill="#999999"/>
</g>
<g style="mix-blend-mode:overlay">
<path d="M38.6715 18.1729C37.3667 19.6575 36.0184 21.0957 34.6936 22.5572L33.6827 23.6356C33.3376 24.0035 33.0169 24.3309 32.7731 24.7267C32.2866 25.5161 32.0417 26.4552 32.0795 27.3792C32.0984 27.8272 32.2142 28.3055 32.3011 28.8104C32.3011 28.8104 33.4333 35.2006 33.5691 36.2686C33.7172 37.4305 33.1717 38.6517 32.2599 39.3435C31.3481 40.0354 30.0644 40.1979 29.0502 39.6918C28.1183 39.2274 27.329 38.7422 26.4628 38.2675L22.6397 36.1304C22.2066 35.889 21.8069 35.6255 21.4039 35.4688C20.5722 35.1449 19.6415 35.0985 18.7709 35.3364C18.3345 35.456 17.9359 35.6719 17.4939 35.9006L16.198 36.5704C14.4546 37.4317 12.7256 38.3243 10.9688 39.1589C12.6243 38.1224 14.3087 37.1438 15.9787 36.1351L17.2423 35.4014C17.652 35.1646 18.1029 34.8907 18.5972 34.7293C19.578 34.4101 20.6591 34.4032 21.6511 34.7409C22.1621 34.9151 22.5918 35.1751 23.0171 35.3864C23.0171 35.3864 28.606 38.4218 29.4187 38.8119C30.1568 39.1648 31.0408 39.0266 31.6954 38.5321C32.3512 38.0376 32.7497 37.2007 32.6551 36.3603C32.5516 35.4339 32.3545 34.395 32.2075 33.4176L31.5095 28.9532C31.4494 28.4657 31.3436 27.9584 31.3425 27.3989C31.3414 26.3112 31.6809 25.2421 32.2755 24.368C32.5749 23.9281 32.9635 23.5659 33.3064 23.2328L34.3663 22.2066C35.8025 20.8624 37.2153 19.495 38.6715 18.1729Z" fill="url(#paint2_linear_107_26357)"/>
</g>
<defs>
<linearGradient id="paint0_linear_107_26357" x1="7.55542" y1="8.96447" x2="51.9283" y2="54.2905" gradientUnits="userSpaceOnUse">
<stop stop-color="#EEC909"/>
<stop offset="0.64" stop-color="#EFAB13"/>
<stop offset="1" stop-color="#F1981A"/>
</linearGradient>
<linearGradient id="paint1_linear_107_26357" x1="6.71253" y1="8.02809" x2="34.8882" y2="36.809" gradientUnits="userSpaceOnUse">
<stop stop-color="#F1981A"/>
<stop offset="0.36" stop-color="#EFAB13"/>
<stop offset="1" stop-color="#EEC909"/>
</linearGradient>
<linearGradient id="paint2_linear_107_26357" x1="23.0338" y1="26.6827" x2="33.8959" y2="37.7786" gradientUnits="userSpaceOnUse">
<stop stop-color="#F1981A"/>
<stop offset="0.36" stop-color="#EFAB13"/>
<stop offset="1" stop-color="#EEC909"/>
</linearGradient>
</defs>
</svg>
