<svg width="40" height="40" viewBox="0 0 40 40" fill="none" xmlns="http://www.w3.org/2000/svg">
<path d="M22.5078 2.12822L25.9524 9.40588C26.6226 10.8219 27.9184 11.8039 29.4169 12.0303L37.1198 13.1968C39.4143 13.5438 40.3305 16.4839 38.6695 18.1716L33.0952 23.8358C32.0109 24.9385 31.5155 26.5264 31.7715 28.0829L33.0874 36.0814C33.4793 38.4631 31.0813 40.2808 29.0284 39.1561L22.1382 35.3791C20.7978 34.6444 19.1958 34.6444 17.8554 35.3791L10.9652 39.1561C8.91345 40.2808 6.51431 38.4643 6.90619 36.0814L8.2221 28.0829C8.47816 26.5264 7.98274 24.9385 6.8984 23.8358L1.32415 18.1716C-0.335766 16.4839 0.58047 13.545 2.87385 13.1968L10.5767 12.0303C12.0752 11.8028 13.3711 10.8219 14.0413 9.40588L17.4858 2.12822C18.5122 -0.0388325 21.4769 -0.0388325 22.5023 2.12822H22.5078Z" fill="url(#paint0_linear_107_26393)"/>
<path d="M30.3366 39.9991C29.8155 39.9991 29.2923 39.8679 28.808 39.6021L21.9179 35.8252C20.7177 35.1671 19.2838 35.1671 18.0837 35.8252L11.1935 39.6021C10.0791 40.2127 8.75655 40.1129 7.74011 39.3421C6.72257 38.5714 6.22269 37.29 6.43533 35.9981L7.75124 27.9997C7.98058 26.6057 7.5375 25.1838 6.56671 24.1972L0.992462 18.5317C0.0918099 17.6171 -0.225479 16.2742 0.163059 15.0276C0.551597 13.7809 1.5658 12.8884 2.81046 12.7003L10.5133 11.5338C11.8559 11.3307 13.0149 10.452 13.6149 9.18453L17.0595 1.90687C17.6161 0.731064 18.7439 0.000976562 20.0008 0.000976562C21.2577 0.000976562 22.3854 0.731064 22.941 1.90687L26.3855 9.18453C26.9856 10.452 28.1456 11.3307 29.4871 11.5338L37.19 12.7003C38.4346 12.8884 39.4488 13.7809 39.8374 15.0276C40.2259 16.2742 39.9075 17.6183 39.008 18.5329L33.4337 24.1983C32.4629 25.1849 32.0199 26.6068 32.2492 28.0008L33.5651 35.9993C33.7777 37.2912 33.2779 38.5726 32.2603 39.3433C31.6859 39.7786 31.0134 40.0003 30.3355 40.0003L30.3366 39.9991ZM20.0008 34.3279C20.8135 34.3279 21.6262 34.531 22.3665 34.9372L29.2567 38.7142C30.0549 39.1506 30.9656 39.0821 31.6948 38.5308C32.424 37.9783 32.768 37.0962 32.6155 36.1699L31.2996 28.1715C31.0168 26.4513 31.5634 24.6974 32.7613 23.4799L38.3356 17.8156C38.9813 17.1598 39.1995 16.2347 38.9211 15.3409C38.6428 14.4472 37.9437 13.8332 37.0519 13.6985L29.3491 12.532C27.6925 12.2813 26.2619 11.1972 25.5216 9.63256L22.0771 2.3549C21.6785 1.51222 20.9025 1.00963 20.0019 1.00963C19.1012 1.00963 18.3242 1.51222 17.9256 2.3549L14.4811 9.63256C13.7407 11.1972 12.3091 12.2813 10.6536 12.532L2.95074 13.6985C2.05899 13.8343 1.36096 14.4484 1.08264 15.3421C0.804315 16.2359 1.02252 17.1609 1.66823 17.8167L7.24247 23.481C8.44148 24.6986 8.98699 26.4524 8.70422 28.1726L7.38831 36.1711C7.23579 37.0973 7.58091 37.9795 8.31012 38.532C9.03932 39.0845 9.95111 39.153 10.7482 38.7165L17.6384 34.9396C18.3787 34.5333 19.1914 34.3302 20.0041 34.3302L20.0008 34.3279Z" fill="url(#paint1_linear_107_26393)"/>
<g style="mix-blend-mode:overlay">
<path d="M29.3929 15.721L26.0786 15.2196C25.1123 15.0733 24.2762 14.4396 23.8442 13.5261L21.6221 8.8322C20.9597 7.43354 19.0482 7.43354 18.3858 8.8322L16.1637 13.5261C15.7317 14.4396 14.8956 15.0722 13.9293 15.2196L8.96067 15.9729C7.48111 16.1969 6.88995 18.0935 7.96094 19.1811L11.5569 22.835C12.256 23.5465 12.5755 24.5703 12.4108 25.5743L11.5624 30.7337C11.3253 32.1764 12.6724 33.2756 13.9337 32.8079C15.0493 25.5847 20.9619 18.8062 29.3951 15.721H29.3929Z" fill="#B3B3B3"/>
</g>
<g style="mix-blend-mode:overlay">
<path d="M26.0756 15.2196C24.1329 15.0502 23.4983 12.9087 22.6968 11.387L21.5111 8.96339C21.1771 8.17527 20.2776 7.78991 19.525 8.05223C18.6667 8.30759 18.4462 9.24777 18.0655 9.9941L16.9199 12.4386C16.3711 13.7536 15.6853 15.1152 14.2046 15.4146C12.7183 15.6804 10.5107 15.9706 9.02223 16.2004C7.79538 16.3095 7.16637 18.0065 8.02472 18.9339C8.94541 19.8868 10.789 21.8183 11.7075 22.7735C12.3476 23.4584 12.6605 24.4461 12.5514 25.3828L11.5583 30.7349L12.3164 25.3573C12.391 24.4891 12.0838 23.5976 11.4904 22.9952C10.3793 21.8566 8.79846 20.372 7.71411 19.2218C6.61529 18.0518 7.40795 15.887 8.95765 15.7361C9.76479 15.6085 11.9903 15.2649 12.8297 15.1326C13.6613 15.0014 14.5152 14.9828 15.1821 14.4083C15.8033 13.9765 16.1952 12.8994 16.5291 12.2366C16.9489 11.3823 17.8629 9.40214 18.297 8.57455C19.0507 7.17822 21.235 7.34768 21.7861 8.82295L22.9105 11.279C23.6531 12.8332 24.144 14.9457 26.0789 15.2196H26.0756Z" fill="#999999"/>
</g>
<g style="mix-blend-mode:overlay">
<path d="M38.6696 18.1709C37.3649 19.6554 36.0167 21.0936 34.6918 22.5549L33.681 23.6332C33.3359 24.0012 33.0152 24.3285 32.7714 24.7243C32.2849 25.5136 32.04 26.4526 32.0778 27.3765C32.0968 27.8245 32.2126 28.3028 32.2994 28.8077C32.2994 28.8077 33.4316 35.1974 33.5674 36.2652C33.7155 37.4271 33.17 38.6482 32.2582 39.34C31.3464 40.0317 30.0617 40.1942 29.0486 39.6882C28.1168 39.2239 27.3274 38.7387 26.4613 38.264L22.6383 36.1271C22.2052 35.8857 21.8055 35.6222 21.4025 35.4655C20.5709 35.1428 19.6402 35.0952 18.7696 35.3332C18.3332 35.4527 17.9357 35.6686 17.4937 35.8973L16.1979 36.567C14.4545 37.4283 12.7255 38.3209 10.9688 39.1554C12.6242 38.1189 14.3086 37.1404 15.9786 36.1318L17.2421 35.3982C17.6518 35.1614 18.1027 34.8875 18.597 34.7261C19.5778 34.4058 20.6588 34.4 21.6508 34.7377C22.1607 34.9118 22.5904 35.173 23.0168 35.3831C23.0168 35.3831 28.6055 38.4184 29.4182 38.8084C30.1563 39.1612 31.0403 39.0231 31.696 38.5286C32.3517 38.033 32.7503 37.1973 32.6556 36.3569C32.5521 35.4307 32.3551 34.3918 32.2081 33.4145L31.5101 28.9504C31.4499 28.4629 31.3442 27.9557 31.3431 27.3962C31.342 26.3086 31.6815 25.2396 32.276 24.3656C32.5755 23.9257 32.964 23.5636 33.3069 23.2304L34.3668 22.2044C35.8029 20.8603 37.2157 19.4929 38.6719 18.1709H38.6696Z" fill="url(#paint2_linear_107_26393)"/>
</g>
<mask id="mask0_107_26393" style="mask-type:luminance" maskUnits="userSpaceOnUse" x="0" y="0" width="21" height="40">
<path d="M20.0006 0C18.7437 0 17.6159 0.730088 17.0593 1.90589L13.6148 9.18355C13.0147 10.451 11.8546 11.3297 10.5131 11.5328L2.81027 12.6993C1.56561 12.8874 0.551407 13.78 0.162868 15.0266C-0.22567 16.2732 0.0927325 17.6161 0.992271 18.5308L6.56652 24.1962C7.5373 25.1828 7.98039 26.6047 7.75105 27.9987L6.43514 35.9972C6.2225 37.289 6.72237 38.5704 7.73992 39.3412C8.75636 40.1107 10.0789 40.2129 11.1933 39.6012L18.0835 35.8242C18.6847 35.4957 19.3426 35.3309 20.0006 35.3309V0Z" fill="white"/>
</mask>
<g mask="url(#mask0_107_26393)">
<mask id="mask1_107_26393" style="mask-type:luminance" maskUnits="userSpaceOnUse" x="0" y="0" width="40" height="40">
<path d="M22.5078 2.12822L25.9524 9.40588C26.6226 10.8219 27.9184 11.8039 29.4169 12.0303L37.1198 13.1968C39.4143 13.5438 40.3305 16.4839 38.6695 18.1716L33.0952 23.8358C32.0109 24.9385 31.5155 26.5264 31.7715 28.0829L33.0874 36.0814C33.4793 38.4631 31.0813 40.2808 29.0284 39.1561L22.1382 35.3791C20.7978 34.6444 19.1958 34.6444 17.8554 35.3791L10.9652 39.1561C8.91345 40.2808 6.51431 38.4643 6.90619 36.0814L8.2221 28.0829C8.47816 26.5264 7.98274 24.9385 6.8984 23.8358L1.32415 18.1716C-0.335766 16.4839 0.58047 13.545 2.87385 13.1968L10.5767 12.0303C12.0752 11.8028 13.3711 10.8219 14.0413 9.40588L17.4858 2.12822C18.5122 -0.0388325 21.4769 -0.0388325 22.5023 2.12822H22.5078Z" fill="white"/>
</mask>
<g mask="url(#mask1_107_26393)">
<path d="M16.7609 -0.0390625L-0.328125 16.688V-0.0390625H16.7609Z" fill="#EEC909"/>
<path d="M18.6112 -0.0390625L-0.328125 18.4998V16.688L16.7609 -0.0390625H18.6112Z" fill="#EEC909"/>
<path d="M20.4615 -0.0390625L-0.328125 20.3117V18.4998L18.6112 -0.0390625H20.4615Z" fill="#EEC809"/>
<path d="M22.3117 -0.0390625L-0.328125 22.1224V20.3117L20.4615 -0.0390625H22.3117Z" fill="#EEC70A"/>
<path d="M24.162 -0.0390625L-0.328125 23.9343V22.1224L22.3117 -0.0390625H24.162Z" fill="#EEC70A"/>
<path d="M26.0123 -0.0390625L-0.328125 25.745V23.9343L24.162 -0.0390625H26.0123Z" fill="#EEC60A"/>
<path d="M27.8626 -0.0390625L-0.328125 27.5569V25.745L26.0123 -0.0390625H27.8626Z" fill="#EEC50A"/>
<path d="M29.7129 -0.0390625L-0.328125 29.3687V27.5569L27.8626 -0.0390625H29.7129Z" fill="#EEC40B"/>
<path d="M29.832 -0.0390625L30.6425 0.86165L-0.328125 31.1794V29.3687L29.7129 -0.0390625H29.832Z" fill="#EEC30B"/>
<path d="M30.6425 0.861328L31.5097 1.82356L-0.328125 32.991V31.1791L30.6425 0.861328Z" fill="#EEC20B"/>
<path d="M31.5098 1.82422L32.377 2.78761L0.153932 34.3311L-0.328125 33.796V32.9917L31.5098 1.82422Z" fill="#EEC10C"/>
<path d="M32.3687 2.78047L0.148438 34.3262L1.01571 35.2891L33.236 3.74336L32.3687 2.78047Z" fill="#EFC00C"/>
<path d="M33.2437 3.74337L1.02344 35.2891L1.89071 36.2519L34.111 4.70626L33.2437 3.74337Z" fill="#EFBF0C"/>
<path d="M34.1109 4.70528L1.89062 36.251L2.75789 37.2139L34.9782 5.66817L34.1109 4.70528Z" fill="#EFBE0D"/>
<path d="M34.9781 5.67208L2.75781 37.2178L3.62508 38.1807L35.8454 6.63496L34.9781 5.67208Z" fill="#EFBD0D"/>
<path d="M35.8453 6.63009L3.625 38.1758L4.49227 39.1387L36.7126 7.59298L35.8453 6.63009Z" fill="#EFBC0D"/>
<path d="M36.7047 7.59297L4.48438 39.1387L5.35164 40.1016L37.5719 8.55586L36.7047 7.59297Z" fill="#EFBB0E"/>
<path d="M37.5825 8.56348L38.4486 9.52687L7.03154 40.2823H5.51635L5.35938 40.107L37.5825 8.56348Z" fill="#EFBA0E"/>
<path d="M38.4483 9.52637L39.3156 10.4886L8.88154 40.2817H7.03125L38.4483 9.52637Z" fill="#EFB90E"/>
<path d="M39.3168 10.4893L40.1841 11.4515L10.7331 40.2824H8.88281L39.3168 10.4893Z" fill="#EFB80F"/>
<path d="M40.1854 11.4512L40.3412 11.6253V13.1098L12.5847 40.2821H10.7344L40.1854 11.4512Z" fill="#EFB70F"/>
<path d="M40.3347 14.9212L14.4284 40.2816H12.5781L40.3347 13.1094V14.9212Z" fill="#EFB610"/>
<path d="M40.336 16.7316L16.28 40.2813H14.4297L40.336 14.9209V16.7316Z" fill="#EFB510"/>
<path d="M40.3372 18.5433L18.1315 40.2811H16.2812L40.3372 16.7314V18.5433Z" fill="#EFB410"/>
<path d="M40.3385 20.3558L19.9842 40.2818H18.1328L40.3385 18.5439V20.3558Z" fill="#EFB311"/>
<path d="M40.3387 22.1662L21.8347 40.2814H19.9844L40.3387 20.3555V22.1662Z" fill="#EFB211"/>
</g>
<mask id="mask2_107_26393" style="mask-type:luminance" maskUnits="userSpaceOnUse" x="-1" y="0" width="41" height="40">
<path d="M30.3287 39.9981C29.8077 39.9981 29.2845 39.867 28.8002 39.6012L21.91 35.8242C20.7099 35.1661 19.276 35.1661 18.0759 35.8242L11.1857 39.6012C10.0713 40.2117 8.74873 40.1119 7.7323 39.3412C6.71475 38.5705 6.21488 37.289 6.42752 35.9972L7.74343 27.9987C7.97277 26.6047 7.52968 25.1828 6.55889 24.1962L0.984649 18.5308C0.0839974 17.6161 -0.233292 16.2732 0.155247 15.0266C0.543785 13.78 1.55799 12.8874 2.80265 12.6993L10.5055 11.5328C11.8481 11.3297 13.0071 10.451 13.6071 9.18355L17.0517 1.90589C17.6083 0.730088 18.7361 0 19.993 0C21.2499 0 22.3776 0.730088 22.9332 1.90589L26.3777 9.18355C26.9777 10.451 28.1378 11.3297 29.4793 11.5328L37.1822 12.6993C38.4268 12.8874 39.441 13.78 39.8296 15.0266C40.2181 16.2732 39.8997 17.6173 39.0002 18.5319L33.4259 24.1974C32.4551 25.184 32.012 26.6058 32.2414 27.9999L33.5573 35.9983C33.7699 37.2902 33.2701 38.5716 32.2525 39.3423C31.6781 39.7776 31.0056 39.9993 30.3276 39.9993L30.3287 39.9981ZM19.993 34.3269C20.8057 34.3269 21.6184 34.53 22.3587 34.9363L29.2489 38.7132C30.0471 39.1497 30.9578 39.0812 31.687 38.5298C32.4162 37.9773 32.7602 37.0952 32.6077 36.1689L31.2917 28.1705C31.009 26.4503 31.5556 24.6965 32.7535 23.4789L38.3277 17.8146C38.9735 17.1588 39.1917 16.2337 38.9133 15.34C38.635 14.4462 37.9359 13.8322 37.0441 13.6976L29.3413 12.531C27.6847 12.2803 26.2541 11.1962 25.5138 9.63159L22.0692 2.35392C21.6707 1.51125 20.8947 1.00866 19.9941 1.00866C19.0934 1.00866 18.3163 1.51125 17.9178 2.35392L14.4733 9.63159C13.7329 11.1962 12.3012 12.2803 10.6458 12.531L2.94292 13.6976C2.05118 13.8334 1.35315 14.4474 1.07483 15.3411C0.796503 16.2349 1.01471 17.16 1.66042 17.8158L7.23466 23.48C8.43367 24.6976 8.97918 26.4515 8.69641 28.1716L7.3805 36.1701C7.22798 37.0964 7.5731 37.9785 8.3023 38.531C9.03151 39.0835 9.9433 39.152 10.7404 38.7155L17.6306 34.9386C18.3709 34.5323 19.1836 34.3292 19.9963 34.3292L19.993 34.3269Z" fill="white"/>
</mask>
<g mask="url(#mask2_107_26393)">
<path d="M13.8847 1.00488L0.796875 13.8168V1.00488H13.8847Z" fill="#F1981A"/>
<path d="M15.0603 1.00488L0.796875 14.9671V13.8168L13.8847 1.00488H15.0603Z" fill="#F1981A"/>
<path d="M16.2349 1.00488L0.796875 16.1174V14.9671L15.0603 1.00488H16.2349Z" fill="#F1991A"/>
<path d="M17.4094 1.00488L0.796875 17.2676V16.1173L16.2349 1.00488H17.4094Z" fill="#F19A19"/>
<path d="M18.585 1.00488L0.796875 18.4179V17.2676L17.4094 1.00488H18.585Z" fill="#F19B19"/>
<path d="M19.7596 1.00488L0.796875 19.5681V18.4179L18.585 1.00488H19.7596Z" fill="#F19C18"/>
<path d="M20.9352 1.00488L0.796875 20.7184V19.5681L19.7595 1.00488H20.9352Z" fill="#F19E18"/>
<path d="M22.1097 1.00488L0.796875 21.8687V20.7184L20.9352 1.00488H22.1097Z" fill="#F19F18"/>
<path d="M23.2842 1.00488L0.796875 23.0189V21.8687L22.1097 1.00488H23.2842Z" fill="#F1A017"/>
<path d="M24.4599 1.00488L0.796875 24.1692V23.0189L23.2842 1.00488H24.4599Z" fill="#F0A117"/>
<path d="M25.6344 1.00488L0.796875 25.3195V24.1692L24.4599 1.00488H25.6344Z" fill="#F0A217"/>
<path d="M26.81 1.00488L0.796875 26.4697V25.3195L25.6344 1.00488H26.81Z" fill="#F0A316"/>
<path d="M27.9845 1.00488L0.796875 27.62V26.4697L26.81 1.00488H27.9845Z" fill="#F0A416"/>
<path d="M29.1591 1.00488L0.796875 28.7703V27.62L27.9845 1.00488H29.1591Z" fill="#F0A515"/>
<path d="M29.1824 1.00488L29.7224 1.60497L0.796875 29.9194V28.7703L29.1591 1.00488H29.1824Z" fill="#F0A615"/>
<path d="M29.7224 1.60449L30.2723 2.21619L0.796875 31.0692V29.9189L29.7224 1.60449Z" fill="#F0A715"/>
<path d="M30.2723 2.2168L30.8234 2.82733L0.796875 32.22V31.0698L30.2723 2.2168Z" fill="#F0A814"/>
<path d="M30.8234 2.82715L31.3734 3.43884L0.796875 33.3701V32.2199L30.8234 2.82715Z" fill="#F0AA14"/>
<path d="M31.3734 3.43848L31.9245 4.05017L1.33905 33.9896L0.796875 33.3883V33.3698L31.3734 3.43848Z" fill="#F0AB14"/>
<path d="M31.9185 4.04503L1.33594 33.9873L1.88617 34.5982L32.4688 4.65593L31.9185 4.04503Z" fill="#F0AC13"/>
<path d="M32.4654 4.65831L1.88281 34.6006L2.43305 35.2115L33.0156 5.26921L32.4654 4.65831Z" fill="#F0AD13"/>
<path d="M33.0251 5.27814L2.4375 35.2148L2.98763 35.8258L33.5752 5.88914L33.0251 5.27814Z" fill="#F0AE12"/>
<path d="M33.5748 5.87804L2.99219 35.8203L3.54242 36.4312L34.125 6.48894L33.5748 5.87804Z" fill="#F0AF12"/>
<path d="M34.1217 6.49132L3.53906 36.4336L4.0893 37.0445L34.6719 7.10222L34.1217 6.49132Z" fill="#F0B012"/>
<path d="M34.6735 7.11114L4.08594 37.0479L4.63607 37.6589L35.2237 7.72214L34.6735 7.11114Z" fill="#EFB111"/>
<path d="M35.2232 7.71593L4.64062 37.6582L5.19086 38.2691L35.7735 8.32683L35.2232 7.71593Z" fill="#EFB211"/>
<path d="M35.7751 8.3338L5.1875 38.2705L5.73763 38.8815L36.3252 8.9448L35.7751 8.3338Z" fill="#EFB311"/>
<path d="M36.3265 8.94043L36.8776 9.55096L6.64173 39.1491H5.98489L5.74219 38.8798L36.3265 8.94043Z" fill="#EFB410"/>
<path d="M36.8765 9.55078L37.4264 10.1625L7.81626 39.1489H6.64062L36.8765 9.55078Z" fill="#EFB510"/>
<path d="M37.4227 10.1621L37.9738 10.7738L8.98702 39.1486H7.8125L37.4227 10.1621Z" fill="#EFB610"/>
<path d="M37.9789 10.7744L38.5289 11.3849L10.1678 39.1492H8.99219L37.9789 10.7744Z" fill="#EFB70F"/>
<path d="M38.5251 11.3848L39.0762 11.9965L11.3386 39.149H10.1641L38.5251 11.3848Z" fill="#EFB80F"/>
<path d="M39.0814 11.9961L39.1972 12.1249V13.0326L12.5183 39.1486H11.3438L39.0814 11.9961Z" fill="#EFB90E"/>
<path d="M39.1945 14.1835L13.6913 39.1492H12.5156L39.1945 13.0332V14.1835Z" fill="#EFBA0E"/>
<path d="M39.1986 15.3339L14.8698 39.1493H13.6953L39.1986 14.1836V15.3339Z" fill="#EFBB0E"/>
<path d="M39.1959 16.4843L16.0428 39.1495H14.8672L39.1959 15.334V16.4843Z" fill="#EFBC0D"/>
<path d="M39.1922 17.6337L17.2136 39.1486H16.0391L39.1922 16.4834V17.6337Z" fill="#EFBD0D"/>
<path d="M39.1895 18.7841L18.3855 39.1487H17.2109L39.1895 17.6338V18.7841Z" fill="#EFBE0D"/>
<path d="M39.1947 19.9344L19.5663 39.1489H18.3906L39.1947 18.7842V19.9344Z" fill="#EFBF0C"/>
<path d="M39.1909 21.0848L20.737 39.149H19.5625L39.1909 19.9346V21.0848Z" fill="#EFC00C"/>
<path d="M14.9075 -0.000976562L-0.234375 14.8213V-0.000976562H14.9075Z" fill="#F1981A"/>
<path d="M16.082 -0.000976562L-0.234375 15.9716V14.8213L14.9075 -0.000976562H16.082Z" fill="#F1981A"/>
<path d="M17.2565 -0.000976562L-0.234375 17.1218V15.9716L16.082 -0.000976562H17.2565Z" fill="#F1991A"/>
<path d="M18.4322 -0.000976562L-0.234375 18.2721V17.1218L17.2565 -0.000976562H18.4322Z" fill="#F19A19"/>
<path d="M19.6067 -0.000976562L-0.234375 19.4224V18.2721L18.4322 -0.000976562H19.6067Z" fill="#F19B19"/>
<path d="M20.7823 -0.000976562L-0.234375 20.5726V19.4224L19.6067 -0.000976562H20.7823Z" fill="#F19C18"/>
<path d="M21.9568 -0.000976562L-0.234375 21.7229V20.5726L20.7823 -0.000976562H21.9568Z" fill="#F19E18"/>
<path d="M23.1314 -0.000976562L-0.234375 22.8732V21.7229L21.9568 -0.000976562H23.1314Z" fill="#F19F18"/>
<path d="M24.307 -0.000976562L-0.234375 24.0234V22.8732L23.1314 -0.000976562H24.307Z" fill="#F1A017"/>
<path d="M25.4815 -0.000976562L-0.234375 25.1737V24.0234L24.307 -0.000976562H25.4815Z" fill="#F0A117"/>
<path d="M26.6572 -0.000976562L-0.234375 26.324V25.1737L25.4815 -0.000976562H26.6572Z" fill="#F0A217"/>
<path d="M27.8317 -0.000976562L-0.234375 27.4742V26.324L26.6572 -0.000976562H27.8317Z" fill="#F0A316"/>
<path d="M29.0062 -0.000976562L-0.234375 28.6245V27.4742L27.8317 -0.000976562H29.0062Z" fill="#F0A416"/>
<path d="M29.6764 -0.000976562L29.9135 0.262505L-0.234375 29.7748V28.6245L29.0062 -0.000976562H29.6764Z" fill="#F0A515"/>
<path d="M29.9135 0.262695L30.4635 0.87323L-0.234375 30.9241V29.775L29.9135 0.262695Z" fill="#F0A615"/>
<path d="M30.4635 0.874023L31.0146 1.48572L-0.234375 32.0751V30.9249L30.4635 0.874023Z" fill="#F0A715"/>
<path d="M31.0146 1.48535L31.5645 2.09705L-0.234375 33.225V32.0748L31.0146 1.48535Z" fill="#F0A814"/>
<path d="M31.5645 2.09668L32.1156 2.70721L0.0450619 34.1022L-0.234375 33.7922V33.2247L31.5645 2.09668Z" fill="#F0AA14"/>
<path d="M32.1154 2.70348L0.046875 34.1006L0.597111 34.7115L32.6656 3.31438L32.1154 2.70348Z" fill="#F0AB14"/>
<path d="M32.6675 3.32357L0.59375 34.7148L1.14388 35.3258L33.2177 3.93457L32.6675 3.32357Z" fill="#F0AC13"/>
<path d="M33.217 3.92613L1.14844 35.3232L1.69867 35.9341L33.7672 4.53703L33.217 3.92613Z" fill="#F0AD13"/>
<path d="M33.7639 4.53648L1.69531 35.9336L2.24555 36.5445L34.3141 5.14738L33.7639 4.53648Z" fill="#F0AE12"/>
<path d="M34.316 5.15755L2.24219 36.5488L2.79232 37.1598L34.8661 5.76855L34.316 5.15755Z" fill="#F0AF12"/>
<path d="M34.8654 5.76011L2.79688 37.1572L3.34711 37.7681L35.4157 6.37101L34.8654 5.76011Z" fill="#F0B012"/>
<path d="M35.4254 6.38216L3.35156 37.7734L3.9017 38.3844L35.9755 6.99316L35.4254 6.38216Z" fill="#EFB111"/>
<path d="M35.967 6.97984L3.89844 38.377L4.44867 38.9879L36.5172 7.59074L35.967 6.97984Z" fill="#EFB211"/>
<path d="M36.5269 7.60482L4.45312 38.9961L5.00326 39.6071L37.0771 8.21582L36.5269 7.60482Z" fill="#EFB311"/>
<path d="M37.0706 8.20898L37.6205 8.82068L5.5533 40.2121H5.54774L5 39.6039L37.0706 8.20898Z" fill="#EFB410"/>
<path d="M37.6219 8.82031L38.173 9.43085L6.73032 40.2118H5.55469L37.6219 8.82031Z" fill="#EFB510"/>
<path d="M38.1692 9.43164L38.7192 10.0433L7.90108 40.2126H6.72656L38.1692 9.43164Z" fill="#EFB610"/>
<path d="M38.7244 10.043L39.2754 10.6547L9.08188 40.2122H7.90625L38.7244 10.043Z" fill="#EFB70F"/>
<path d="M39.2717 10.6543L39.8216 11.2648L10.2527 40.2118H9.07812L39.2717 10.6543Z" fill="#EFB80F"/>
<path d="M39.8268 11.2656L40.2242 11.7067V12.0282L11.4323 40.2126H10.2578L39.8268 11.2656Z" fill="#EFB90E"/>
<path d="M40.2216 13.1786L12.6053 40.2127H11.4297L40.2216 12.0283V13.1786Z" fill="#EFBA0E"/>
<path d="M40.2178 14.329L13.7761 40.2128H12.6016L40.2178 13.1787V14.329Z" fill="#EFBB0E"/>
<path d="M40.223 15.4784L14.9569 40.212H13.7812L40.223 14.3281V15.4784Z" fill="#EFBC0D"/>
<path d="M40.2192 16.6298L16.1276 40.2131H14.9531L40.2192 15.4795V16.6298Z" fill="#EFBD0D"/>
<path d="M40.2244 17.7792L17.3073 40.2122H16.1328L40.2244 16.6289V17.7792Z" fill="#EFBE0D"/>
<path d="M40.2218 18.9296L18.4803 40.2124H17.3047L40.2218 17.7793V18.9296Z" fill="#EFBF0C"/>
<path d="M40.2258 20.08L19.6589 40.2125H18.4844L40.2258 18.9297V20.08Z" fill="#EFC00C"/>
<path d="M40.2232 21.2292L20.8319 40.2126H19.6562L40.2232 20.0801V21.2292Z" fill="#EEC10C"/>
</g>
<g style="mix-blend-mode:overlay">
<path d="M29.3929 15.721L26.0786 15.2196C25.1123 15.0733 24.2762 14.4396 23.8442 13.5261L21.6221 8.8322C20.9597 7.43354 19.0482 7.43354 18.3858 8.8322L16.1637 13.5261C15.7317 14.4396 14.8956 15.0722 13.9293 15.2196L8.96067 15.9729C7.48111 16.1969 6.88995 18.0935 7.96094 19.1811L11.5569 22.835C12.256 23.5465 12.5755 24.5703 12.4108 25.5743L11.5624 30.7337C11.3253 32.1764 12.6724 33.2756 13.9337 32.8079C15.0493 25.5847 20.9619 18.8062 29.3951 15.721H29.3929Z" fill="#B3B3B3"/>
</g>
<g style="mix-blend-mode:overlay">
<path d="M26.0756 15.2196C24.1329 15.0502 23.4983 12.9087 22.6968 11.387L21.5111 8.96339C21.1771 8.17527 20.2776 7.78991 19.525 8.05223C18.6667 8.30759 18.4462 9.24777 18.0655 9.9941L16.9199 12.4386C16.3711 13.7536 15.6853 15.1152 14.2046 15.4146C12.7183 15.6804 10.5107 15.9706 9.02223 16.2004C7.79538 16.3095 7.16637 18.0065 8.02472 18.9339C8.94541 19.8868 10.789 21.8183 11.7075 22.7735C12.3476 23.4584 12.6605 24.4461 12.5514 25.3828L11.5583 30.7349L12.3164 25.3573C12.391 24.4891 12.0838 23.5976 11.4904 22.9952C10.3793 21.8566 8.79846 20.372 7.71411 19.2218C6.61529 18.0518 7.40795 15.887 8.95765 15.7361C9.76479 15.6085 11.9903 15.2649 12.8297 15.1326C13.6613 15.0014 14.5152 14.9828 15.1821 14.4083C15.8033 13.9765 16.1952 12.8994 16.5291 12.2366C16.9489 11.3823 17.8629 9.40214 18.297 8.57455C19.0507 7.17822 21.235 7.34768 21.7861 8.82295L22.9105 11.279C23.6531 12.8332 24.144 14.9457 26.0789 15.2196H26.0756Z" fill="#999999"/>
</g>
<g style="mix-blend-mode:overlay">
<path d="M38.6696 18.1709C37.3649 19.6554 36.0167 21.0936 34.6918 22.5549L33.681 23.6332C33.3359 24.0012 33.0152 24.3285 32.7714 24.7243C32.2849 25.5136 32.04 26.4526 32.0778 27.3765C32.0968 27.8245 32.2126 28.3028 32.2994 28.8077C32.2994 28.8077 33.4316 35.1974 33.5674 36.2652C33.7155 37.4271 33.17 38.6482 32.2582 39.34C31.3464 40.0317 30.0617 40.1942 29.0486 39.6882C28.1168 39.2239 27.3274 38.7387 26.4613 38.264L22.6383 36.1271C22.2052 35.8857 21.8055 35.6222 21.4025 35.4655C20.5709 35.1428 19.6402 35.0952 18.7696 35.3332C18.3332 35.4527 17.9357 35.6686 17.4937 35.8973L16.1979 36.567C14.4545 37.4283 12.7255 38.3209 10.9688 39.1554C12.6242 38.1189 14.3086 37.1404 15.9786 36.1318L17.2421 35.3982C17.6518 35.1614 18.1027 34.8875 18.597 34.7261C19.5778 34.4058 20.6588 34.4 21.6508 34.7377C22.1607 34.9118 22.5904 35.173 23.0168 35.3831C23.0168 35.3831 28.6055 38.4184 29.4182 38.8084C30.1563 39.1612 31.0403 39.0231 31.696 38.5286C32.3517 38.033 32.7503 37.1973 32.6556 36.3569C32.5521 35.4307 32.3551 34.3918 32.2081 33.4145L31.5101 28.9504C31.4499 28.4629 31.3442 27.9557 31.3431 27.3962C31.342 26.3086 31.6815 25.2396 32.276 24.3656C32.5755 23.9257 32.964 23.5636 33.3069 23.2304L34.3668 22.2044C35.8029 20.8603 37.2157 19.4929 38.6719 18.1709H38.6696Z" fill="url(#paint3_linear_107_26393)"/>
</g>
</g>
<defs>
<linearGradient id="paint0_linear_107_26393" x1="7.55746" y1="8.96481" x2="51.927" y2="54.2896" gradientUnits="userSpaceOnUse">
<stop stop-color="#D7D7D7"/>
<stop offset="1" stop-color="#D0D0D0"/>
</linearGradient>
<linearGradient id="paint1_linear_107_26393" x1="6.71366" y1="8.02846" x2="34.8861" y2="36.8086" gradientUnits="userSpaceOnUse">
<stop stop-color="#C8C8C8"/>
<stop offset="1" stop-color="#CFCFCF"/>
</linearGradient>
<linearGradient id="paint2_linear_107_26393" x1="23.0324" y1="26.6801" x2="33.8937" y2="37.7757" gradientUnits="userSpaceOnUse">
<stop stop-color="#D7D7D7"/>
<stop offset="1" stop-color="#D0D0D0"/>
</linearGradient>
<linearGradient id="paint3_linear_107_26393" x1="23.0324" y1="26.6801" x2="33.8937" y2="37.7757" gradientUnits="userSpaceOnUse">
<stop stop-color="#F1981A"/>
<stop offset="0.36" stop-color="#EFAB13"/>
<stop offset="1" stop-color="#EEC909"/>
</linearGradient>
</defs>
</svg>
